<svg xmlns="http://www.w3.org/2000/svg" width="32" height="32" fill="none" viewBox="0 0 32 32" aria-hidden="true" focusable="false" role="img">
  <path fill="currentColor" fill-rule="evenodd" d="M14.9 3.07a1.33 1.33 0 0 1 1.86-.05L22.15 8h7.18v8.15H24.8L17.18 8.5l-1.89-1.88-4.24 4.24c-.52.52-1.36.52-1.89 0l-.95-.95 6.7-6.85Zm.4 7.33-2.36 2.36a4 4 0 0 1-5.66 0l-.95-.96a2.67 2.67 0 0 1-.03-3.75L6.36 8h-3.7v8.78l11.2 11.04a.66.66 0 0 0 .94-.94l-1.4-1.39 1.9-1.88 2.35 2.36a.67.67 0 0 0 .94-.95l-2.35-2.35 1.88-1.89 2.36 2.36.94.94a.67.67 0 0 0 .94-.94l-3.3-3.3 1.89-1.89 3.3 3.3.94.94a.67.67 0 1 0 .95-.94L15.29 10.4ZM8.96 5.32 13 1.2a4 4 0 0 1 5.57-.14l4.62 4.26H32V18.8h-4.53l.55.56a3.33 3.33 0 0 1-3.09 5.6 3.33 3.33 0 0 1-3.77 1.9 3.33 3.33 0 0 1-3.8 1.87 3.32 3.32 0 0 1-5.37.98L0 17.88V5.32h8.97Z" clip-rule="evenodd"/>
</svg>
