<svg xmlns="http://www.w3.org/2000/svg" width="640" height="420" fill="none" viewBox="0 0 640 420" aria-hidden="true" focusable="false">
  <path stroke="#CCC" stroke-linecap="round" stroke-width="3" d="m2 379 116.88-116.88a3 3 0 0 1 4.24 0l65.76 65.76a3 3 0 0 0 4.24 0l194.76-194.76a3 3 0 0 1 4.24 0L638 379"/>
  <circle cx="189" cy="63" r="1" fill="#AAA" stroke="#AAA"/>
  <circle cx="189" cy="71" r="1" fill="#AAA" stroke="#AAA"/>
  <circle cx="189" cy="79" r="1" fill="#AAA" stroke="#AAA"/>
  <circle cx="189" cy="87" r="1" fill="#AAA" stroke="#AAA"/>
  <circle cx="189" cy="95" r="1" fill="#AAA" stroke="#AAA"/>
  <circle cx="189" cy="103" r="1" fill="#AAA" stroke="#AAA"/>
  <circle cx="189" cy="111" r="1" fill="#AAA" stroke="#AAA"/>
  <circle cx="189" cy="119" r="1" fill="#AAA" stroke="#AAA"/>
  <circle cx="189" cy="127" r="1" fill="#AAA" stroke="#AAA"/>
  <circle cx="189" cy="135" r="1" fill="#AAA" stroke="#AAA"/>
  <circle cx="189" cy="143" r="1" fill="#AAA" stroke="#AAA"/>
  <circle cx="189" cy="151" r="1" fill="#AAA" stroke="#AAA"/>
  <circle cx="189" cy="159" r="1" fill="#AAA" stroke="#AAA"/>
  <circle cx="189" cy="167" r="1" fill="#AAA" stroke="#AAA"/>
  <circle cx="189" cy="175" r="1" fill="#AAA" stroke="#AAA"/>
  <circle cx="189" cy="183" r="1" fill="#AAA" stroke="#AAA"/>
  <circle cx="189" cy="191" r="1" fill="#AAA" stroke="#AAA"/>
  <circle cx="189" cy="199" r="1" fill="#AAA" stroke="#AAA"/>
  <circle cx="197" cy="63" r="1" fill="#AAA" stroke="#AAA"/>
  <circle cx="197" cy="71" r="1" fill="#AAA" stroke="#AAA"/>
  <circle cx="197" cy="79" r="1" fill="#AAA" stroke="#AAA"/>
  <circle cx="197" cy="87" r="1" fill="#AAA" stroke="#AAA"/>
  <circle cx="197" cy="95" r="1" fill="#AAA" stroke="#AAA"/>
  <circle cx="197" cy="103" r="1" fill="#AAA" stroke="#AAA"/>
  <circle cx="197" cy="111" r="1" fill="#AAA" stroke="#AAA"/>
  <circle cx="197" cy="119" r="1" fill="#AAA" stroke="#AAA"/>
  <circle cx="197" cy="127" r="1" fill="#AAA" stroke="#AAA"/>
  <circle cx="197" cy="135" r="1" fill="#AAA" stroke="#AAA"/>
  <circle cx="197" cy="143" r="1" fill="#AAA" stroke="#AAA"/>
  <circle cx="197" cy="151" r="1" fill="#AAA" stroke="#AAA"/>
  <circle cx="197" cy="159" r="1" fill="#AAA" stroke="#AAA"/>
  <circle cx="197" cy="167" r="1" fill="#AAA" stroke="#AAA"/>
  <circle cx="197" cy="175" r="1" fill="#AAA" stroke="#AAA"/>
  <circle cx="197" cy="183" r="1" fill="#AAA" stroke="#AAA"/>
  <circle cx="197" cy="191" r="1" fill="#AAA" stroke="#AAA"/>
  <circle cx="197" cy="199" r="1" fill="#AAA" stroke="#AAA"/>
  <circle cx="205" cy="71" r="1" fill="#AAA" stroke="#AAA"/>
  <circle cx="205" cy="63" r="1" fill="#AAA" stroke="#AAA"/>
  <circle cx="205" cy="79" r="1" fill="#AAA" stroke="#AAA"/>
  <circle cx="205" cy="87" r="1" fill="#AAA" stroke="#AAA"/>
  <circle cx="205" cy="95" r="1" fill="#AAA" stroke="#AAA"/>
  <circle cx="205" cy="103" r="1" fill="#AAA" stroke="#AAA"/>
  <circle cx="205" cy="111" r="1" fill="#AAA" stroke="#AAA"/>
  <circle cx="205" cy="119" r="1" fill="#AAA" stroke="#AAA"/>
  <circle cx="205" cy="127" r="1" fill="#AAA" stroke="#AAA"/>
  <circle cx="205" cy="135" r="1" fill="#AAA" stroke="#AAA"/>
  <circle cx="205" cy="143" r="1" fill="#AAA" stroke="#AAA"/>
  <circle cx="205" cy="151" r="1" fill="#AAA" stroke="#AAA"/>
  <circle cx="205" cy="159" r="1" fill="#AAA" stroke="#AAA"/>
  <circle cx="205" cy="167" r="1" fill="#AAA" stroke="#AAA"/>
  <circle cx="205" cy="175" r="1" fill="#AAA" stroke="#AAA"/>
  <circle cx="205" cy="183" r="1" fill="#AAA" stroke="#AAA"/>
  <circle cx="205" cy="191" r="1" fill="#AAA" stroke="#AAA"/>
  <circle cx="205" cy="199" r="1" fill="#AAA" stroke="#AAA"/>
  <circle cx="213" cy="71" r="1" fill="#AAA" stroke="#AAA"/>
  <circle cx="213" cy="79" r="1" fill="#AAA" stroke="#AAA"/>
  <circle cx="213" cy="87" r="1" fill="#AAA" stroke="#AAA"/>
  <circle cx="213" cy="95" r="1" fill="#AAA" stroke="#AAA"/>
  <circle cx="213" cy="103" r="1" fill="#AAA" stroke="#AAA"/>
  <circle cx="213" cy="111" r="1" fill="#AAA" stroke="#AAA"/>
  <circle cx="213" cy="119" r="1" fill="#AAA" stroke="#AAA"/>
  <circle cx="213" cy="127" r="1" fill="#AAA" stroke="#AAA"/>
  <circle cx="213" cy="135" r="1" fill="#AAA" stroke="#AAA"/>
  <circle cx="213" cy="143" r="1" fill="#AAA" stroke="#AAA"/>
  <circle cx="213" cy="151" r="1" fill="#AAA" stroke="#AAA"/>
  <circle cx="213" cy="159" r="1" fill="#AAA" stroke="#AAA"/>
  <circle cx="213" cy="167" r="1" fill="#AAA" stroke="#AAA"/>
  <circle cx="213" cy="175" r="1" fill="#AAA" stroke="#AAA"/>
  <circle cx="213" cy="183" r="1" fill="#AAA" stroke="#AAA"/>
  <circle cx="213" cy="191" r="1" fill="#AAA" stroke="#AAA"/>
  <circle cx="221" cy="71" r="1" fill="#AAA" stroke="#AAA"/>
  <circle cx="221" cy="79" r="1" fill="#AAA" stroke="#AAA"/>
  <circle cx="221" cy="87" r="1" fill="#AAA" stroke="#AAA"/>
  <circle cx="221" cy="95" r="1" fill="#AAA" stroke="#AAA"/>
  <circle cx="221" cy="103" r="1" fill="#AAA" stroke="#AAA"/>
  <circle cx="221" cy="111" r="1" fill="#AAA" stroke="#AAA"/>
  <circle cx="221" cy="119" r="1" fill="#AAA" stroke="#AAA"/>
  <circle cx="221" cy="127" r="1" fill="#AAA" stroke="#AAA"/>
  <circle cx="221" cy="135" r="1" fill="#AAA" stroke="#AAA"/>
  <circle cx="221" cy="143" r="1" fill="#AAA" stroke="#AAA"/>
  <circle cx="221" cy="151" r="1" fill="#AAA" stroke="#AAA"/>
  <circle cx="221" cy="159" r="1" fill="#AAA" stroke="#AAA"/>
  <circle cx="221" cy="167" r="1" fill="#AAA" stroke="#AAA"/>
  <circle cx="221" cy="175" r="1" fill="#AAA" stroke="#AAA"/>
  <circle cx="221" cy="183" r="1" fill="#AAA" stroke="#AAA"/>
  <circle cx="221" cy="191" r="1" fill="#AAA" stroke="#AAA"/>
  <circle cx="229" cy="79" r="1" fill="#AAA" stroke="#AAA"/>
  <circle cx="229" cy="87" r="1" fill="#AAA" stroke="#AAA"/>
  <circle cx="229" cy="95" r="1" fill="#AAA" stroke="#AAA"/>
  <circle cx="229" cy="103" r="1" fill="#AAA" stroke="#AAA"/>
  <circle cx="229" cy="111" r="1" fill="#AAA" stroke="#AAA"/>
  <circle cx="229" cy="119" r="1" fill="#AAA" stroke="#AAA"/>
  <circle cx="229" cy="127" r="1" fill="#AAA" stroke="#AAA"/>
  <circle cx="229" cy="135" r="1" fill="#AAA" stroke="#AAA"/>
  <circle cx="229" cy="143" r="1" fill="#AAA" stroke="#AAA"/>
  <circle cx="229" cy="151" r="1" fill="#AAA" stroke="#AAA"/>
  <circle cx="229" cy="159" r="1" fill="#AAA" stroke="#AAA"/>
  <circle cx="229" cy="167" r="1" fill="#AAA" stroke="#AAA"/>
  <circle cx="229" cy="175" r="1" fill="#AAA" stroke="#AAA"/>
  <circle cx="229" cy="183" r="1" fill="#AAA" stroke="#AAA"/>
  <circle cx="237" cy="87" r="1" fill="#AAA" stroke="#AAA"/>
  <circle cx="237" cy="95" r="1" fill="#AAA" stroke="#AAA"/>
  <circle cx="237" cy="103" r="1" fill="#AAA" stroke="#AAA"/>
  <circle cx="237" cy="111" r="1" fill="#AAA" stroke="#AAA"/>
  <circle cx="237" cy="119" r="1" fill="#AAA" stroke="#AAA"/>
  <circle cx="237" cy="127" r="1" fill="#AAA" stroke="#AAA"/>
  <circle cx="237" cy="135" r="1" fill="#AAA" stroke="#AAA"/>
  <circle cx="237" cy="143" r="1" fill="#AAA" stroke="#AAA"/>
  <circle cx="237" cy="151" r="1" fill="#AAA" stroke="#AAA"/>
  <circle cx="237" cy="159" r="1" fill="#AAA" stroke="#AAA"/>
  <circle cx="237" cy="167" r="1" fill="#AAA" stroke="#AAA"/>
  <circle cx="237" cy="175" r="1" fill="#AAA" stroke="#AAA"/>
  <circle cx="245" cy="95" r="1" fill="#AAA" stroke="#AAA"/>
  <circle cx="245" cy="103" r="1" fill="#AAA" stroke="#AAA"/>
  <circle cx="245" cy="111" r="1" fill="#AAA" stroke="#AAA"/>
  <circle cx="245" cy="119" r="1" fill="#AAA" stroke="#AAA"/>
  <circle cx="245" cy="127" r="1" fill="#AAA" stroke="#AAA"/>
  <circle cx="245" cy="135" r="1" fill="#AAA" stroke="#AAA"/>
  <circle cx="245" cy="143" r="1" fill="#AAA" stroke="#AAA"/>
  <circle cx="245" cy="151" r="1" fill="#AAA" stroke="#AAA"/>
  <circle cx="245" cy="159" r="1" fill="#AAA" stroke="#AAA"/>
  <circle cx="245" cy="167" r="1" fill="#AAA" stroke="#AAA"/>
  <circle cx="253" cy="111" r="1" fill="#AAA" stroke="#AAA"/>
  <circle cx="253" cy="119" r="1" fill="#AAA" stroke="#AAA"/>
  <circle cx="253" cy="127" r="1" fill="#AAA" stroke="#AAA"/>
  <circle cx="253" cy="135" r="1" fill="#AAA" stroke="#AAA"/>
  <circle cx="253" cy="143" r="1" fill="#AAA" stroke="#AAA"/>
  <circle cx="253" cy="151" r="1" fill="#AAA" stroke="#AAA"/>
  <circle cx="181" cy="63" r="1" fill="#AAA" stroke="#AAA"/>
  <circle cx="181" cy="71" r="1" fill="#AAA" stroke="#AAA"/>
  <circle cx="181" cy="79" r="1" fill="#AAA" stroke="#AAA"/>
  <circle cx="181" cy="87" r="1" fill="#AAA" stroke="#AAA"/>
  <circle cx="181" cy="95" r="1" fill="#AAA" stroke="#AAA"/>
  <circle cx="181" cy="103" r="1" fill="#AAA" stroke="#AAA"/>
  <circle cx="181" cy="111" r="1" fill="#AAA" stroke="#AAA"/>
  <circle cx="181" cy="119" r="1" fill="#AAA" stroke="#AAA"/>
  <circle cx="181" cy="127" r="1" fill="#AAA" stroke="#AAA"/>
  <circle cx="181" cy="135" r="1" fill="#AAA" stroke="#AAA"/>
  <circle cx="181" cy="143" r="1" fill="#AAA" stroke="#AAA"/>
  <circle cx="181" cy="151" r="1" fill="#AAA" stroke="#AAA"/>
  <circle cx="181" cy="159" r="1" fill="#AAA" stroke="#AAA"/>
  <circle cx="181" cy="167" r="1" fill="#AAA" stroke="#AAA"/>
  <circle cx="181" cy="175" r="1" fill="#AAA" stroke="#AAA"/>
  <circle cx="181" cy="183" r="1" fill="#AAA" stroke="#AAA"/>
  <circle cx="181" cy="191" r="1" fill="#AAA" stroke="#AAA"/>
  <circle cx="181" cy="199" r="1" fill="#AAA" stroke="#AAA"/>
  <circle cx="173" cy="71" r="1" fill="#AAA" stroke="#AAA"/>
  <circle cx="173" cy="63" r="1" fill="#AAA" stroke="#AAA"/>
  <circle cx="173" cy="79" r="1" fill="#AAA" stroke="#AAA"/>
  <circle cx="173" cy="87" r="1" fill="#AAA" stroke="#AAA"/>
  <circle cx="173" cy="95" r="1" fill="#AAA" stroke="#AAA"/>
  <circle cx="173" cy="103" r="1" fill="#AAA" stroke="#AAA"/>
  <circle cx="173" cy="111" r="1" fill="#AAA" stroke="#AAA"/>
  <circle cx="173" cy="119" r="1" fill="#AAA" stroke="#AAA"/>
  <circle cx="173" cy="127" r="1" fill="#AAA" stroke="#AAA"/>
  <circle cx="173" cy="135" r="1" fill="#AAA" stroke="#AAA"/>
  <circle cx="173" cy="143" r="1" fill="#AAA" stroke="#AAA"/>
  <circle cx="173" cy="151" r="1" fill="#AAA" stroke="#AAA"/>
  <circle cx="173" cy="159" r="1" fill="#AAA" stroke="#AAA"/>
  <circle cx="173" cy="167" r="1" fill="#AAA" stroke="#AAA"/>
  <circle cx="173" cy="175" r="1" fill="#AAA" stroke="#AAA"/>
  <circle cx="173" cy="183" r="1" fill="#AAA" stroke="#AAA"/>
  <circle cx="173" cy="191" r="1" fill="#AAA" stroke="#AAA"/>
  <circle cx="173" cy="199" r="1" fill="#AAA" stroke="#AAA"/>
  <circle cx="165" cy="71" r="1" fill="#AAA" stroke="#AAA"/>
  <circle cx="165" cy="79" r="1" fill="#AAA" stroke="#AAA"/>
  <circle cx="165" cy="87" r="1" fill="#AAA" stroke="#AAA"/>
  <circle cx="165" cy="95" r="1" fill="#AAA" stroke="#AAA"/>
  <circle cx="165" cy="103" r="1" fill="#AAA" stroke="#AAA"/>
  <circle cx="165" cy="111" r="1" fill="#AAA" stroke="#AAA"/>
  <circle cx="165" cy="119" r="1" fill="#AAA" stroke="#AAA"/>
  <circle cx="165" cy="127" r="1" fill="#AAA" stroke="#AAA"/>
  <circle cx="165" cy="135" r="1" fill="#AAA" stroke="#AAA"/>
  <circle cx="165" cy="143" r="1" fill="#AAA" stroke="#AAA"/>
  <circle cx="165" cy="151" r="1" fill="#AAA" stroke="#AAA"/>
  <circle cx="165" cy="159" r="1" fill="#AAA" stroke="#AAA"/>
  <circle cx="165" cy="167" r="1" fill="#AAA" stroke="#AAA"/>
  <circle cx="165" cy="175" r="1" fill="#AAA" stroke="#AAA"/>
  <circle cx="165" cy="183" r="1" fill="#AAA" stroke="#AAA"/>
  <circle cx="165" cy="191" r="1" fill="#AAA" stroke="#AAA"/>
  <circle cx="157" cy="71" r="1" fill="#AAA" stroke="#AAA"/>
  <circle cx="157" cy="79" r="1" fill="#AAA" stroke="#AAA"/>
  <circle cx="157" cy="87" r="1" fill="#AAA" stroke="#AAA"/>
  <circle cx="157" cy="95" r="1" fill="#AAA" stroke="#AAA"/>
  <circle cx="157" cy="103" r="1" fill="#AAA" stroke="#AAA"/>
  <circle cx="157" cy="111" r="1" fill="#AAA" stroke="#AAA"/>
  <circle cx="157" cy="119" r="1" fill="#AAA" stroke="#AAA"/>
  <circle cx="157" cy="127" r="1" fill="#AAA" stroke="#AAA"/>
  <circle cx="157" cy="135" r="1" fill="#AAA" stroke="#AAA"/>
  <circle cx="157" cy="143" r="1" fill="#AAA" stroke="#AAA"/>
  <circle cx="157" cy="151" r="1" fill="#AAA" stroke="#AAA"/>
  <circle cx="157" cy="159" r="1" fill="#AAA" stroke="#AAA"/>
  <circle cx="157" cy="167" r="1" fill="#AAA" stroke="#AAA"/>
  <circle cx="157" cy="175" r="1" fill="#AAA" stroke="#AAA"/>
  <circle cx="157" cy="183" r="1" fill="#AAA" stroke="#AAA"/>
  <circle cx="157" cy="191" r="1" fill="#AAA" stroke="#AAA"/>
  <circle cx="149" cy="79" r="1" fill="#AAA" stroke="#AAA"/>
  <circle cx="149" cy="87" r="1" fill="#AAA" stroke="#AAA"/>
  <circle cx="149" cy="95" r="1" fill="#AAA" stroke="#AAA"/>
  <circle cx="149" cy="103" r="1" fill="#AAA" stroke="#AAA"/>
  <circle cx="149" cy="111" r="1" fill="#AAA" stroke="#AAA"/>
  <circle cx="149" cy="119" r="1" fill="#AAA" stroke="#AAA"/>
  <circle cx="149" cy="127" r="1" fill="#AAA" stroke="#AAA"/>
  <circle cx="149" cy="135" r="1" fill="#AAA" stroke="#AAA"/>
  <circle cx="149" cy="143" r="1" fill="#AAA" stroke="#AAA"/>
  <circle cx="149" cy="151" r="1" fill="#AAA" stroke="#AAA"/>
  <circle cx="149" cy="159" r="1" fill="#AAA" stroke="#AAA"/>
  <circle cx="149" cy="167" r="1" fill="#AAA" stroke="#AAA"/>
  <circle cx="149" cy="175" r="1" fill="#AAA" stroke="#AAA"/>
  <circle cx="149" cy="183" r="1" fill="#AAA" stroke="#AAA"/>
  <circle cx="141" cy="87" r="1" fill="#AAA" stroke="#AAA"/>
  <circle cx="141" cy="95" r="1" fill="#AAA" stroke="#AAA"/>
  <circle cx="141" cy="103" r="1" fill="#AAA" stroke="#AAA"/>
  <circle cx="141" cy="111" r="1" fill="#AAA" stroke="#AAA"/>
  <circle cx="141" cy="119" r="1" fill="#AAA" stroke="#AAA"/>
  <circle cx="141" cy="127" r="1" fill="#AAA" stroke="#AAA"/>
  <circle cx="141" cy="135" r="1" fill="#AAA" stroke="#AAA"/>
  <circle cx="141" cy="143" r="1" fill="#AAA" stroke="#AAA"/>
  <circle cx="141" cy="151" r="1" fill="#AAA" stroke="#AAA"/>
  <circle cx="141" cy="159" r="1" fill="#AAA" stroke="#AAA"/>
  <circle cx="141" cy="167" r="1" fill="#AAA" stroke="#AAA"/>
  <circle cx="141" cy="175" r="1" fill="#AAA" stroke="#AAA"/>
  <circle cx="133" cy="95" r="1" fill="#AAA" stroke="#AAA"/>
  <circle cx="133" cy="103" r="1" fill="#AAA" stroke="#AAA"/>
  <circle cx="133" cy="111" r="1" fill="#AAA" stroke="#AAA"/>
  <circle cx="133" cy="119" r="1" fill="#AAA" stroke="#AAA"/>
  <circle cx="133" cy="127" r="1" fill="#AAA" stroke="#AAA"/>
  <circle cx="133" cy="135" r="1" fill="#AAA" stroke="#AAA"/>
  <circle cx="133" cy="143" r="1" fill="#AAA" stroke="#AAA"/>
  <circle cx="133" cy="151" r="1" fill="#AAA" stroke="#AAA"/>
  <circle cx="133" cy="159" r="1" fill="#AAA" stroke="#AAA"/>
  <circle cx="133" cy="167" r="1" fill="#AAA" stroke="#AAA"/>
  <circle cx="125" cy="111" r="1" fill="#AAA" stroke="#AAA"/>
  <circle cx="125" cy="119" r="1" fill="#AAA" stroke="#AAA"/>
  <circle cx="125" cy="127" r="1" fill="#AAA" stroke="#AAA"/>
  <circle cx="125" cy="135" r="1" fill="#AAA" stroke="#AAA"/>
  <circle cx="125" cy="143" r="1" fill="#AAA" stroke="#AAA"/>
  <circle cx="125" cy="151" r="1" fill="#AAA" stroke="#AAA"/>
</svg>