<svg xmlns="http://www.w3.org/2000/svg" width="24" height="24" fill="none" viewBox="0 0 24 24">
  <path stroke="currentColor" stroke-miterlimit="16" stroke-width="1.5" d="M4.5 13v6.5c0 .3.2.5.5.5h14c.3 0 .5-.2.5-.5V13"/>
  <path stroke="currentColor" stroke-linecap="round" stroke-miterlimit="16" stroke-width="1.5" d="M12 11v4"/>
  <path stroke="currentColor" stroke-miterlimit="16" stroke-width="1.5" d="M20.5 6h-17c-.3 0-.5.2-.5.5v6c0 .3.2.5.5.5h17c.3 0 .5-.2.5-.5v-6c0-.3-.2-.5-.5-.5Zm-12 0V4c0-.6.4-1 1-1h5c.6 0 1 .4 1 1v2"/>
</svg>
