<svg xmlns="http://www.w3.org/2000/svg" width="24" height="24" fill="none" viewBox="0 0 24 24">
  <path stroke="currentColor" stroke-miterlimit="16" stroke-width="1.5" d="M19 11V8a1 1 0 0 0-1-1H4a1 1 0 0 0-1 1v11a1 1 0 0 0 1 1h14a1 1 0 0 0 1-1v-3"/>
  <path stroke="currentColor" stroke-miterlimit="16" stroke-width="1.5" d="M14.5 11h5a1 1 0 0 1 1 1v3a1 1 0 0 1-1 1h-5S12 16 12 13.5s2.5-2.5 2.5-2.5Z"/>
  <path stroke="currentColor" stroke-linecap="round" stroke-width="1.5" d="M14.51 13.5h-.01"/>
  <path stroke="currentColor" stroke-miterlimit="16" stroke-width="1.5" d="m5 7 11-4 1.5 4"/>
</svg>
