<svg width="96" height="96" viewBox="0 0 96 96" fill="none" xmlns="http://www.w3.org/2000/svg">
<path d="M76 25.6667C76 16.4619 68.9485 9 60.25 9C55.8422 9 51.8574 10.916 49.0014 14.0039C46.1426 10.916 42.1578 9 37.75 9C29.0515 9 22 16.4619 22 25.6667C22 30.3322 23.8116 34.5499 26.731 37.5752L26.5 37.5714L49 59L71.5 37.5714L71.269 37.5752C74.1884 34.5499 76 30.3322 76 25.6667Z" fill="var(--pictogram, #FFECCC)"/>
<path d="M66.8558 69.6H53.7837C50.174 69.6 47.2477 66.8242 47.2477 63.4C47.2477 59.9758 50.174 57.2 53.7837 57.2H68.4898C70.7501 53.4936 75.0894 51 79.9279 51C87.1474 51 93 56.5517 93 63.4V82H49.4973C48.0105 82 46.5367 81.7237 45.1508 81.1852L19.4167 71.185C15.7705 69.7681 14.5871 65.1933 17.089 62.1861V62.1861C18.4124 60.5956 20.4909 59.8427 22.5259 60.2168L47.3337 64.7778" stroke="currentColor" stroke-width="3"/>
<path d="M3 34.5229L20.3756 42.6658C21.9693 43.4127 23.7078 43.7999 25.4678 43.7999H70" stroke="currentColor" stroke-width="3" stroke-linecap="round" stroke-linejoin="round"/>
<circle cx="19.5529" cy="25.6706" r="7.17059" stroke="currentColor" stroke-width="3"/>
<path d="M66.9077 37.6156V34.1541C66.9077 27.5266 61.5351 22.1541 54.9077 22.1541H43.8616C37.2342 22.1541 31.8616 27.5266 31.8616 34.154V37.6156" stroke="currentColor" stroke-width="3"/>

</svg>
