<svg width="96" height="96" viewBox="0 0 96 96" fill="none" xmlns="http://www.w3.org/2000/svg">
<g clip-path="url(#clip0_595_4827)">
<path d="M18.6376 53.725L48 83L77.3624 53.7249C84.3359 46.7723 84.3359 35.4777 77.3624 28.5251C70.4184 21.6016 59.1816 21.6016 52.2375 28.5251L48 32.75L43.7624 28.5251C36.8184 21.6016 25.5816 21.6016 18.6376 28.5251C11.6641 35.4777 11.6641 46.7723 18.6376 53.725Z" fill="#FFECCC"/>
<path d="M37.7565 75.5904L50.8823 64.3272C53.4209 62.1489 57.2333 62.7182 59.0663 65.5494C60.5361 67.8197 60.2454 70.8427 58.3717 72.7721L41.1925 90.4618C38.9925 92.7273 36.0086 94 32.8972 94H2V78.0542C2 71.6098 7.07341 66.3856 13.3318 66.3856C15.6774 66.3856 17.9908 66.948 20.0887 68.0281L22.858 69.4539H31.7971C35.0884 69.4539 37.7565 72.2013 37.7565 75.5904ZM37.7565 75.5904C37.7565 78.9795 35.0884 81.727 31.7971 81.727H19.8783" stroke="#23262A" stroke-width="3" stroke-linecap="round" stroke-linejoin="round"/>
<path d="M63.8649 11H74.1351V21.7817H85V31.7043H74.1351V43H63.8649V31.7043H53V21.7817H63.8649V11Z" stroke="#23262A" stroke-width="3"/>
<circle cx="69" cy="27" r="25" stroke="#23262A" stroke-width="3"/>
</g>
<defs>
<clipPath id="clip0_595_4827">
<rect width="96" height="96" fill="white"/>
</clipPath>
</defs>
</svg>
