<svg xmlns="http://www.w3.org/2000/svg" width="224" height="136" fill="none" viewBox="0 0 224 136">
  <g class="c-area-card__chart">
    <path fill="#99C4DD" d="M38 84h16v52H38V84Z"/>
    <path fill="#FFB8B8" d="M10 104h16v32H10v-32Z"/>
  </g>

  <path fill="#95BAD6" d="M137 0h36a51 51 0 1 1 0 102h-36V68h36a17 17 0 1 0 0-34h-36V0Z"/>

  <path class="c-area-card__letter-upright" fill="#FFB8B8" d="M97 0h40v136H97V0Z"/>
  
  <g class="c-area-card__piggybank">
    <path fill="#F68282" d="M91.4 136v-13.5h5.9V136h-6 .1Zm23.6 0v-13.5h6V136h-6Z"/>
    <path fill="#5C0000" d="M99.7 74.8 85 70v11.7a27.9 27.9 0 0 0-6 7.3h-6.3v23.7H79c5 8.9 15.5 14.8 27.4 14.8 16.6 0 30.7-11.6 30.7-26.7 0-15-14.1-26.7-30.7-26.7a35 35 0 0 0-6.7.7Z"/>
    <path fill="#F68282" d="M106.6 93.9c-2.9 0-5.4 1-7.2 2.3l-3.8-4.7c3-2.4 6.8-3.7 11-3.7s8.1 1.3 11 3.7l-3.8 4.7a11.6 11.6 0 0 0-7.2-2.3Z"/>
    <path class="c-area-card__coin" fill="#FAD592" d="M107 91a11 11 0 1 0 0-22 11 11 0 0 0 0 22Z"/>
  </g>
</svg>
