<svg width="96" height="96" viewBox="0 0 96 96" fill="none" xmlns="http://www.w3.org/2000/svg">
<g clip-path="url(#clip0_1_3070)">
<path fill-rule="evenodd" clip-rule="evenodd" d="M48 72C61.8071 72 73 60.8071 73 47C73 33.1929 61.8071 22 48 22C34.1929 22 23 33.1929 23 47C23 60.8071 34.1929 72 48 72ZM44 38V48H51C53.7614 48 56 45.7614 56 43C56 40.2386 53.7614 38 51 38H44ZM44 64.25V54H51C57.0751 54 62 49.0751 62 43C62 36.9249 57.0751 32 51 32H44H43H38V64.25H44Z" fill="rgb(204 241 214)"/>
<path d="M54.5 25.1622C54.5 32.784 51.9206 40.416 47.4844 46.1155C43.0591 51.8009 36.8483 55.5 29.5273 55.5C14.3166 55.5 1.5 46.1116 1.5 31.3243C1.5 23.6336 3.60838 16.1207 7.53778 10.5735C11.442 5.06178 17.1226 1.5 24.4364 1.5C32.0367 1.5 39.6081 3.74434 45.2406 7.83868C50.8451 11.9126 54.5 17.7816 54.5 25.1622Z" stroke="#262626" stroke-width="3"/>
<path d="M47.001 25.5556C47.4735 38.3135 38.6437 47.452 28 47.452C22.3766 47.452 18.1456 46.3469 15.031 43.83C11.9217 41.3174 9.68768 37.205 8.47471 30.6782C6.16875 18.27 15.3262 9.34076 26.1237 8.4469C31.5952 7.99395 36.7097 9.20566 40.4797 12.0101C44.2105 14.7855 46.7664 19.2223 47.001 25.5556Z" stroke="#262626" stroke-width="3"/>
<path d="M40.0266 29.2808C40.6738 32.6737 39.3259 35.7972 36.8245 38.0789C34.306 40.3762 30.7014 41.7264 27.1197 41.5027C19.8068 41.0458 14.5261 35.84 14.5261 28.9997C14.5261 25.4505 15.5459 22.8553 17.4696 20.903C19.4356 18.9077 22.4944 17.4322 26.8515 16.464C30.7729 15.5927 33.5931 16.8659 35.6913 19.2426C37.8685 21.7089 39.2884 25.4115 40.0266 29.2808Z" stroke="#262626" stroke-width="3"/>
<path d="M32.5 28C32.5 31.0376 30.0376 33.5 27 33.5C25.494 33.5 23.8769 32.805 22.7529 31.6441C21.6654 30.5209 21.0998 29.0353 21.4549 27.3686C22.2489 24.6623 24.6829 23 28 23C29.5724 23 30.6394 23.5228 31.3296 24.2978C32.0408 25.0965 32.5 26.3317 32.5 28Z" stroke="#262626" stroke-width="3"/>
<path d="M55.6849 47.1792L55.6851 47.1793L61.7952 50.8302L62.3698 51.1735L63.009 50.9752C65.4503 50.218 68.0884 49.8035 70.8446 49.8035C83.7156 49.8035 93.7515 58.7362 93.7515 69.2998C93.7515 75.0112 90.8637 79.8571 86.5044 83.319C82.1307 86.7924 76.3576 88.796 70.8446 88.796C61.0223 88.796 54.7223 85.0044 50.6162 78.4505L50.1755 77.747L49.3454 77.7469L43.5 77.7456V63.0647L48.1463 63.0659L49.107 63.0661L49.509 62.1936C50.5693 59.8927 52.135 57.7923 54.1038 55.9982L54.5934 55.5521L54.5934 54.8897L54.5941 47.7869V47.7868C54.5941 47.4001 54.9103 47.0767 55.3129 47.0767C55.4443 47.0767 55.573 47.1123 55.6849 47.1792Z" stroke="#262626" stroke-width="3"/>
<path d="M75.2822 60.8405C73.931 60.2408 72.2928 59.8896 70.527 59.8896C68.7617 59.8896 67.1239 60.2406 65.7729 60.8401" stroke="#262626" stroke-width="3" stroke-linecap="round"/>
<path d="M62.4448 87.8926L62.4448 95.5" stroke="#262626" stroke-width="3" stroke-linecap="round"/>
<path d="M82.4141 86.9419L82.4141 95.5001" stroke="#262626" stroke-width="3" stroke-linecap="round"/>
</g>
<defs>
<clipPath id="clip0_1_3070">
<rect width="96" height="96" fill="white"/>
</clipPath>
</defs>
</svg>
