<svg width="96" height="96" viewBox="0 0 96 96" fill="none" aria-hidden="true" focusable="false" xmlns="http://www.w3.org/2000/svg">
<g clip-path="url(#clip0_74_945)">
<rect x="28.6152" y="24" width="38" height="14" transform="rotate(90 28.6152 24)" fill="rgb(204 241 214)"/>
<rect x="2" y="36.3848" width="38" height="14" fill="rgb(204 241 214)"/>
<rect x="58" y="96" width="56" height="14" transform="rotate(-90 58 96)" fill="rgb(204 241 214)"/>
<rect x="37" y="61" width="56" height="14" fill="rgb(204 241 214)"/>
<path d="M79.3986 53.4492L74.086 73.276M74.086 73.276L63.4222 70.4187L50.7888 74.117L39.1085 73.9145C37.6675 73.8895 36.3946 74.8488 36.0216 76.2409L35.8631 76.8324C34.8779 80.5094 37.3649 84.2102 41.1416 84.687L46.4975 85.3632L51.8801 86.0428C56.5994 86.6386 61.2103 87.9017 65.5743 89.7944L72.2823 92.7035C76.2399 94.4199 80.7097 91.7261 81.041 87.4251L81.9679 75.388L74.086 73.276Z" stroke="#262626" stroke-width="3"/>
<path d="M77.3171 28.0991L93.8759 32.536L92.7443 36.7591C91.1594 42.674 88.2166 48.1376 84.1498 52.7157V52.7157C81.4592 55.7445 76.466 54.4065 75.6503 50.4383V50.4383C74.4174 44.4401 74.6007 38.2371 76.1855 32.3222L77.3171 28.0991Z" stroke="#262626" stroke-width="3"/>
<path d="M35.9999 40.1352L13.9999 27.6351" stroke="#262626" stroke-width="3"/>
<path d="M54.3942 45.1286L65.0356 51.2724C66.1972 51.943 67.6825 51.545 68.3531 50.3835V50.3835C69.0237 49.2219 68.6257 47.7366 67.4642 47.066L52.5746 38.4695" stroke="#262626" stroke-width="3" stroke-linecap="round"/>
<path d="M54.195 36.5987L54.0548 35.1078C53.6815 35.1394 53.3348 35.3087 53.0825 35.5826L54.195 36.5987ZM32.1599 46.9514L30.8545 46.1977L32.1599 46.9514ZM32.9055 49.6798L32.1592 50.9724L32.9055 49.6798ZM40.1581 33.0981L41.4636 33.8518L40.1581 33.0981ZM52.0829 30.6459L52.1404 29.1513L52.0829 30.6459ZM51.8601 30.6603L52.1368 32.1333L51.8601 30.6603ZM52.6065 38.3232L51.494 37.3071L52.6065 38.3232ZM60.4538 31.0359L60.5112 29.5412L60.4538 31.0359ZM57.4644 34.8192L54.0548 35.1078L54.3352 38.0896L57.7448 37.801L57.4644 34.8192ZM52.0254 32.1406L60.3963 32.5305L60.5112 29.5412L52.1404 29.1513L52.0254 32.1406ZM51.5834 29.1873L40.5673 31.1455L41.1207 34.0916L52.1368 32.1333L51.5834 29.1873ZM53.0825 35.5826L51.494 37.3071L53.7189 39.3394L55.3075 37.6149L53.0825 35.5826ZM38.8527 32.3444L30.8545 46.1977L33.4654 47.7051L41.4636 33.8518L38.8527 32.3444ZM32.1592 50.9724L35.2113 52.7345L36.7038 50.1493L33.6517 48.3872L32.1592 50.9724ZM30.8545 46.1977C29.8928 47.8635 30.4769 50.0012 32.1592 50.9724L33.6517 48.3872C33.4114 48.2485 33.328 47.9431 33.4654 47.7051L30.8545 46.1977ZM40.5673 31.1455C39.8445 31.2739 39.2176 31.7123 38.8527 32.3444L41.4636 33.8518C41.3906 33.9782 41.2652 34.0659 41.1207 34.0916L40.5673 31.1455ZM52.1404 29.1513C51.9538 29.1426 51.767 29.1546 51.5834 29.1873L52.1368 32.1333C52.1001 32.1399 52.0628 32.1423 52.0254 32.1406L52.1404 29.1513ZM59.9782 32.0946C59.9779 33.5182 58.8889 34.6986 57.4644 34.8192L57.7448 37.801C60.7146 37.5496 62.985 35.0888 62.9856 32.1208L59.9782 32.0946ZM51.494 37.3071C49.6964 39.2586 46.9934 40.1198 44.3735 39.5756L43.7832 42.5048C47.4389 43.2642 51.2105 42.0626 53.7189 39.3394L51.494 37.3071ZM62.9856 32.1208C62.9858 30.7449 61.893 29.6056 60.5112 29.5412L60.3963 32.5305C60.1628 32.5196 59.9781 32.3271 59.9782 32.0946L62.9856 32.1208Z" fill="currentColor"/>
<path d="M52.715 48.0359C51.9975 47.6217 51.0801 47.8675 50.6659 48.5849C50.2517 49.3024 50.4975 50.2198 51.215 50.634L52.715 48.0359ZM64.7724 54.9973L52.715 48.0359L51.215 50.634L63.2724 57.5954L64.7724 54.9973ZM55.0596 47.2451L65.701 53.3889L67.201 50.7909L56.5596 44.6471L55.0596 47.2451ZM66.0409 54.6574C65.7845 55.1015 65.2165 55.2537 64.7724 54.9973L63.2724 57.5954C65.1514 58.6802 67.5541 58.0364 68.639 56.1574L66.0409 54.6574ZM68.639 56.1574C69.7238 54.2784 69.08 51.8757 67.201 50.7909L65.701 53.3889C66.1451 53.6454 66.2973 54.2133 66.0409 54.6574L68.639 56.1574Z" fill="currentColor"/>
<path d="M50.9531 54.3592L60.1784 59.6855C61.34 60.3561 62.8253 59.9581 63.4959 58.7966V58.7966C64.1666 57.635 63.7686 56.1497 62.607 55.4791L53.3817 50.1528" stroke="#262626" stroke-width="3"/>
<path d="M50.2883 52.2424C49.5709 51.8282 48.6535 52.074 48.2393 52.7914C47.8251 53.5089 48.0709 54.4262 48.7883 54.8405L50.2883 52.2424ZM55.323 60.8903L35.9093 49.6818L34.4093 52.2798L53.823 63.4884L55.323 60.8903ZM48.7883 54.8405L56.309 59.1825L57.809 56.5844L50.2883 52.2424L48.7883 54.8405ZM56.6699 60.5294C56.3976 61.001 55.7946 61.1625 55.323 60.8903L53.823 63.4884C55.7295 64.589 58.1673 63.9358 59.268 62.0294L56.6699 60.5294ZM59.268 62.0294C60.3687 60.1229 59.7155 57.6851 57.809 56.5844L56.309 59.1825C56.7806 59.4548 56.9422 60.0578 56.6699 60.5294L59.268 62.0294Z" fill="currentColor"/>
<path d="M2 8.13525L17.7143 8.13525L17.7143 12.2412C17.7143 17.8486 16.4142 23.3795 13.9161 28.3996V28.3996C12.2481 31.7515 7.46618 31.7515 5.79822 28.3996V28.3996C3.30012 23.3795 2 17.8485 2 12.2412L2 8.13525Z" stroke="#262626" stroke-width="3"/>
</g>
<defs>
<clipPath id="clip0_74_945">
<rect width="96" height="96" fill="white"/>
</clipPath>
</defs>
</svg>
