<svg width="96" height="96" viewBox="0 0 96 96" fill="none" xmlns="http://www.w3.org/2000/svg">
<g clip-path="url(#clip0_1_516)">
<rect width="48" height="48" transform="translate(47.9412 14) rotate(45)" fill="#CCF1D6"/>
<path d="M68.0003 12.0252L68.1104 12.4063L68.1137 12.4474L68.1394 12.5568C68.3536 13.4688 68.4558 14.4319 68.4269 15.4343L68.4109 15.9896L68.4085 16.0721L68.4152 16.1544L68.9422 22.6337L69.0279 23.6874L70.0491 23.961L79.613 26.5237C84.6943 27.8852 87.7098 33.1081 86.3483 38.1894C84.9868 43.2707 79.7638 46.2862 74.6825 44.9246L61.6745 41.4391C55.3495 39.7444 51.3321 33.7302 51.9496 27.4206L52.0559 26.3346L53.7177 20.1324L54.1994 18.3347L52.3405 18.2459L48.7358 18.0735C46.3106 17.9576 44.2073 16.3599 43.4452 14.0546C42.4083 10.918 44.1642 7.5441 47.3281 6.59379L54.1987 4.53013C60.2701 2.70651 66.3562 6.33366 68.0003 12.0252Z" stroke="#262626" stroke-width="3"/>
<path d="M85.4073 56.9605C79.407 60.4256 69.7973 60.3871 62.2106 58.3543C54.624 56.3214 46.2825 51.5499 42.8186 45.5489" stroke="#262626" stroke-width="3" stroke-linecap="round"/>
<path d="M57.1851 39.2522L48.1149 53.1756" stroke="#262626" stroke-width="3"/>
<path d="M75.8643 44.2572L76.7577 60.8504" stroke="#262626" stroke-width="3"/>
<path d="M92.7191 35.4686C93.6623 36.2951 94.1103 37.6139 93.7638 38.9071L91.0713 48.9557C90.128 48.1293 89.6801 46.8104 90.0266 45.5172L92.7191 35.4686Z" stroke="#262626" stroke-width="3"/>
<path d="M66.2171 2.39321C66.9242 3.11467 67.2426 4.1805 66.9622 5.22696L66.4492 7.14129C65.7231 6.53665 65.3727 5.54427 65.6334 4.57165L66.2171 2.39321Z" stroke="#262626" stroke-width="3"/>
<rect x="87.8821" y="33.5279" width="2.4495" height="2.45052" transform="rotate(15 87.8821 33.5279)" stroke="#262626" stroke-width="2.4495"/>
<path d="M28 65.5C37.4197 65.5 46.1118 70.2021 54.0808 80C46.1118 89.7979 37.4197 94.5 28 94.5C18.5803 94.5 9.88822 89.7979 1.91917 80C9.88822 70.2021 18.5803 65.5 28 65.5Z" stroke="#262626" stroke-width="3"/>
<circle cx="28" cy="80" r="10.5" stroke="#262626" stroke-width="3"/>
</g>
<defs>
<clipPath id="clip0_1_516">
<rect width="96" height="96" fill="white"/>
</clipPath>
</defs>
</svg>
