<svg width="96" height="96" viewBox="0 0 96 96" fill="none" xmlns="http://www.w3.org/2000/svg">
<g clip-path="url(#clip0_1_700)">
<path fill-rule="evenodd" clip-rule="evenodd" d="M31.311 74L51.385 22H65.4666L45.4235 74H31.311Z" fill="rgb(204 241 214)"/>
<ellipse cx="31.3111" cy="33.9998" rx="10.3111" ry="10.6667" fill="rgb(204 241 214)"/>
<ellipse cx="68.689" cy="55.3335" rx="10.3111" ry="10.6667" fill="rgb(204 241 214)"/>
<path d="M26 26H24.5V26.6213L24.9393 27.0607L26 26ZM26 2H27.5V0.5H26V2ZM42.9706 42.9706L44.0312 44.0312L45.0919 42.9706L44.0312 41.9099L42.9706 42.9706ZM27.5 26V2H24.5V26H27.5ZM44.0312 41.9099L27.0607 24.9393L24.9393 27.0607L41.9099 44.0312L44.0312 41.9099ZM41.9099 41.9099C37.8366 45.9832 32.2136 48.5 26 48.5V51.5C33.0412 51.5 39.4183 48.6442 44.0312 44.0312L41.9099 41.9099ZM26 48.5C13.5736 48.5 3.5 38.4264 3.5 26H0.5C0.5 40.0833 11.9167 51.5 26 51.5V48.5ZM3.5 26C3.5 13.5736 13.5736 3.5 26 3.5V0.5C11.9167 0.5 0.5 11.9167 0.5 26H3.5Z" fill="currentColor"/>
<path d="M42.9706 42.9706L41.9099 44.0312L42.9706 45.0919L44.0312 44.0312L42.9706 42.9706ZM26 2V0.5H24.5V2H26ZM26 26H24.5V26.6213L24.9393 27.0607L26 26ZM48.5 26C48.5 32.2136 45.9832 37.8366 41.9099 41.9099L44.0312 44.0312C48.6442 39.4183 51.5 33.0412 51.5 26H48.5ZM26 3.5C38.4264 3.5 48.5 13.5736 48.5 26H51.5C51.5 11.9167 40.0833 0.5 26 0.5V3.5ZM27.5 26V2H24.5V26H27.5ZM44.0312 41.9099L27.0607 24.9393L24.9393 27.0607L41.9099 44.0312L44.0312 41.9099Z" fill="currentColor"/>
<path d="M81.7089 53.58L80.5559 52.623L79.5977 53.7751L65.5874 70.6194L65.3662 70.8854L65.2838 71.2213L63.4236 78.8042L62.6929 81.7827L65.4926 80.531L72.5718 77.366L72.8899 77.2238L73.1128 76.9558L87.1652 60.06L88.1254 58.9056L86.97 57.9466L81.7089 53.58Z" stroke="#262626" stroke-width="3"/>
<path d="M86.0713 46.0248L86.0484 46.0479L86.0266 46.0719L85.8051 46.3162L85.7836 46.3399L85.7631 46.3645L82.5355 50.243L81.5748 51.3974L82.7305 52.3567L87.9915 56.7233L89.1441 57.68L90.1024 56.5287L93.2879 52.7016L93.2883 52.7012C94.9633 50.6873 94.8965 47.7552 93.1177 45.9364L93.093 45.9112L93.0671 45.8871L92.8413 45.6769L92.8155 45.6529L92.7886 45.6302C90.8025 43.9489 87.8828 44.1937 86.0713 46.0248Z" stroke="#262626" stroke-width="3"/>
<path d="M84 48H49V94H91V55.7703" stroke="#262626" stroke-width="3"/>
<path d="M56 60H74.4922" stroke="#262626" stroke-width="3"/>
<path d="M56 72H65" stroke="#262626" stroke-width="3"/>
</g>
<defs>
<clipPath id="clip0_1_700">
<rect width="96" height="96" fill="white"/>
</clipPath>
</defs>
</svg>
