<svg width="96" height="96" viewBox="0 0 96 96" fill="none" xmlns="http://www.w3.org/2000/svg">
<g clip-path="url(#clip0_1_773)">
<path d="M41.8413 52.996L16.9207 28.0754L35.4736 9.52254L60.3942 34.4431L70.9167 23.9206L79.2301 71.832L31.3187 63.5186L41.8413 52.996Z" fill="rgb(204 241 214)"/>
<path d="M94.5 64.0585C94.5 72.1041 88.003 78.617 80 78.617C71.997 78.617 65.5 72.1041 65.5 64.0585C65.5 56.0129 71.997 49.5 80 49.5C88.003 49.5 94.5 56.0129 94.5 64.0585Z" stroke="#262626" stroke-width="3"/>
<path d="M91.9999 96V96C91.9999 89.3726 86.6274 83.9561 79.9999 83.9561V83.9561C73.3725 83.9561 67.9999 89.3726 67.9999 96V96" stroke="#262626" stroke-width="3"/>
<ellipse cx="76.0001" cy="63.5566" rx="2" ry="2.00731" fill="currentColor"/>
<ellipse cx="84" cy="63.5566" rx="2" ry="2.00731" fill="currentColor"/>
<mask id="path-6-inside-1_1_773" fill="white">
<rect y="5.99988" width="48" height="42" rx="2"/>
</mask>
<rect y="5.99988" width="48" height="42" rx="2" stroke="#262626" stroke-width="6" mask="url(#path-6-inside-1_1_773)"/>
<line x1="2.00012" y1="22.4999" x2="46.0001" y2="22.4999" stroke="#262626" stroke-width="3"/>
<path d="M14.0001 2L14.0001 14" stroke="#262626" stroke-width="3" stroke-linecap="round"/>
<path d="M14.0001 29.9999L10.0001 29.9999" stroke="#262626" stroke-width="3" stroke-linecap="round"/>
<path d="M14.0001 38L10.0001 38" stroke="#262626" stroke-width="3" stroke-linecap="round"/>
<path d="M26.0001 29.9999L22.0001 29.9999" stroke="#262626" stroke-width="3" stroke-linecap="round"/>
<path d="M26.0001 38L22.0001 38" stroke="#262626" stroke-width="3" stroke-linecap="round"/>
<path d="M38.0001 29.9999L34.0001 29.9999" stroke="#262626" stroke-width="3" stroke-linecap="round"/>
<path d="M38.0001 38L34.0001 38" stroke="#262626" stroke-width="3" stroke-linecap="round"/>
<path d="M33.9999 2L33.9999 14" stroke="#262626" stroke-width="3" stroke-linecap="round"/>
</g>
<defs>
<clipPath id="clip0_1_773">
<rect width="96" height="96" fill="white"/>
</clipPath>
</defs>
</svg>
