<svg width="96" height="96" viewBox="0 0 96 96" fill="none" xmlns="http://www.w3.org/2000/svg">
<g clip-path="url(#clip0_1_846)">
<path fill-rule="evenodd" clip-rule="evenodd" d="M50.9996 26.8938C50.8295 26.522 50.6495 26.1704 50.4595 25.842C46.5322 19.0544 40.1015 17.4708 34.9997 20.41C29.8979 23.3491 28.4288 30.3405 31.9843 36.4855C32.1742 36.8138 32.3893 37.1451 32.6269 37.4779C32.2193 37.439 31.8243 37.4188 31.4444 37.4188C23.5897 37.4188 19 42.184 19 48.0623C19 53.9405 24.3333 58.7058 31.4444 58.7058C31.8247 58.7058 32.2201 58.6855 32.6281 58.6466C32.3903 58.9796 32.175 59.3112 31.9849 59.6397C28.0576 66.4274 29.8985 72.7762 35.0003 75.7153C40.1021 78.6544 46.9046 76.4283 50.4601 70.2833C50.65 69.9551 50.83 69.6036 51 69.232C51.17 69.6036 51.35 69.9551 51.5399 70.2833C55.0954 76.4283 61.8979 78.6544 66.9997 75.7153C72.1015 72.7762 73.9424 66.4274 70.0151 59.6397C69.8251 59.3114 69.6099 58.98 69.3723 58.6471C69.7801 58.686 70.1755 58.7063 70.5556 58.7063C78.4103 58.7063 83 53.941 83 48.0628C83 42.1845 77.6667 37.4192 70.5556 37.4192C70.1753 37.4192 69.7799 37.4395 69.3719 37.4785C69.6097 37.1454 69.825 36.8138 70.0151 36.4853C73.9424 29.6977 72.1015 23.3489 66.9997 20.4097C61.8979 17.4706 55.0954 19.6967 51.5399 25.8418C51.3498 26.1702 51.1698 26.5219 50.9996 26.8938Z" fill="rgb(204 241 214)"/>
<path d="M2.16901 61.6219L3.63786 61.3178L2.16901 61.6219ZM19.4999 53.7256L18.7234 55.0089L19.4999 55.4788L20.2764 55.0089L19.4999 53.7256ZM36.8308 61.6219L35.3619 61.3178L35.3619 61.3178L36.8308 61.6219ZM35.6669 67.2436L37.1358 67.5477L37.1358 67.5477L35.6669 67.2436ZM29.9248 76.549L28.9942 75.3726L28.5136 75.7528L28.4367 76.3607L29.9248 76.549ZM28.9246 84.4548L30.3948 84.7524L30.4058 84.6981L30.4127 84.6431L28.9246 84.4548ZM27.3681 92.1437L25.8979 91.8461H25.8979L27.3681 92.1437ZM22.812 92.0552L21.3314 92.2956L21.3314 92.2956L22.812 92.0552ZM21.1505 81.819L19.6564 81.9521L19.6612 82.0059L19.6699 82.0593L21.1505 81.819ZM17.3538 81.9541L18.8344 82.1944L18.8452 82.128L18.85 82.0609L17.3538 81.9541ZM15.7143 92.0552L17.1949 92.2956L15.7143 92.0552ZM11.1582 92.1437L12.6283 91.8461L11.1582 92.1437ZM9.60168 84.4548L8.11354 84.6431L8.1205 84.6981L8.1315 84.7524L9.60168 84.4548ZM8.54615 76.112L10.0343 75.9238L9.96202 75.3526L9.52614 74.9764L8.54615 76.112ZM3.33289 67.2436L1.86404 67.5477L3.33289 67.2436ZM10.0029 50.5C3.98175 50.5 -0.520524 56.0299 0.70016 61.926L3.63786 61.3178C2.80266 57.2836 5.88316 53.5 10.0029 53.5V50.5ZM13.2968 50.5H10.0029V53.5H13.2968V50.5ZM20.2764 52.4422C18.2386 51.2093 15.8482 50.5 13.2968 50.5V53.5C15.2855 53.5 17.1409 54.0514 18.7234 55.0089L20.2764 52.4422ZM25.703 50.5C23.1516 50.5 20.7612 51.2093 18.7234 52.4422L20.2764 55.0089C21.8589 54.0514 23.7143 53.5 25.703 53.5V50.5ZM28.9969 50.5H25.703V53.5H28.9969V50.5ZM38.2996 61.926C39.5203 56.0299 35.0181 50.5 28.9969 50.5V53.5C33.1166 53.5 36.1971 57.2836 35.3619 61.3178L38.2996 61.926ZM37.1358 67.5477L38.2996 61.926L35.3619 61.3178L34.1981 66.9395L37.1358 67.5477ZM30.8554 77.7255C33.9903 75.2457 36.277 71.6957 37.1358 67.5477L34.1981 66.9395C33.4865 70.3766 31.5936 73.3165 28.9942 75.3726L30.8554 77.7255ZM30.4127 84.6431L31.413 76.7373L28.4367 76.3607L27.4365 84.2665L30.4127 84.6431ZM28.8383 92.4413L30.3948 84.7524L27.4544 84.1572L25.8979 91.8461L28.8383 92.4413ZM25.0981 95.5002C26.9138 95.5002 28.4781 94.2209 28.8383 92.4413L25.8979 91.8461C25.8209 92.2266 25.4864 92.5002 25.0981 92.5002V95.5002ZM21.3314 92.2956C21.6313 94.1429 23.2266 95.5002 25.0981 95.5002V92.5002C24.6979 92.5002 24.3568 92.2099 24.2926 91.8149L21.3314 92.2956ZM19.6699 82.0593L21.3314 92.2956L24.2926 91.8149L22.6311 81.5786L19.6699 82.0593ZM19.2632 78.3184C18.6967 78.3184 18.5265 77.9159 18.6811 78.143C18.7766 78.2834 18.914 78.5631 19.0611 78.9979C19.3492 79.8495 19.5698 80.9803 19.6564 81.9521L22.6446 81.6858C22.5408 80.5207 22.2799 79.1511 21.9029 78.0367C21.7175 77.4885 21.4766 76.9187 21.1614 76.4554C20.9052 76.0788 20.2918 75.3184 19.2632 75.3184V78.3184ZM18.85 82.0609C18.9137 81.1691 19.1281 80.0071 19.4255 79.1002C19.5768 78.6387 19.7229 78.327 19.8315 78.1615C20.008 77.8928 19.8474 78.3184 19.2632 78.3184V75.3184C18.1962 75.3184 17.5734 76.1347 17.3238 76.515C17.0063 76.9986 16.7622 77.594 16.5749 78.1653C16.1949 79.324 15.9374 80.7299 15.8576 81.8473L18.85 82.0609ZM17.1949 92.2956L18.8344 82.1944L15.8732 81.7138L14.2336 91.8149L17.1949 92.2956ZM13.4281 95.5002C15.2997 95.5002 16.895 94.1429 17.1949 92.2956L14.2336 91.8149C14.1695 92.2099 13.8284 92.5002 13.4281 92.5002V95.5002ZM9.68797 92.4413C10.0482 94.2209 11.6125 95.5002 13.4281 95.5002V92.5002C13.0399 92.5002 12.7054 92.2266 12.6283 91.8461L9.68797 92.4413ZM8.1315 84.7524L9.68797 92.4413L12.6283 91.8461L11.0719 84.1572L8.1315 84.7524ZM7.05802 76.3003L8.11354 84.6431L11.0898 84.2665L10.0343 75.9238L7.05802 76.3003ZM1.86404 67.5477C2.66904 71.436 4.72891 74.7992 7.56616 77.2476L9.52614 74.9764C7.17409 72.9467 5.46888 70.1619 4.80174 66.9395L1.86404 67.5477ZM0.70016 61.926L1.86404 67.5477L4.80174 66.9395L3.63786 61.3178L0.70016 61.926Z" fill="currentColor"/>
<path d="M49.5 30C49.5 29.7239 49.7239 29.5 50 29.5H68C68.2761 29.5 68.5 29.7239 68.5 30V36C68.5 39.5899 65.5899 42.5 62 42.5H56C52.4101 42.5 49.5 39.5899 49.5 36V30Z" stroke="#262626" stroke-width="3"/>
<path d="M75.5 30C75.5 29.7239 75.7239 29.5 76 29.5H94C94.2761 29.5 94.5 29.7239 94.5 30V36C94.5 39.5899 91.5899 42.5 88 42.5H82C78.4101 42.5 75.5 39.5899 75.5 36V30Z" stroke="#262626" stroke-width="3"/>
<path d="M69 30H75" stroke="#262626" stroke-width="3"/>
<path d="M62.5 10C62.5 10.8284 63.1716 11.5 64 11.5C64.8284 11.5 65.5 10.8284 65.5 10H62.5ZM52.5 30V8.5H49.5V30H52.5ZM62.5 8.5V10H65.5V8.5H62.5ZM57.5 3.5C60.2614 3.5 62.5 5.73858 62.5 8.5H65.5C65.5 4.08172 61.9183 0.5 57.5 0.5V3.5ZM52.5 8.5C52.5 5.73858 54.7386 3.5 57.5 3.5V0.5C53.0817 0.5 49.5 4.08172 49.5 8.5H52.5Z" fill="currentColor"/>
<path d="M82.5 10C82.5 10.8284 81.8284 11.5 81 11.5C80.1716 11.5 79.5 10.8284 79.5 10H82.5ZM91.5 30V8H94.5V30H91.5ZM82.5 8V10H79.5V8H82.5ZM87 3.5C84.5147 3.5 82.5 5.51472 82.5 8H79.5C79.5 3.85786 82.8579 0.5 87 0.5V3.5ZM91.5 8C91.5 5.51472 89.4853 3.5 87 3.5V0.5C91.1421 0.5 94.5 3.85787 94.5 8H91.5Z" fill="currentColor"/>
</g>
<defs>
<clipPath id="clip0_1_846">
<rect width="96" height="96" fill="white"/>
</clipPath>
</defs>
</svg>
