<svg width="96" height="96" viewBox="0 0 96 96" fill="none" aria-hidden="true" focusable="false" xmlns="http://www.w3.org/2000/svg">
<g clip-path="url(#clip0_1_3135)">
<path d="M37.6276 55.6805L12.707 30.7599L31.2599 12.207L56.1805 37.1276L66.7031 26.6051L75.0165 74.5165L27.1051 66.2031L37.6276 55.6805Z" fill="rgb(204 241 214)"/>
<path d="M41 11V33H2L2 9H27.5072" stroke="#262626" stroke-width="3"/>
<circle cx="22" cy="16" r="6.5" stroke="#262626" stroke-width="3"/>
<circle cx="35" cy="9" r="6.5" stroke="#262626" stroke-width="3"/>
<circle cx="62" cy="63" r="22.5" stroke="#262626" stroke-width="3"/>
<path d="M77.8107 77.7965L94.9535 94.9394" stroke="#262626" stroke-width="3"/>
<path d="M47.2777 59.7159C47.2062 59.4491 47.3645 59.175 47.6312 59.1035L72.7453 52.3742C73.012 52.3027 73.2862 52.461 73.3577 52.7278L75.1694 59.4892C75.3838 60.2894 74.909 61.1119 74.1088 61.3263L50.9265 67.538C50.1263 67.7524 49.3038 67.2775 49.0894 66.4773L47.2777 59.7159Z" stroke="#262626" stroke-width="3"/>
<path d="M52.3847 74.9119L50.4436 67.6674L74.5917 61.1969L76.5329 68.4414C76.7473 69.2416 76.2724 70.0641 75.4722 70.2785L54.2218 75.9725C53.4216 76.1869 52.5991 75.7121 52.3847 74.9119Z" stroke="#262626" stroke-width="3"/>
<path d="M64.1814 55.1866L63.6638 53.2547C63.092 51.1208 60.8987 49.8545 58.7648 50.4263V50.4263C56.631 50.998 55.3646 53.1914 55.9364 55.3253L56.454 57.2571" stroke="#262626" stroke-width="3"/>
</g>
<defs>
<clipPath id="clip0_1_3135">
<rect width="96" height="96" fill="white"/>
</clipPath>
</defs>
</svg>
