<svg width="96" height="96" viewBox="0 0 96 96" fill="none" xmlns="http://www.w3.org/2000/svg">
<g clip-path="url(#clip0_1_1102)">
<circle cx="62" cy="54" r="12" fill="#CCF1D6"/>
<circle cx="38" cy="70" r="8" fill="#CCF1D6"/>
<circle cx="42.5" cy="25.5" r="16.5" fill="#CCF1D6"/>
<path d="M90 70.8889V65.9574C90 63.7718 88.2282 62 86.0426 62H53.9574C51.7718 62 50 63.7718 50 65.9574V90.0425C50 92.2282 51.7718 94 53.9574 94H86.0426C88.2282 94 90 92.2282 90 90.0425V84.3268" stroke="#262626" stroke-width="3.42"/>
<path d="M73.71 78.0001C73.71 74.5262 76.5261 71.7101 80 71.7101H92.0426C93.2838 71.7101 94.29 72.7163 94.29 73.9576V82.0427C94.29 83.2839 93.2838 84.2901 92.0426 84.2901H80C76.5261 84.2901 73.71 81.474 73.71 78.0001Z" stroke="#262626" stroke-width="3.42"/>
<path d="M85.5325 62.29H56.4464L81.0577 50.3573L85.5325 62.29Z" stroke="#262626" stroke-width="3.42"/>
<path d="M49.6667 28.8571L50.831 30.1095L50.8574 30.085L50.8828 30.0593L49.6667 28.8571ZM28 49L26.3084 48.7497C26.2021 49.468 26.5611 50.1752 27.2037 50.5133C27.8464 50.8514 28.6325 50.7468 29.1643 50.2524L28 49ZM28.0014 6.70371L26.76 5.5276L26.4584 5.84594L26.3472 6.27015L28.0014 6.70371ZM24 21.9697L22.3459 21.5361L21.784 23.6797H24V21.9697ZM32 21.9697L33.6916 22.22L33.9817 20.2597H32V21.9697ZM38.8333 3.71C46.2134 3.71 52.29 9.90591 52.29 17.6667H55.71C55.71 8.1225 48.2059 0.29 38.8333 0.29V3.71ZM52.29 17.6667C52.29 21.6553 50.9099 25.1672 48.4506 27.655L50.8828 30.0593C54.046 26.8595 55.71 22.4491 55.71 17.6667H52.29ZM48.5024 27.6048L26.8357 47.7476L29.1643 50.2524L50.831 30.1095L48.5024 27.6048ZM29.2427 7.87982C31.6893 5.29758 35.0858 3.71 38.8333 3.71V0.29C34.0919 0.29 29.8138 2.30455 26.76 5.5276L29.2427 7.87982ZM26.3472 6.27015L22.3459 21.5361L25.6541 22.4033L29.6555 7.13727L26.3472 6.27015ZM24 23.6797H32V20.2597H24V23.6797ZM30.3084 21.7194L26.3084 48.7497L29.6916 49.2503L33.6916 22.22L30.3084 21.7194Z" fill="#262626"/>
<path d="M28 49L26.8357 50.2524C27.3007 50.6847 27.967 50.8238 28.5662 50.6136C29.1653 50.4033 29.5986 49.8784 29.6916 49.2503L28 49ZM6.33333 28.8571L5.11725 30.0593L5.14261 30.085L5.16902 30.1095L6.33333 28.8571ZM28.0014 6.70371L29.6555 7.13727L29.8967 6.21715L29.2421 5.52699L28.0014 6.70371ZM24 21.9697L22.3459 21.5361L21.784 23.6797H24V21.9697ZM32 21.9697L33.6916 22.22L33.9817 20.2597H32V21.9697ZM29.1643 47.7476L7.49764 27.6048L5.16902 30.1095L26.8357 50.2524L29.1643 47.7476ZM7.54942 27.655C5.09013 25.1672 3.71 21.6553 3.71 17.6667H0.29C0.29 22.4491 1.954 26.8595 5.11725 30.0593L7.54942 27.655ZM3.71 17.6667C3.71 9.90591 9.78661 3.71 17.1667 3.71V0.29C7.79408 0.29 0.29 8.1225 0.29 17.6667H3.71ZM17.1667 3.71C20.9141 3.71 24.311 5.2975 26.7606 7.88043L29.2421 5.52699C26.186 2.30463 21.9083 0.29 17.1667 0.29V3.71ZM26.3472 6.27015L22.3459 21.5361L25.6541 22.4033L29.6555 7.13727L26.3472 6.27015ZM24 23.6797H32V20.2597H24V23.6797ZM30.3084 21.7194L26.3084 48.7497L29.6916 49.2503L33.6916 22.22L30.3084 21.7194Z" fill="#262626"/>
</g>
<defs>
<clipPath id="clip0_1_1102">
<rect width="96" height="96" fill="white"/>
</clipPath>
</defs>
</svg>
