<svg width="96" height="96" viewBox="0 0 96 96" fill="none" xmlns="http://www.w3.org/2000/svg">
<g clip-path="url(#clip0_1_1610)">
<rect x="30" y="10" width="36" height="76" fill="rgb(204 226 240)"/>
<rect x="31" y="20" width="18" height="11" transform="rotate(-30 31 20)" fill="rgb(204 226 240)"/>
<rect x="30" y="72" width="36" height="12" fill="rgb(204 226 240)"/>
<rect x="5.5" y="53.5" width="26" height="41" rx="13" stroke="#262626" stroke-width="3"/>
<path d="M29.6875 64.8333C29.6875 71.1088 24.6626 76.1667 18.5 76.1667C12.3374 76.1667 7.3125 71.1088 7.3125 64.8333C7.3125 58.5579 12.3374 53.5 18.5 53.5C24.6626 53.5 29.6875 58.5579 29.6875 64.8333Z" stroke="#262626" stroke-width="3"/>
<mask id="path-6-inside-1_1_1610" fill="white">
<ellipse cx="14.875" cy="64.8333" rx="1.8125" ry="1.83333"/>
</mask>
<ellipse cx="14.875" cy="64.8333" rx="1.8125" ry="1.83333" fill="currentColor"/>
<path d="M13.6875 64.8333C13.6875 64.2214 14.1869 63.6667 14.875 63.6667V69.6667C17.5651 69.6667 19.6875 67.4703 19.6875 64.8333H13.6875ZM14.875 63.6667C15.5631 63.6667 16.0625 64.2214 16.0625 64.8333H10.0625C10.0625 67.4703 12.1849 69.6667 14.875 69.6667V63.6667ZM16.0625 64.8333C16.0625 65.4452 15.5631 66 14.875 66V60C12.1849 60 10.0625 62.1964 10.0625 64.8333H16.0625ZM14.875 66C14.1869 66 13.6875 65.4452 13.6875 64.8333H19.6875C19.6875 62.1964 17.5651 60 14.875 60V66Z" fill="currentColor" mask="url(#path-6-inside-1_1_1610)"/>
<mask id="path-8-inside-2_1_1610" fill="white">
<ellipse cx="22.125" cy="64.8333" rx="1.8125" ry="1.83333"/>
</mask>
<ellipse cx="22.125" cy="64.8333" rx="1.8125" ry="1.83333" fill="currentColor"/>
<path d="M20.9375 64.8333C20.9375 64.2214 21.4369 63.6667 22.125 63.6667V69.6667C24.8151 69.6667 26.9375 67.4703 26.9375 64.8333H20.9375ZM22.125 63.6667C22.8131 63.6667 23.3125 64.2214 23.3125 64.8333H17.3125C17.3125 67.4703 19.4349 69.6667 22.125 69.6667V63.6667ZM23.3125 64.8333C23.3125 65.4452 22.8131 66 22.125 66V60C19.4349 60 17.3125 62.1964 17.3125 64.8333H23.3125ZM22.125 66C21.4369 66 20.9375 65.4452 20.9375 64.8333H26.9375C26.9375 62.1964 24.8151 60 22.125 60V66Z" fill="currentColor" mask="url(#path-8-inside-2_1_1610)"/>
<path d="M25.7542 73.5595L8.862 90.4939" stroke="#262626" stroke-width="3"/>
<path d="M93.6558 29.6578V54.0001H52V29.6578H78.0349" stroke="#262626" stroke-width="3"/>
<path d="M80.2447 36.6669C80.2447 39.4589 77.9861 41.7177 75.2055 41.7177C72.4249 41.7177 70.1663 39.4589 70.1663 36.6669C70.1663 33.8749 72.4249 31.616 75.2055 31.616C77.9861 31.616 80.2447 33.8749 80.2447 36.6669Z" stroke="#262626" stroke-width="3"/>
<path d="M94.5 6.62783C94.5 9.46235 92.2069 11.7557 89.3839 11.7557C86.5609 11.7557 84.2678 9.46235 84.2678 6.62783C84.2678 3.7933 86.5609 1.5 89.3839 1.5C92.2069 1.5 94.5 3.7933 94.5 6.62783Z" stroke="#262626" stroke-width="3"/>
<path d="M93.8257 27.4936C93.8257 31.9492 90.2208 35.5567 85.7795 35.5567C81.3383 35.5567 77.7334 31.9492 77.7334 27.4936C77.7334 23.038 81.3383 19.4305 85.7795 19.4305C90.2208 19.4305 93.8257 23.038 93.8257 27.4936Z" stroke="#262626" stroke-width="3"/>
</g>
<defs>
<clipPath id="clip0_1_1610">
<rect width="96" height="96" fill="white"/>
</clipPath>
</defs>
</svg>
