<svg width="96" height="96" viewBox="0 0 96 96" fill="none" xmlns="http://www.w3.org/2000/svg">
<g clip-path="url(#clip0_1_577)">
<path d="M48 20L64.6629 44.5559C73.7358 57.9265 64.1582 76 48 76C31.8417 76 22.2642 57.9265 31.337 44.5559L48 20Z" fill="rgb(204 241 214)"/>
<path d="M22.4554 25.7375C24.0313 25.7375 25.5855 25.3706 26.995 24.6658L35.3566 20.485L35.3566 6.80473L26.995 2.62393C25.5855 1.91918 24.0313 1.55228 22.4554 1.55228L3.846 1.55228C2.52957 1.55228 1.4624 2.61945 1.4624 3.93588L1.4624 23.3539C1.4624 24.6703 2.52958 25.7375 3.84601 25.7375L22.4554 25.7375Z" stroke="#262626" stroke-width="3"/>
<circle r="4.74997" transform="matrix(0.707107 -0.707107 -0.707107 -0.707107 50.5164 13.6447)" stroke="#262626" stroke-width="3"/>
<path d="M35.4888 22.1875C40.2068 22.1875 44.0315 18.3629 44.0315 13.6449C44.0315 8.92687 40.2068 5.10218 35.4888 5.10218" stroke="#262626" stroke-width="3"/>
<path d="M34.312 23.9568V3.33293" stroke="#262626" stroke-width="3" stroke-linecap="round"/>
<line x1="1" y1="15.5" x2="34" y2="15.5" stroke="#262626" stroke-width="3"/>
<rect x="58.5" y="38.5" width="36" height="56" rx="18" stroke="#262626" stroke-width="3"/>
<path d="M92.0625 54.2083C92.0625 62.8959 85.0829 69.9167 76.5 69.9167C67.9171 69.9167 60.9375 62.8959 60.9375 54.2083C60.9375 45.5208 67.9171 38.5 76.5 38.5C85.0829 38.5 92.0625 45.5208 92.0625 54.2083Z" stroke="#262626" stroke-width="3"/>
<mask id="path-9-inside-1_1_577" fill="white">
<ellipse cx="71.625" cy="54.2083" rx="2.4375" ry="2.45833"/>
</mask>
<ellipse cx="71.625" cy="54.2083" rx="2.4375" ry="2.45833" fill="currentColor"/>
<path d="M71.0625 54.2083C71.0625 53.9333 71.2903 53.6667 71.625 53.6667V59.6667C74.6521 59.6667 77.0625 57.1988 77.0625 54.2083H71.0625ZM71.625 53.6667C71.9597 53.6667 72.1875 53.9333 72.1875 54.2083H66.1875C66.1875 57.1988 68.5979 59.6667 71.625 59.6667V53.6667ZM72.1875 54.2083C72.1875 54.4834 71.9597 54.75 71.625 54.75V48.75C68.5979 48.75 66.1875 51.2179 66.1875 54.2083H72.1875ZM71.625 54.75C71.2903 54.75 71.0625 54.4834 71.0625 54.2083H77.0625C77.0625 51.2179 74.6521 48.75 71.625 48.75V54.75Z" fill="currentColor" mask="url(#path-9-inside-1_1_577)"/>
<mask id="path-11-inside-2_1_577" fill="white">
<ellipse cx="81.375" cy="54.2083" rx="2.4375" ry="2.45833"/>
</mask>
<ellipse cx="81.375" cy="54.2083" rx="2.4375" ry="2.45833" fill="currentColor"/>
<path d="M80.8125 54.2083C80.8125 53.9333 81.0403 53.6667 81.375 53.6667V59.6667C84.4021 59.6667 86.8125 57.1988 86.8125 54.2083H80.8125ZM81.375 53.6667C81.7097 53.6667 81.9375 53.9333 81.9375 54.2083H75.9375C75.9375 57.1988 78.3479 59.6667 81.375 59.6667V53.6667ZM81.9375 54.2083C81.9375 54.4834 81.7097 54.75 81.375 54.75V48.75C78.3479 48.75 75.9375 51.2179 75.9375 54.2083H81.9375ZM81.375 54.75C81.0403 54.75 80.8125 54.4834 80.8125 54.2083H86.8125C86.8125 51.2179 84.4021 48.75 81.375 48.75V54.75Z" fill="currentColor" mask="url(#path-11-inside-2_1_577)"/>
<path d="M84.4999 67.4998L63.5383 88.6175" stroke="#262626" stroke-width="3"/>
</g>
<defs>
<clipPath id="clip0_1_577">
<rect width="96" height="96" fill="white"/>
</clipPath>
</defs>
</svg>
