<svg width="96" height="96" viewBox="0 0 96 96" fill="none" aria-hidden="true" focusable="false" xmlns="http://www.w3.org/2000/svg">
<path fill-rule="evenodd" clip-rule="evenodd" d="M30 30C30 20.0589 38.0589 12 48 12C57.9411 12 66 20.0589 66 30V66C66 75.9411 57.9411 84 48 84C38.0589 84 30 75.9411 30 66V30ZM60 30C60 36.6274 54.6274 42 48 42C41.3726 42 36 36.6274 36 30C36 23.3726 41.3726 18 48 18C54.6274 18 60 23.3726 60 30ZM48 78C54.6274 78 60 72.6274 60 66C60 59.3726 54.6274 54 48 54C41.3726 54 36 59.3726 36 66C36 72.6274 41.3726 78 48 78Z" fill="rgb(204 241 214)"/>
<circle cx="48" cy="66" r="10" fill="rgb(204 241 214)"/>
<path d="M58.6057 65.6667L60.0918 65.8701L60.325 64.1667H58.6057V65.6667ZM56.1667 94H54.6667V95.5H56.1667V94ZM87.3333 94V95.5H89.5489L88.7261 93.4429L87.3333 94ZM81.6667 77L83.109 76.5879L81.6667 77ZM79.0985 65.5941L78.7612 64.1325L77.4216 64.4416L77.6131 65.803L79.0985 65.5941ZM81.2686 62.4819L79.7802 62.668L81.2686 62.4819ZM79.764 50.4457L78.2756 50.6318V50.6318L79.764 50.4457ZM54.7891 48.6667V50.1667H55.8504L56.2036 49.1659L54.7891 48.6667ZM42 48.6667V47.1667H40.5V48.6667H42ZM50.5 64.1667C46.634 64.1667 43.5 61.0327 43.5 57.1667H40.5C40.5 62.6895 44.9771 67.1667 50.5 67.1667V64.1667ZM58.6057 64.1667H50.5V67.1667H58.6057V64.1667ZM57.6667 88.3333C57.6667 84.1255 59.3049 71.6194 60.0918 65.8701L57.1195 65.4633C56.3491 71.0925 54.6667 83.8654 54.6667 88.3333H57.6667ZM57.6667 94V88.3333H54.6667V94H57.6667ZM87.3333 92.5H56.1667V95.5H87.3333V92.5ZM80.2244 77.4121C81.6511 82.4057 83.0776 86.6853 84.148 89.718C84.6833 91.2347 85.1299 92.4406 85.4434 93.2691C85.6002 93.6834 85.7237 94.0034 85.8084 94.2208C85.8507 94.3295 85.8834 94.4126 85.9057 94.469C85.9168 94.4972 85.9253 94.5187 85.9312 94.5334C85.9341 94.5408 85.9364 94.5465 85.938 94.5504C85.9387 94.5524 85.9394 94.5539 85.9398 94.555C85.94 94.5556 85.9402 94.556 85.9403 94.5564C85.9404 94.5566 85.9405 94.5567 85.9405 94.5568C85.9406 94.557 85.9406 94.5571 87.3333 94C88.7261 93.4429 88.7261 93.443 88.7261 93.443C88.7261 93.443 88.7261 93.443 88.7261 93.443C88.726 93.4429 88.726 93.4427 88.7258 93.4424C88.7256 93.4418 88.7252 93.4407 88.7246 93.4393C88.7234 93.4363 88.7216 93.4317 88.7191 93.4253C88.714 93.4126 88.7063 93.3932 88.696 93.3671C88.6754 93.3149 88.6444 93.2361 88.6037 93.1317C88.5224 92.923 88.4024 92.6122 88.2493 92.2074C87.943 91.3979 87.5042 90.2132 86.977 88.7195C85.9224 85.7314 84.5156 81.511 83.109 76.5879L80.2244 77.4121ZM77.6131 65.803C77.9427 68.1455 78.6606 71.9387 80.2244 77.4121L83.109 76.5879C81.5789 71.2326 80.892 67.5755 80.5839 65.3851L77.6131 65.803ZM79.7802 62.668C79.8664 63.3577 79.4097 63.9828 78.7612 64.1325L79.4358 67.0556C81.5458 66.5687 83.0387 64.5494 82.757 62.2959L79.7802 62.668ZM78.2756 50.6318L79.7802 62.668L82.757 62.2959L81.2525 50.2597L78.2756 50.6318ZM71.3297 44.5C74.86 44.5 77.8378 47.1288 78.2756 50.6318L81.2525 50.2597C80.6269 45.2554 76.3729 41.5 71.3297 41.5V44.5ZM62.8033 44.5H71.3297V41.5H62.8033V44.5ZM56.2036 49.1659C57.1823 46.3928 59.8147 44.5 62.8033 44.5V41.5C58.533 41.5 54.7734 44.2042 53.3746 48.1674L56.2036 49.1659ZM42 50.1667H54.7891V47.1667H42V50.1667ZM43.5 57.1667V48.6667H40.5V57.1667H43.5Z" fill="currentColor"/>
<path d="M67.5 51.5V57.1667C67.5 61.8611 71.3056 65.6667 76 65.6667H78.6667" stroke="#262626" stroke-width="3"/>
<path d="M61.8333 94L91.5301 64.3031C93.9067 61.9266 93.9067 58.0734 91.5301 55.6969V55.6969C89.1955 53.3622 85.4251 53.3151 83.0328 55.5907L80.4999 58" stroke="#262626" stroke-width="3"/>
<path d="M29.9806 26.052L29.9806 2.052L14.1234 2.052L14.1234 26.052L3.552 26.052L22.052 50.052L40.552 26.052L29.9806 26.052Z" stroke="#262626" stroke-width="3"/>
</svg>
