<svg width="96" height="96" viewBox="0 0 96 96" fill="none" xmlns="http://www.w3.org/2000/svg">
<g clip-path="url(#clip0_1_1484)">
<path d="M48 15L79 69H17L48 15Z" fill="rgb(204 241 214)"/>
<path d="M9.40002 68.5205V68.5205C4.77661 68.4671 1.00004 72.2003 1.00004 76.824L1.00003 96.0001" stroke="#262626" stroke-width="3"/>
<path d="M7.99999 58.3521C9.63309 58.3521 12.1212 59.1897 14.287 60.3597C15.3468 60.9322 16.2417 61.5379 16.8478 62.0761C17.13 62.3266 17.3165 62.5334 17.4268 62.6864C17.3165 62.8394 17.13 63.0462 16.8478 63.2968C16.2417 63.8349 15.3468 64.4406 14.287 65.0131C12.1212 66.1832 9.63309 67.0208 7.99999 67.0208C4.58108 67.0208 2.5 64.8528 2.5 62.6864C2.5 61.4951 2.9684 60.4501 3.83505 59.6861C4.70999 58.9149 6.08535 58.3521 7.99999 58.3521ZM17.5215 62.8416C17.5214 62.8416 17.5209 62.8405 17.5201 62.8381C17.5211 62.8405 17.5215 62.8416 17.5215 62.8416ZM17.5201 62.5347C17.5209 62.5324 17.5214 62.5312 17.5215 62.5312C17.5215 62.5312 17.5211 62.5324 17.5201 62.5347Z" stroke="#262626" stroke-width="3"/>
<path d="M30 67.0207C28.3669 67.0207 25.8788 66.1831 23.713 65.0131C22.6532 64.4406 21.7583 63.8349 21.1522 63.2967C20.87 63.0462 20.6835 62.8394 20.5732 62.6864C20.6835 62.5334 20.87 62.3266 21.1522 62.076C21.7583 61.5379 22.6532 60.9322 23.713 60.3597C25.8788 59.1896 28.3669 58.3521 30 58.3521C33.4189 58.3521 35.5 60.52 35.5 62.6864C35.5 63.8777 35.0316 64.9227 34.165 65.6867C33.29 66.4579 31.9147 67.0207 30 67.0207ZM20.4785 62.5312C20.4786 62.5312 20.4791 62.5323 20.4799 62.5347C20.4789 62.5323 20.4785 62.5312 20.4785 62.5312ZM20.4799 62.8381C20.4791 62.8404 20.4786 62.8416 20.4785 62.8416C20.4785 62.8416 20.4789 62.8404 20.4799 62.8381Z" stroke="#262626" stroke-width="3"/>
<path d="M17.388 51.6291C18.1927 52.9845 18.6911 55.4822 18.7319 57.8902C18.7519 59.0659 18.6601 60.12 18.4842 60.898C18.3959 61.2886 18.2969 61.5622 18.2096 61.7325C18.2085 61.7347 18.2074 61.7368 18.2064 61.7389C18.2039 61.7388 18.2015 61.7386 18.199 61.7385C18.0037 61.7268 17.7105 61.6734 17.3185 61.5525C16.5376 61.3116 15.553 60.8618 14.5159 60.2571C12.3917 59.0187 10.4164 57.3502 9.61162 55.9948C7.9404 53.1801 8.76918 50.3278 10.7656 49.207C11.8535 48.5962 13.0378 48.4724 14.151 48.8201C15.2688 49.1692 16.4423 50.0363 17.388 51.6291Z" stroke="#262626" stroke-width="3"/>
<path d="M9.61203 70.1556C10.4168 68.8002 12.3921 67.1317 14.5163 65.8933C15.5534 65.2886 16.538 64.8389 17.3189 64.5979C17.7109 64.477 18.0042 64.4236 18.1994 64.4119C18.2019 64.4118 18.2043 64.4116 18.2068 64.4115C18.2078 64.4136 18.2089 64.4158 18.2101 64.4179C18.2973 64.5882 18.3963 64.8618 18.4846 65.2524C18.6605 66.0305 18.7523 67.0845 18.7323 68.2602C18.6915 70.6682 18.1931 73.1659 17.3884 74.5213C15.7172 77.336 12.7624 78.0642 10.766 76.9434C9.67811 76.3327 8.97568 75.3973 8.72873 74.286C8.48075 73.1702 8.66633 71.7484 9.61203 70.1556Z" stroke="#262626" stroke-width="3"/>
<path d="M28.388 70.1556C27.5832 68.8002 25.6079 67.1317 23.4837 65.8933C22.4466 65.2886 21.462 64.8389 20.6811 64.5979C20.2891 64.477 19.9958 64.4236 19.8006 64.4119C19.7981 64.4118 19.7957 64.4116 19.7932 64.4115C19.7922 64.4136 19.7911 64.4158 19.7899 64.4179C19.7027 64.5882 19.6037 64.8618 19.5154 65.2524C19.3395 66.0305 19.2477 67.0845 19.2677 68.2602C19.3085 70.6682 19.8069 73.1659 20.6116 74.5213C22.2828 77.336 25.2376 78.0642 27.234 76.9434C28.3219 76.3327 29.0243 75.3973 29.2713 74.286C29.5192 73.1702 29.3337 71.7484 28.388 70.1556Z" stroke="#262626" stroke-width="3"/>
<path d="M28.388 55.9953C27.5832 57.3507 25.6079 59.0192 23.4837 60.2576C22.4466 60.8623 21.462 61.312 20.6811 61.5529C20.2891 61.6739 19.9958 61.7273 19.8006 61.7389C19.7981 61.7391 19.7957 61.7392 19.7932 61.7394C19.7922 61.7373 19.7911 61.7351 19.7899 61.733C19.7027 61.5627 19.6037 61.2891 19.5154 60.8985C19.3395 60.1204 19.2477 59.0664 19.2677 57.8907C19.3085 55.4827 19.8069 52.985 20.6116 51.6296C22.2828 48.8149 25.2376 48.0866 27.234 49.2074C28.3219 49.8182 29.0243 50.7536 29.2713 51.8649C29.5192 52.9807 29.3337 54.4025 28.388 55.9953Z" stroke="#262626" stroke-width="3"/>
<path d="M40.0926 24C40.0926 11.5736 50.1662 1.5 62.5926 1.5H68.5926C81.019 1.5 91.0926 11.5736 91.0926 24V74.5H40.0926V24Z" stroke="#262626" stroke-width="3"/>
<line x1="34" y1="74.5" x2="96" y2="74.5" stroke="#262626" stroke-width="3"/>
<rect x="59.6111" y="11.8333" width="10.7778" height="13.0741" stroke="#262626" stroke-width="3"/>
<line x1="55.8148" y1="37.537" x2="74.1852" y2="37.537" stroke="#262626" stroke-width="3"/>
<line x1="50.0741" y1="46.7222" x2="79.9259" y2="46.7222" stroke="#262626" stroke-width="3"/>
</g>
<defs>
<clipPath id="clip0_1_1484">
<rect width="96" height="96" fill="white"/>
</clipPath>
</defs>
</svg>
