<svg xmlns="http://www.w3.org/2000/svg" width="96" height="96" fill="none" viewBox="0 0 96 96">
  <path fill="#CCF1D6" fill-rule="evenodd" d="M68 60a15 15 0 1 0 0-30 15 15 0 0 0 0 30Zm0-11.3a3.7 3.7 0 1 0 0-7.4 3.7 3.7 0 0 0 0 7.5Z" clip-rule="evenodd"/>
  <circle cx="34" cy="30" r="13" fill="#CCF1D6"/>
  <circle cx="43.5" cy="71.5" r="10.5" fill="#CCF1D6"/>
  <path stroke="#262626" stroke-width="3" d="M42.6 24.8a8 8 0 0 1 8-9h35.8a8 8 0 0 1 8 9l-.5 4.8a8 8 0 0 1-8 7.1H51.1a8 8 0 0 1-8-7.1l-.5-4.8Z"/>
  <path stroke="#262626" stroke-width="3" d="M77.5 1.5c2.4 0 4.4 1.3 5.2 3.2l4.9 11.1H49.4l4.9-11.1a5.7 5.7 0 0 1 5.2-3.2h18Z"/>
  <circle cx="54.2" cy="26.3" r="2.4" fill="#262626"/>
  <circle cx="82.8" cy="26.3" r="2.4" fill="#262626"/>
  <path stroke="#262626" stroke-width="3" d="M50.2 36.7h6.9v6.5c0 .8-.7 1.5-1.5 1.5h-3.9c-.8 0-1.5-.7-1.5-1.5v-6.5Zm29.7 0h6.9v6.5c0 .8-.7 1.5-1.5 1.5h-3.9c-.8 0-1.5-.7-1.5-1.5v-6.5Z"/>
  <path fill="#262626" d="m22 50 1.4-.5-.4-1h-1V50Zm16 0v-1.5h-1l-.4 1 1.4.5Zm8 1.9-1.2.8.2.4.5.2.6-1.4Zm1.2.7-1 1.1 1-1.1ZM58.5 62l-1 1.2 1-1.2Zm.2 2.9-1.1-1 1 1Zm-5 5.8 1.2 1-1.1-1Zm-2.6.3-.8 1.3.8-1.3Zm-5-3.4 1-1.2-2.3-1.5-.1 2.7h1.5ZM45.3 92h-1.5 1.5Zm-30.6 0h-1.5 1.5Zm-.9-24.5h1.5v-2.7L13 66.4l.8 1.2ZM10 70.3l.8 1.3-.8-1.3ZM7.2 70l1.2-1-1.2 1Zm-4.9-5.8-1.1 1 1.1-1Zm.2-2.9 1 1.2-1-1.2Zm11.3-9.5-1-1.2 1 1.2Zm.5-.4.8 1.3.2-.1.1-.2-1.1-1Zm7.7-2.9h-4.7v3H22v-3Zm8 6.2c-2.9 0-5.5-2-6.6-5.2l-2.9 1c1.5 4.1 5.1 7.2 9.5 7.2v-3Zm6.6-5.2a7 7 0 0 1-6.6 5.2v3c4.4 0 8-3 9.5-7.2l-2.9-1Zm6-1H38v3h4.7v-3Zm4.7 2.6a5.5 5.5 0 0 0-4.6-2.6v3c.9 0 1.6.5 2 1.2l2.6-1.6Zm-1.8 2.2c.3 0 .5.2.7.4l2-2.3-1.6-1-1 2.9Zm.7.4 11.3 9.6 2-2.3-11.3-9.6-2 2.3Zm11.3 9.6c.2.2.2.5 0 .7l2.3 2a3.5 3.5 0 0 0-.4-5l-2 2.3Zm0 .7-4.9 5.8 2.3 2 5-5.9-2.3-1.9Zm-4.9 5.8c-.2.2-.4.2-.6 0l-1.7 2.6c1.4 1 3.4.7 4.6-.7l-2.3-1.9Zm-.6 0-5-3.3-1.7 2.5 5 3.4 1.7-2.5Zm-5.2 22.3.9-24.3-3-.1-1 24.3 3 .1Zm-3.5 3.4c1.9 0 3.4-1.5 3.5-3.4h-3c0 .2-.2.4-.5.4v3Zm-26.6 0h26.6v-3H16.7v3Zm-3.5-3.4c.1 2 1.6 3.4 3.5 3.4v-3a.5.5 0 0 1-.5-.5l-3 .1Zm-.9-24.4 1 24.4h3l-1-24.5h-3Zm-1.6 3.9 4-2.7-1.7-2.5L9 69l1.7 2.5Zm-4.6-.7a3.5 3.5 0 0 0 4.6.7L9 69c-.2.1-.4.1-.6-.1L6 71Zm-5-5.8 5 5.8L8.4 69l-5-5.8-2.2 2Zm.5-4.9a3.5 3.5 0 0 0-.4 5l2.2-2a.5.5 0 0 1 .1-.7l-2-2.3Zm11.2-9.6L1.6 60.2l2 2.3 11.2-9.6-2-2.3Zm.7-.5-.7.5 2 2.3.3-.2-1.6-2.6Zm3.8-1.6c-1.6 0-3.1.8-4.1 2l2.2 1.9c.5-.6 1.2-.9 2-.9v-3Z"/>
</svg>
