<svg width="96" height="96" viewBox="0 0 96 96" fill="none" aria-hidden="true" focusable="false" xmlns="http://www.w3.org/2000/svg">
<g clip-path="url(#clip0_1_1978)">
<rect x="16" y="36" width="64" height="24" fill="rgb(204 241 214)"/>
<rect x="16" y="36" width="64" height="24" fill="rgb(204 241 214)"/>
<rect x="60" y="16" width="64" height="24" transform="rotate(90 60 16)" fill="rgb(204 241 214)"/>
<path d="M30.4662 20.0538L42.7761 27.1609C44.2281 27.9992 46.0848 27.5017 46.9231 26.0497V26.0497C47.7614 24.5976 47.2639 22.7409 45.8119 21.9026L28.5225 11.9205" stroke="#262626" stroke-width="3" stroke-linecap="round"/>
<path d="M29.5887 9.03002L29.7139 7.53992C29.2482 7.49734 28.7909 7.67251 28.4764 8.01392L29.5887 9.03002ZM17.2395 13.1185C16.4252 12.9494 15.633 13.4681 15.4699 14.2771C15.3068 15.086 15.8346 15.8789 16.6489 16.0479L17.2395 13.1185ZM26.9206 1.58892L26.9894 0.0947207L26.9206 1.58892ZM25.5566 13.4078L24.4443 12.3917L25.5566 13.4078ZM36.7033 2.11599L36.7721 0.621793L36.7033 2.11599ZM37.0951 3.98117L37.3401 4.87812L40.2416 4.11561L39.9966 3.21867L37.0951 3.98117ZM34.7136 7.99704L29.7139 7.53992L29.4635 10.5201L34.4632 10.9772L34.7136 7.99704ZM26.8518 3.08311L36.6345 3.61019L36.7721 0.621793L26.9894 0.0947207L26.8518 3.08311ZM26.4377 0.125752L10.8693 2.74068L11.3938 5.69184L26.9622 3.07691L26.4377 0.125752ZM28.4764 8.01392L24.4443 12.3917L26.6689 14.4239L30.701 10.0461L28.4764 8.01392ZM20.2216 13.7376L17.2395 13.1185L16.6489 16.0479L19.6309 16.6671L20.2216 13.7376ZM26.9894 0.0947207C26.8048 0.0847714 26.6197 0.0951785 26.4377 0.125752L26.9622 3.07691C26.9258 3.08302 26.8888 3.0851 26.8518 3.08311L26.9894 0.0947207ZM37.3401 4.87812C37.7973 6.55228 36.4472 8.15555 34.7136 7.99704L34.4632 10.9772C38.2772 11.326 41.2475 7.79876 40.2416 4.11561L37.3401 4.87812ZM24.4443 12.3917C23.3782 13.5493 21.7752 14.0602 20.2216 13.7376L19.6309 16.6671C22.2203 17.2048 24.8919 16.3532 26.6689 14.4239L24.4443 12.3917ZM39.9966 3.21867C39.5963 1.75292 38.2936 0.703768 36.7721 0.621793L36.6345 3.61019C36.8518 3.6219 37.0379 3.77178 37.0951 3.98117L39.9966 3.21867Z" fill="currentColor"/>
<path d="M28.0582 23.9422C27.3407 23.5279 26.4233 23.7738 26.0091 24.4912C25.5949 25.2086 25.8407 26.126 26.5582 26.5402L28.0582 23.9422ZM43.126 32.6416L28.0582 23.9422L26.5582 26.5402L41.626 35.2397L43.126 32.6416ZM31.3637 22.3037L44.6619 29.9814L46.1619 27.3834L32.8637 19.7056L31.3637 22.3037ZM45.2241 32.0794C44.7999 32.814 43.8606 33.0657 43.126 32.6416L41.626 35.2397C43.7955 36.4922 46.5696 35.7489 47.8221 33.5794L45.2241 32.0794ZM47.8221 33.5794C49.0747 31.41 48.3314 28.6359 46.1619 27.3834L44.6619 29.9814C45.3965 30.4055 45.6482 31.3449 45.2241 32.0794L47.8221 33.5794Z" fill="currentColor"/>
<path d="M26.042 31.5212L37.5705 38.1772C39.0225 39.0155 40.8792 38.518 41.7175 37.066V37.066C42.5559 35.614 42.0584 33.7573 40.6063 32.919L29.0779 26.263" stroke="#262626" stroke-width="3"/>
<path d="M25.0224 29.2003C24.3049 28.7861 23.3876 29.0319 22.9733 29.7493C22.5591 30.4668 22.8049 31.3842 23.5224 31.7984L25.0224 29.2003ZM2.67241 22.3653L4.11941 21.9701L2.67241 22.3653ZM31.7453 40.0928L7.13976 25.8868L5.63976 28.4848L30.2453 42.6909L31.7453 40.0928ZM23.5224 31.7984L33.2812 37.4326L34.7812 34.8345L25.0224 29.2003L23.5224 31.7984ZM4.11941 21.9701L3.47102 19.596L0.577013 20.3864L1.2254 22.7605L4.11941 21.9701ZM7.13976 25.8868C5.6562 25.0302 4.57075 23.6227 4.11941 21.9701L1.2254 22.7605C1.88504 25.1758 3.47148 27.233 5.63976 28.4848L7.13976 25.8868ZM33.8433 39.5306C33.4192 40.2652 32.4799 40.5169 31.7453 40.0928L30.2453 42.6909C32.4148 43.9434 35.1888 43.2001 36.4414 41.0306L33.8433 39.5306ZM36.4414 41.0306C37.6939 38.8612 36.9506 36.0871 34.7812 34.8345L33.2812 37.4326C34.0157 37.8567 34.2674 38.796 33.8433 39.5306L36.4414 41.0306Z" fill="currentColor"/>
<path d="M90.5556 30.4546C90.5556 39.2402 83.2938 46.4092 74.2778 46.4092C65.2617 46.4092 58 39.2402 58 30.4546C58 21.6689 65.2617 14.5 74.2778 14.5C83.2938 14.5 90.5556 21.6689 90.5556 30.4546Z" stroke="#262626" stroke-width="3"/>
<path d="M94 96.4051V74.4546C94 63.4089 85.0457 54.4546 74 54.4546V54.4546C62.9543 54.4546 54 63.4089 54 74.4546V97.0001" stroke="#262626" stroke-width="3"/>
</g>
<defs>
<clipPath id="clip0_1_1978">
<rect width="96" height="96" fill="white"/>
</clipPath>
</defs>
</svg>
