<svg width="96" height="96" viewBox="0 0 96 96" fill="none" xmlns="http://www.w3.org/2000/svg">
<g clip-path="url(#clip0_1_2530)">
<rect x="13" y="38" width="12" height="20" fill="#CCF1D6"/>
<rect x="33" y="38" width="12" height="20" fill="#CCF1D6"/>
<rect x="53" y="38" width="12" height="20" fill="#CCF1D6"/>
<rect x="73" y="38" width="12" height="20" fill="#CCF1D6"/>
<path d="M60 38.5048L60.0039 37.9271C60.0731 27.8066 68.8864 19.9707 78.9455 21.0862V21.0862C89.7606 22.2856 96.7044 33.1662 93.2371 43.4803L85.7738 65.6811C83.6013 72.1434 76.8741 75.8972 70.2336 74.3524L69.2761 74.1296C63.8442 72.8659 60 68.0248 60 62.4478V62.4478" stroke="#262626" stroke-width="3.28204"/>
<path d="M81.9428 46.5994L83.9855 40.3827C85.267 36.4825 83.081 32.293 79.1489 31.1132V31.1132C74.4857 29.7139 69.7856 33.1975 69.7523 38.0661V38.0661V42.9423C69.7523 42.9423 73.4095 44.1613 73.4095 49.0376C73.4095 51.9633 70.9714 55.1328 67.3142 55.1328" stroke="#262626" stroke-width="3.28204" stroke-linecap="round"/>
<path d="M65 48C58 53.3333 51 53.3333 44 48C37 42.6667 30 42.6667 23 48C16 53.3333 9 53.3333 2 48" stroke="#262626" stroke-width="3"/>
</g>
<defs>
<clipPath id="clip0_1_2530">
<rect width="96" height="96" fill="white"/>
</clipPath>
</defs>
</svg>
