<svg width="96" height="96" viewBox="0 0 96 96" fill="none" xmlns="http://www.w3.org/2000/svg">
<g clip-path="url(#clip0_1_634)">
<path d="M74 40.3333L50.5 17L27 40.3333V73H74V40.3333Z" fill="#CCF1D6"/>
<circle cx="80.5" cy="15.5" r="14" stroke="#262626" stroke-width="3"/>
<path d="M91 47V47C91 40.9249 86.0751 36 80 36V36C73.9249 36 69 40.9249 69 47V47" stroke="#262626" stroke-width="3"/>
<circle cx="76.6252" cy="15.0156" r="1.9375" fill="#262626"/>
<circle cx="84.375" cy="15.0156" r="1.9375" fill="#262626"/>
<path d="M22.3156 72.7498C25.8469 72.7498 28.7049 75.6065 28.7049 79.1248C28.7049 82.643 25.8469 85.4998 22.3156 85.4998C18.7843 85.4998 15.9263 82.643 15.9263 79.1248C15.9263 75.6065 18.7843 72.7498 22.3156 72.7498Z" stroke="#262626" stroke-width="3"/>
<path d="M42.6022 72.7498C46.1335 72.7498 48.9915 75.6065 48.9915 79.1248C48.9915 82.643 46.1335 85.4998 42.6022 85.4998C39.0709 85.4998 36.2129 82.643 36.2129 79.1248C36.2129 75.6065 39.0709 72.7498 42.6022 72.7498Z" stroke="#262626" stroke-width="3"/>
<path d="M31.6232 50.2477L33.1227 50.2474L33.1229 48.7479L33.1241 34.5H36.9673C45.3725 34.5 52.3115 40.7602 53.3622 48.8584L53.5 55.5151C53.4919 62.133 48.114 67.5 41.4755 67.5H23.4428C16.7992 67.5 11.4182 62.1248 11.4182 55.5V50.2517H14.1929H14.1932L31.6232 50.2477Z" stroke="#262626" stroke-width="3"/>
<path d="M11.3384 53.1235L11.3123 48.158C11.2891 43.7563 7.71424 40.2001 3.3124 40.2001L-1.19339e-05 40.2001" stroke="#262626" stroke-width="3"/>
</g>
<defs>
<clipPath id="clip0_1_634">
<rect width="96" height="96" fill="white"/>
</clipPath>
</defs>
</svg>
