<svg width="96" height="96" viewBox="0 0 96 96" fill="none" aria-hidden="true" focusable="false" xmlns="http://www.w3.org/2000/svg">
<g clip-path="url(#clip0_1_2908)">
<path fill-rule="evenodd" clip-rule="evenodd" d="M48 72C61.8071 72 73 60.8071 73 47C73 33.1929 61.8071 22 48 22C34.1929 22 23 33.1929 23 47C23 60.8071 34.1929 72 48 72ZM44 38V48H51C53.7614 48 56 45.7614 56 43C56 40.2386 53.7614 38 51 38H44ZM44 64.25V54H51C57.0751 54 62 49.0751 62 43C62 36.9249 57.0751 32 51 32H44H43H38V64.25H44Z" fill="rgb(204 241 214)"/>
<path d="M50.5 39.5H80C83.5899 39.5 86.5 42.4101 86.5 46V67.5H50.5V39.5Z" stroke="#262626" stroke-width="3"/>
<path d="M86.5 45.5H94.5V73.5H93C89.4101 73.5 86.5 70.5899 86.5 67V45.5Z" stroke="#262626" stroke-width="3"/>
<line x1="50.5" y1="66" x2="50.5" y2="107" stroke="#262626" stroke-width="3"/>
<mask id="path-5-inside-1_1_2908" fill="white">
<path fill-rule="evenodd" clip-rule="evenodd" d="M32.5509 44.0365L34.6515 52.4376C34.8346 53.1699 34.1711 53.8332 33.4387 53.6501L25.036 51.5498L20.8568 58.5141C20.4684 59.1613 19.5303 59.1613 19.1419 58.5141L14.9428 51.5167L6.40805 53.6501C5.67561 53.8331 5.01216 53.1698 5.19527 52.4375L7.31588 43.9564L0.485564 39.8589C-0.161855 39.4705 -0.161855 38.5322 0.485564 38.1438L7.34565 34.0284L5.19652 25.4355C5.01338 24.7032 5.67691 24.04 6.40945 24.223L15.0109 26.3725L19.1418 19.4889C19.5302 18.8416 20.4683 18.8416 20.8567 19.4889L24.9679 26.3398L33.4387 24.2224C34.1711 24.0393 34.8346 24.7027 34.6515 25.435L32.5226 33.9492L39.5147 38.1438C40.1621 38.5322 40.1621 39.4705 39.5147 39.8589L32.5509 44.0365Z"/>
</mask>
<path d="M34.6515 52.4376L37.5619 51.7098L34.6515 52.4376ZM32.5509 44.0365L31.0076 41.4639L29.1012 42.6076L29.6405 44.7642L32.5509 44.0365ZM33.4387 53.6501L32.7112 56.5606L32.7112 56.5606L33.4387 53.6501ZM25.036 51.5498L25.7635 48.6393L23.6073 48.1004L22.4636 50.0061L25.036 51.5498ZM20.8568 58.5141L18.2844 56.9704H18.2844L20.8568 58.5141ZM19.1419 58.5141L21.7142 56.9704H21.7142L19.1419 58.5141ZM14.9428 51.5167L17.5152 49.973L16.3715 48.0673L14.2153 48.6062L14.9428 51.5167ZM6.40805 53.6501L7.13554 56.5605L7.13554 56.5605L6.40805 53.6501ZM5.19527 52.4375L2.28487 51.7098H2.28487L5.19527 52.4375ZM7.31588 43.9564L10.2263 44.6841L10.7655 42.5274L8.85918 41.3838L7.31588 43.9564ZM0.485564 39.8589L2.02887 37.2863H2.02887L0.485564 39.8589ZM0.485564 38.1438L2.02887 40.7164H2.02887L0.485564 38.1438ZM7.34565 34.0284L8.88896 36.601L10.7954 35.4573L10.256 33.3005L7.34565 34.0284ZM5.19652 25.4355L8.10687 24.7076L5.19652 25.4355ZM6.40945 24.223L5.68213 27.1335H5.68213L6.40945 24.223ZM15.0109 26.3725L14.2836 29.283L16.4397 29.8218L17.5833 27.9162L15.0109 26.3725ZM19.1418 19.4889L21.7141 21.0325L21.7141 21.0325L19.1418 19.4889ZM20.8567 19.4889L18.2843 21.0325L18.2843 21.0325L20.8567 19.4889ZM24.9679 26.3398L22.3955 27.8834L23.5391 29.7892L25.6954 29.2502L24.9679 26.3398ZM33.4387 24.2224L32.7112 21.312L32.7112 21.312L33.4387 24.2224ZM34.6515 25.435L37.5619 26.1627V26.1627L34.6515 25.435ZM32.5226 33.9492L29.6122 33.2215L29.0729 35.3782L30.9793 36.5218L32.5226 33.9492ZM39.5147 38.1438L41.058 35.5712L41.058 35.5712L39.5147 38.1438ZM39.5147 39.8589L41.058 42.4315L41.058 42.4315L39.5147 39.8589ZM37.5619 51.7098L35.4613 43.3088L29.6405 44.7642L31.7411 53.1653L37.5619 51.7098ZM32.7112 56.5606C35.6399 57.2926 38.2946 54.6402 37.5619 51.7098L31.7411 53.1653C31.3746 51.6996 32.7023 50.3738 34.1662 50.7397L32.7112 56.5606ZM24.3085 54.4603L32.7112 56.5606L34.1662 50.7397L25.7635 48.6393L24.3085 54.4603ZM23.4292 60.0577L27.6084 53.0935L22.4636 50.0061L18.2844 56.9704L23.4292 60.0577ZM16.5695 60.0577C18.1232 62.6468 21.8755 62.6468 23.4292 60.0577L18.2844 56.9704C19.0612 55.6759 20.9374 55.6759 21.7142 56.9704L16.5695 60.0577ZM12.3704 53.0604L16.5695 60.0577L21.7142 56.9704L17.5152 49.973L12.3704 53.0604ZM7.13554 56.5605L15.6703 54.4272L14.2153 48.6062L5.68055 50.7396L7.13554 56.5605ZM2.28487 51.7098C1.55217 54.6401 4.20683 57.2926 7.13554 56.5605L5.68055 50.7396C7.14438 50.3737 8.47215 51.6995 8.10567 53.1652L2.28487 51.7098ZM4.40548 43.2287L2.28487 51.7098L8.10567 53.1652L10.2263 44.6841L4.40548 43.2287ZM-1.05774 42.4314L5.77257 46.529L8.85918 41.3838L2.02887 37.2863L-1.05774 42.4314ZM-1.05774 35.5712C-3.64742 37.1248 -3.64742 40.8779 -1.05774 42.4314L2.02887 37.2863C3.32371 38.063 3.32371 39.9396 2.02887 40.7164L-1.05774 35.5712ZM5.80234 31.4558L-1.05774 35.5712L2.02887 40.7164L8.88896 36.601L5.80234 31.4558ZM2.28616 26.1633L4.4353 34.7563L10.256 33.3005L8.10687 24.7076L2.28616 26.1633ZM7.13677 21.3125C4.20936 20.581 1.55294 23.2317 2.28616 26.1633L8.10687 24.7076C8.47382 26.1747 7.14447 27.499 5.68213 27.1335L7.13677 21.3125ZM15.7382 23.462L7.13677 21.3125L5.68213 27.1335L14.2836 29.283L15.7382 23.462ZM16.5694 17.9452L12.4386 24.8288L17.5833 27.9162L21.7141 21.0325L16.5694 17.9452ZM23.429 17.9452C21.8754 15.3562 18.1231 15.3562 16.5694 17.9452L21.7141 21.0325C20.9373 22.327 19.0611 22.327 18.2843 21.0325L23.429 17.9452ZM27.5402 24.7961L23.429 17.9452L18.2843 21.0325L22.3955 27.8834L27.5402 24.7961ZM32.7112 21.312L24.2404 23.4293L25.6954 29.2502L34.1662 27.1329L32.7112 21.312ZM37.5619 26.1627C38.2945 23.2324 35.6399 20.5799 32.7112 21.312L34.1662 27.1329C32.7023 27.4988 31.3746 26.173 31.7411 24.7073L37.5619 26.1627ZM35.433 34.6769L37.5619 26.1627L31.7411 24.7073L29.6122 33.2215L35.433 34.6769ZM41.058 35.5712L34.0659 31.3766L30.9793 36.5218L37.9714 40.7164L41.058 35.5712ZM41.058 42.4315C43.6477 40.8779 43.6477 37.1248 41.058 35.5712L37.9714 40.7164C36.6765 39.9396 36.6766 38.0631 37.9714 37.2863L41.058 42.4315ZM34.0942 46.6091L41.058 42.4315L37.9714 37.2863L31.0076 41.4639L34.0942 46.6091Z" fill="currentColor" mask="url(#path-5-inside-1_1_2908)"/>
<path d="M7.81199 15.1446L11.7917 1.5H28.2083L32.188 15.1446L20 20.368L7.81199 15.1446Z" stroke="#262626" stroke-width="3"/>
<path d="M11.2784 1.53395L29.3923 15.6559" stroke="#262626" stroke-width="3"/>
</g>
<defs>
<clipPath id="clip0_1_2908">
<rect width="96" height="96" fill="white"/>
</clipPath>
</defs>
</svg>
