<svg width="96" height="96" viewBox="0 0 96 96" fill="none" xmlns="http://www.w3.org/2000/svg">
<g clip-path="url(#clip0_1_2428)">
<rect x="17" y="57" width="64" height="16" fill="#CCF1D6"/>
<rect x="17" y="27" width="64" height="16" fill="#CCF1D6"/>
<path d="M27.6502 53.8434L50.1491 76.5694C51.6402 78.0755 51.6402 80.5175 50.1491 82.0236C48.658 83.5298 46.2404 83.5298 44.7493 82.0236L36.6497 73.8423L42.9494 80.206C44.4405 81.7122 44.4405 84.1541 42.9494 85.6603C41.4583 87.1664 39.0408 87.1664 37.5497 85.6603L31.25 79.297L35.7497 83.8423C37.2408 85.3485 37.2408 87.7904 35.7497 89.2965C34.2586 90.8027 31.8411 90.8027 30.35 89.2966L25.8502 84.7513L28.4997 87.4275C30.0095 88.9525 29.9847 91.4327 28.4447 92.9267C26.9552 94.3717 24.5973 94.3556 23.1272 92.8904L1.00007 70.8359L1 50.2666L16.2727 50.2666M29.45 52.0257L21.3504 60.207C19.3623 62.2152 16.1389 62.2152 14.1508 60.207L12.3306 58.3685C11.3445 57.3724 11.3355 55.7603 12.3104 54.753L25.0909 41.5476C27.017 39.5574 30.1612 39.4763 32.1854 41.3647L41.7272 50.2666L57 50.2667L57 71.1155L44.7493 71.1155" stroke="#262626" stroke-width="3"/>
<circle cx="76.3885" cy="19.3885" r="17.8885" stroke="#262626" stroke-width="3"/>
<circle cx="76.3886" cy="19.3885" r="8.19425" stroke="#262626" stroke-width="3"/>
<path d="M66.6943 33.9299V54L76.3886 48.4712L86.0828 54V33.9299" stroke="#262626" stroke-width="3"/>
</g>
<defs>
<clipPath id="clip0_1_2428">
<rect width="96" height="96" fill="white"/>
</clipPath>
</defs>
</svg>
