<svg width="96" height="96" viewBox="0 0 96 96" fill="none" xmlns="http://www.w3.org/2000/svg">
<g clip-path="url(#clip0_1_2383)">
<path d="M60.1806 55.8724L35.26 80.793L16.7071 62.2401L41.6277 37.3195L31.1052 26.7969L79.0166 18.4835L70.7031 66.3949L60.1806 55.8724Z" fill="rgb(204 226 240)"/>
<path d="M2 96.0001V81.1699C2 75.6471 6.47715 71.1699 12 71.1699H34C39.5228 71.1699 44 75.6471 44 81.1699V96.0001" stroke="#262626" stroke-width="3" stroke-linejoin="round"/>
<path d="M11.5454 67.6226V49M34.4545 49V67.6226" stroke="#262626" stroke-width="3" stroke-linejoin="round"/>
<path d="M9.63623 81.6503H36.3635" stroke="#262626" stroke-width="3" stroke-linecap="round" stroke-linejoin="round"/>
<path d="M17.2725 70.7666C17.2725 70.7666 17.2725 65.325 22.9997 65.325C28.727 65.325 28.727 70.7666 28.727 70.7666" stroke="#262626" stroke-width="3" stroke-linecap="round" stroke-linejoin="round"/>
<path d="M9.63623 49H36.3635" stroke="#262626" stroke-width="3" stroke-linecap="round" stroke-linejoin="round"/>
<mask id="path-7-inside-1_1_2383" fill="white">
<rect x="54" y="24" width="30" height="32" rx="1.23077"/>
</mask>
<rect x="54" y="24" width="30" height="32" rx="1.23077" stroke="#262626" stroke-width="6" mask="url(#path-7-inside-1_1_2383)"/>
<path d="M44 22L69.2101 6L94 22" stroke="#262626" stroke-width="3" stroke-linecap="round" stroke-linejoin="round"/>
</g>
<defs>
<clipPath id="clip0_1_2383">
<rect width="96" height="96" fill="white"/>
</clipPath>
</defs>
</svg>
