<svg width="96" height="96" viewBox="0 0 96 96" fill="none" aria-hidden="true" focusable="false" xmlns="http://www.w3.org/2000/svg">
<g clip-path="url(#clip0_1_2274)">
<path fill-rule="evenodd" clip-rule="evenodd" d="M28 45C32.4183 45 36 41.4183 36 37C36 32.5817 32.4183 29 28 29C23.5817 29 20 32.5817 20 37C20 41.4183 23.5817 45 28 45ZM28 35C29.1046 35 30 35.8954 30 37C30 38.1046 29.1046 39 28 39C26.8954 39 26 38.1046 26 37C26 35.8954 26.8954 35 28 35Z" fill="rgb(204 241 214)"/>
<path fill-rule="evenodd" clip-rule="evenodd" d="M61 33C65.4183 33 69 29.4183 69 25C69 20.5817 65.4183 17 61 17C56.5817 17 53 20.5817 53 25C53 29.4183 56.5817 33 61 33ZM61 23C62.1046 23 63 23.8954 63 25C63 26.1046 62.1046 27 61 27C59.8954 27 59 26.1046 59 25C59 23.8954 59.8954 23 61 23Z" fill="rgb(204 241 214)"/>
<path fill-rule="evenodd" clip-rule="evenodd" d="M51 87C59.8366 87 67 79.8366 67 71C67 62.1634 59.8366 55 51 55C42.1634 55 35 62.1634 35 71C35 79.8366 42.1634 87 51 87ZM51 67C53.2091 67 55 68.7909 55 71C55 73.2091 53.2091 75 51 75C48.7909 75 47 73.2091 47 71C47 68.7909 48.7909 67 51 67Z" fill="rgb(204 241 214)"/>
<circle cx="28" cy="39" r="10" fill="rgb(204 241 214)"/>
<circle cx="61" cy="25" r="14" fill="rgb(204 241 214)"/>
<path d="M94.5001 3.32179V72.5H64.853V3.32179L69.3569 7.29191L70.5699 8.36108L71.5452 7.07149L75.0127 2.48669L78.4802 7.07149L79.6766 8.65335L80.8729 7.07149L84.3404 2.48669L87.8079 7.07149L88.7832 8.36108L89.9962 7.29191L94.5001 3.32179Z" stroke="#262626" stroke-width="3"/>
<line x1="69.8823" y1="20.2646" x2="80.7647" y2="20.2646" stroke="#262626" stroke-width="3"/>
<line x1="69.8823" y1="50.7354" x2="80.7647" y2="50.7354" stroke="#262626" stroke-width="3"/>
<line x1="86.2061" y1="20.2646" x2="89.4708" y2="20.2646" stroke="#262626" stroke-width="3"/>
<line x1="86.2061" y1="50.7354" x2="89.4708" y2="50.7354" stroke="#262626" stroke-width="3"/>
<line x1="86.2061" y1="27.8823" x2="89.4708" y2="27.8823" stroke="#262626" stroke-width="3"/>
<line x1="86.2061" y1="58.353" x2="89.4708" y2="58.353" stroke="#262626" stroke-width="3"/>
<line x1="86.2061" y1="35.5" x2="89.4708" y2="35.5" stroke="#262626" stroke-width="3"/>
<line x1="86.2061" y1="43.1177" x2="89.4708" y2="43.1177" stroke="#262626" stroke-width="3"/>
<line x1="69.8823" y1="27.8823" x2="78.5882" y2="27.8823" stroke="#262626" stroke-width="3"/>
<line x1="69.8823" y1="58.353" x2="78.5882" y2="58.353" stroke="#262626" stroke-width="3"/>
<line x1="69.8823" y1="35.5" x2="81.8529" y2="35.5" stroke="#262626" stroke-width="3"/>
<line x1="69.8823" y1="43.1177" x2="76.4117" y2="43.1177" stroke="#262626" stroke-width="3"/>
<path d="M46.4155 48.2602C45.5871 48.2476 44.9054 48.9088 44.8928 49.7372C44.8802 50.5655 45.5415 51.2472 46.3698 51.2598L46.4155 48.2602ZM59.8549 51.4649C60.6832 51.4775 61.3649 50.8163 61.3775 49.9879C61.3901 49.1596 60.7288 48.4779 59.9005 48.4653L59.8549 51.4649ZM55.7471 39.9745L54.9949 38.6767L54.9949 38.6767L55.7471 39.9745ZM46.2965 45.4525L45.5443 44.1547C45.1156 44.4032 44.8373 44.8473 44.8006 45.3414L46.2965 45.4525ZM37.9097 38.2642L37.3924 36.8562L37.3743 36.8629L37.3564 36.87L37.9097 38.2642ZM52.5054 32.9015L53.0227 34.3094L53.0408 34.3028L53.0587 34.2957L52.5054 32.9015ZM37.6985 38.389L36.743 37.2327L36.7429 37.2327L37.6985 38.389ZM21.6367 51.6624L20.6812 50.5061L20.6812 50.5061L21.6367 51.6624ZM21.1067 51.8439L21.1401 50.3443L21.1401 50.3443L21.1067 51.8439ZM45.9087 50.6743L47.4046 50.7854L47.4046 50.7854L45.9087 50.6743ZM36.641 61.9927L36.2451 60.5459L36.2451 60.5459L36.641 61.9927ZM34.8797 60.9195C34.0806 61.1381 33.6101 61.9631 33.8288 62.7622C34.0474 63.5612 34.8724 64.0318 35.6715 63.8131L34.8797 60.9195ZM56.2123 39.5981L55.0998 38.592L55.0998 38.592L56.2123 39.5981ZM60.2306 82.8011C61.059 82.8127 61.7399 82.1506 61.7515 81.3222C61.763 80.4939 61.1009 79.813 60.2726 79.8014L60.2306 82.8011ZM29.0001 80.8641L28.9667 82.3638L28.9792 82.364L29.0001 80.8641ZM21.9282 75.1442L22.9888 74.0836C22.7157 73.8104 22.3477 73.6532 21.9616 73.6446L21.9282 75.1442ZM46.3698 51.2598L59.8549 51.4649L59.9005 48.4653L46.4155 48.2602L46.3698 51.2598ZM54.9949 38.6767L45.5443 44.1547L47.0487 46.7502L56.4993 41.2722L54.9949 38.6767ZM38.427 39.6722L53.0227 34.3094L51.9881 31.4935L37.3924 36.8562L38.427 39.6722ZM36.7429 37.2327L20.6812 50.5061L22.5922 52.8186L38.654 39.5453L36.7429 37.2327ZM21.1401 50.3443L-0.579341 49.8602L-0.646187 52.8595L21.0733 53.3435L21.1401 50.3443ZM44.8006 45.3414L44.4129 50.5633L47.4046 50.7854L47.7924 45.5636L44.8006 45.3414ZM36.2451 60.5459L34.8797 60.9195L35.6715 63.8131L37.0369 63.4395L36.2451 60.5459ZM20.6812 50.5061C20.8185 50.3926 20.9841 50.3408 21.1401 50.3443L21.0732 53.3435C21.6198 53.3557 22.1605 53.1754 22.5922 52.8186L20.6812 50.5061ZM37.3564 36.87C37.1349 36.9579 36.9278 37.08 36.743 37.2327L38.654 39.5453C38.5957 39.5935 38.531 39.6314 38.463 39.6584L37.3564 36.87ZM44.4129 50.5633C44.0572 55.3529 40.823 59.2933 36.2451 60.5459L37.0369 63.4395C42.8528 61.8481 46.9559 56.8277 47.4046 50.7854L44.4129 50.5633ZM55.0998 38.592C55.0698 38.6251 55.0347 38.6536 54.9949 38.6767L56.4993 41.2722C56.8074 41.0936 57.0858 40.8685 57.3248 40.6042L55.0998 38.592ZM57.3248 40.6042C59.2106 38.5189 59.3531 35.7569 58.2832 33.7443C57.7458 32.7335 56.8827 31.8771 55.7483 31.4272C54.5967 30.9705 53.2821 30.9794 51.952 31.5072L53.0587 34.2957C53.7477 34.0222 54.2679 34.0674 54.6423 34.2159C55.0338 34.3711 55.3878 34.6889 55.6342 35.1525C56.1319 36.0886 56.1087 37.4762 55.0998 38.592L57.3248 40.6042ZM60.2726 79.8014L29.0211 79.3643L28.9792 82.364L60.2306 82.8011L60.2726 79.8014ZM27.6782 78.773L22.9888 74.0836L20.8675 76.2049L25.5569 80.8943L27.6782 78.773ZM21.9616 73.6446L-0.0600531 73.1538L-0.126905 76.153L21.8947 76.6438L21.9616 73.6446ZM29.0336 79.3645C28.5436 79.3536 28.0519 79.1466 27.6782 78.773L25.5569 80.8943C26.4634 81.8008 27.6857 82.3352 28.9667 82.3637L29.0336 79.3645Z" fill="currentColor"/>
</g>
<defs>
<clipPath id="clip0_1_2274">
<rect width="96" height="96" fill="white"/>
</clipPath>
</defs>
</svg>
