<svg width="96" height="96" viewBox="0 0 96 96" fill="none" xmlns="http://www.w3.org/2000/svg">
<g clip-path="url(#clip0_1_931)">
<path d="M71 43.5L48.5 21L26 43.5V75H71V43.5Z" fill="rgb(204 241 214)"/>
<path d="M36.5 58.7348C36.5 68.2336 28.6849 75.9697 19 75.9697C9.31507 75.9697 1.5 68.2336 1.5 58.7348C1.5 49.2361 9.31507 41.5 19 41.5C28.6849 41.5 36.5 49.2361 36.5 58.7348Z" stroke="#262626" stroke-width="3"/>
<path d="M33.2499 95.9999V95.9999C33.2499 88.2396 26.959 81.9487 19.1988 81.9487H18.8011C11.0409 81.9487 4.74994 88.2396 4.74994 95.9999V95.9999" stroke="#262626" stroke-width="3"/>
<path d="M12.0482 66.0326L14.7052 61.1421L17.3622 66.0326C18.4569 68.0475 16.9982 70.5 14.7052 70.5C12.4122 70.5 10.9535 68.0475 12.0482 66.0326Z" stroke="#262626" stroke-width="3"/>
<ellipse cx="14.2501" cy="58.1495" rx="2.375" ry="2.34186" fill="currentColor"/>
<ellipse cx="23.75" cy="58.1495" rx="2.375" ry="2.34186" fill="currentColor"/>
<path d="M93.6963 8.30504C94.7678 9.3765 94.7678 11.1137 93.6963 12.1852L74.2228 31.6586C73.0128 32.8687 71.4007 33.5926 69.6924 33.6931L64.9265 33.9735C63.2865 34.0699 61.93 32.7134 62.0265 31.0734L62.3068 26.3076C62.4073 24.5992 63.1312 22.9871 64.3413 21.7771L83.8148 2.3036C84.8862 1.23213 86.6234 1.23213 87.6949 2.3036L93.6963 8.30504Z" stroke="#262626" stroke-width="3"/>
<path d="M62.6086 33.3915L54.2607 41.7393" stroke="#262626" stroke-width="3"/>
<path d="M46.9392 46.9394C46.3534 47.5252 46.3534 48.475 46.9392 49.0608C47.5249 49.6465 48.4747 49.6465 49.0605 49.0608L46.9392 46.9394ZM51.1131 42.7655L46.9392 46.9394L49.0605 49.0608L53.2344 44.8868L51.1131 42.7655Z" fill="currentColor"/>
<path d="M85.5651 10.4347L75.1302 20.8695" stroke="#262626" stroke-width="3"/>
</g>
<defs>
<clipPath id="clip0_1_931">
<rect width="96" height="96" fill="white"/>
</clipPath>
</defs>
</svg>
