<svg width="96" height="96" viewBox="0 0 96 96" fill="none" aria-hidden="true" focusable="false" xmlns="http://www.w3.org/2000/svg">
<g clip-path="url(#clip0_74_716)">
<rect x="27.8994" y="38" width="38" height="14" transform="rotate(45 27.8994 38)" fill="rgb(204 241 214)"/>
<rect x="35" y="64.8406" width="62" height="14" transform="rotate(-45 35 64.8406)" fill="rgb(204 241 214)"/>
<path d="M23.1698 80.3417L21.8065 85.4769C20.8528 89.0692 23.3007 92.6588 27.0029 92.9874C32.3455 93.4615 39.9524 94 46.9434 94C59.4324 94 61.4449 94 72.3019 94C75.9231 94 80.6551 93.8088 85.354 93.554C92.5875 93.1617 95.7214 84.3774 90.4819 79.375V79.375M23.1698 80.3417L22.5823 75.7543C22.2721 73.3318 23.8318 71.0631 26.2047 70.4852L30.2585 69.4981C38.1642 67.573 45.7237 64.4342 52.6679 60.1934L55.9129 58.2118C56.1236 58.0831 56.3905 58.0912 56.593 58.2324L61.2512 61.481C66.93 65.4413 74.5147 65.2876 80.0284 61.1006V61.1006C80.7552 60.5488 81.6426 60.25 82.5552 60.25H86.88C87.7492 60.25 88.4789 60.9048 88.5726 61.7689L90.4819 79.375M23.1698 80.3417C30.1751 80.9146 46.9434 81.9699 59.4324 81.9699C72.8523 81.9699 83.2227 81.625 90.4819 79.375" stroke="#262626" stroke-width="3"/>
<path d="M29.7016 23.1954C31.9608 16.5365 29.6257 9.18233 23.9389 5.04651L23.1222 4.4525C19.458 1.78763 14.5072 1.73882 10.7912 4.33093V4.33093C3.49469 9.42061 0.139807 18.5159 2.38356 27.1246L4.8724 36.6737C5.61752 39.5325 5.81961 42.5058 5.46818 45.4391L4.68645 51.9643C3.91948 58.3663 8.91855 64 15.3663 64V64C22.0366 64 27.0986 57.9916 25.9665 51.4181L25.6164 49.3856C24.5557 43.2264 25.0519 36.8997 27.0599 30.9812L29.7016 23.1954Z" stroke="#262626" stroke-width="3"/>
<circle cx="15" cy="53" r="5" stroke="#262626" stroke-width="3"/>
<path d="M24 20.5C23 26.5 19.4183 33 15 33C10.5817 33 8 27 8 22C8 15.3726 11.5 9 17 9C20 9 25 13.5 24 20.5Z" stroke="#262626" stroke-width="3"/>
</g>
<defs>
<clipPath id="clip0_74_716">
<rect width="96" height="96" fill="white"/>
</clipPath>
</defs>
</svg>
