<svg width="96" height="96" viewBox="0 0 96 96" fill="none" aria-hidden="true" focusable="false" xmlns="http://www.w3.org/2000/svg">
<g clip-path="url(#clip0_19_256)">
<rect x="27.8994" y="38" width="38" height="14" transform="rotate(45 27.8994 38)" fill="var(--pictogram, rgb(204 241 214))"/>
<rect x="27.8994" y="38" width="38" height="14" transform="rotate(45 27.8994 38)" fill="var(--pictogram, rgb(204 241 214))"/>
<rect x="35" y="64.8406" width="62" height="14" transform="rotate(-45 35 64.8406)" fill="var(--pictogram, rgb(204 241 214))"/>
<rect x="35" y="64.8406" width="62" height="14" transform="rotate(-45 35 64.8406)" fill="var(--pictogram, rgb(204 241 214))"/>
<path d="M15.9072 26.8612V9.62812C15.9072 7.43175 17.6877 5.65125 19.8841 5.65125V5.65125C22.0805 5.65125 23.861 7.43175 23.861 9.62812V21.5587" stroke="#262626" stroke-width="3"/>
<path d="M15.9075 48.0713L4.55234 36.7162C3.38722 35.551 2.98039 33.8277 3.50144 32.2645V32.2645C4.4085 29.5433 7.65476 28.4295 10.0414 30.0206L21.21 37.4663" stroke="#262626" stroke-width="3"/>
<path d="M23.8611 26.8611V6.97675C23.8611 4.78038 25.6416 2.99988 27.838 2.99988V2.99988C30.0343 2.99988 31.8148 4.78039 31.8148 6.97675V25.3698" stroke="#262626" stroke-width="3"/>
<path d="M31.8149 26.8612V9.62812C31.8149 7.43175 33.5954 5.65125 35.7918 5.65125V5.65125C37.9882 5.65125 39.7687 7.43175 39.7687 9.62812V23.8312" stroke="#262626" stroke-width="3"/>
<path d="M39.7688 26.8612V14.9306C39.7688 12.7342 41.5493 10.9537 43.7457 10.9537V10.9537C45.942 10.9537 47.7225 12.7342 47.7225 14.9306V34.815" stroke="#262626" stroke-width="3"/>
<path d="M47.7223 50.7224L34.4661 50.7224C31.5376 50.7224 29.1636 48.3484 29.1636 45.4199V45.4199C29.1636 42.4914 31.5376 40.1174 34.4661 40.1174L47.7223 40.1174" stroke="#262626" stroke-width="3"/>
<path d="M47.7222 56.025V53.3737V36.1406V32.1637V32.1637C37.2609 32.1637 26.9434 29.7281 17.5866 25.0497L15.9072 24.21V33.4893L21.2097 37.4662V38.6606C21.2097 42.5909 18.4355 45.9748 14.5815 46.7456V46.7456V46.7456C15.4596 49.3796 15.9072 52.138 15.9072 54.9145V56.025" stroke="#262626" stroke-width="3"/>
<path d="M71.6 33.0001L69.1143 52.8855C68.6688 56.4494 66.4497 59.5457 63.2179 61.1126L42 71.4001L34.8 71.4001C32.149 71.4001 30 73.5491 30 76.2001V76.2001C30 78.851 32.149 81.0001 34.8 81.0001L42.8 81.0001L45.271 82.2356C47.7867 83.4934 50.699 83.7004 53.3673 82.811L58.8 81.0001L67.0175 79.9729C70.0275 79.5966 73.0838 79.9565 75.9241 81.0216L80.4989 82.7372C82.8747 83.6281 85.5519 83.0482 87.3461 81.254V81.254C89.4889 79.1112 90.3503 76.0012 89.6153 73.0613L88.1302 67.1208C87.7811 65.7244 87.7464 64.268 88.0287 62.8566L94 33.0001" stroke="#262626" stroke-width="3"/>
<path d="M94 87.4C94 87.4 90.8 93.8 84.4 93.8C81.3928 93.8 76.9726 92.387 73.1312 90.8889C68.1019 88.9274 62.3968 89.0819 57.7679 91.8593V91.8593C52.5358 94.9986 45.9632 94.8422 40.8864 91.4576L39.6 90.6H30" stroke="#262626" stroke-width="3"/>
</g>
<defs>
<clipPath id="clip0_19_256">
<rect width="96" height="96" fill="white"/>
</clipPath>
</defs>
</svg>
