<svg width="96" height="96" viewBox="0 0 96 96" fill="none" xmlns="http://www.w3.org/2000/svg">
<g clip-path="url(#clip0_1_1248)">
<path d="M64.3137 41.5321C59.9216 41.5321 52.2353 45.8779 52.2353 48.0508C52.2353 50.2238 59.9216 54.5696 64.3137 54.5696C68.7059 54.5696 72 51.651 72 48.0508C72 44.4506 69.1652 41.5321 64.3137 41.5321Z" fill="rgb(204 226 240)"/>
<path d="M31.6863 54.5698C36.0784 54.5698 43.7647 50.224 43.7647 48.0511C43.7647 45.8782 36.0784 41.5323 31.6863 41.5323C27.2941 41.5323 24 44.4509 24 48.0511C24 51.6513 26.8348 54.5698 31.6863 54.5698Z" fill="rgb(204 226 240)"/>
<path d="M50.5099 30.5864C48.3138 34.3499 48.2744 43.1092 50.1763 44.1956C52.0781 45.2821 59.725 40.8687 61.921 37.1051C64.1171 33.3415 63.2097 29.0595 60.0586 27.2594C56.9075 25.4593 52.9356 26.4292 50.5099 30.5864Z" fill="rgb(204 226 240)"/>
<path d="M61.921 58.895C59.725 55.1314 52.0781 50.718 50.1763 51.8044C48.2744 52.8909 48.3138 61.6501 50.5099 65.4137C52.706 69.1773 56.9075 70.5407 60.0586 68.7406C63.2097 66.9405 64.3467 63.0521 61.921 58.895Z" fill="rgb(204 226 240)"/>
<path d="M34.1962 58.895C36.3922 55.1314 44.0391 50.718 45.9409 51.8044C47.8428 52.8909 47.8034 61.6501 45.6073 65.4137C43.4112 69.1773 39.2097 70.5407 36.0586 68.7406C32.9075 66.9405 31.7704 63.0521 34.1962 58.895Z" fill="rgb(204 226 240)"/>
<path d="M34.1962 37.105C36.3922 40.8686 44.0391 45.282 45.9409 44.1956C47.8428 43.1091 47.8034 34.3499 45.6073 30.5863C43.4112 26.8227 39.2097 25.4593 36.0586 27.2594C32.9075 29.0595 31.7704 32.9479 34.1962 37.105Z" fill="rgb(204 226 240)"/>
<path d="M57.6324 50.0634L56.5893 48.9854L57.6324 50.0634ZM70.1224 40.0649C70.7178 39.4889 70.7334 38.5392 70.1573 37.9439C69.5812 37.3486 68.6316 37.3329 68.0363 37.909L70.1224 40.0649ZM80.8063 38.5881C81.4016 38.012 81.4172 37.0624 80.8412 36.467C80.2651 35.8717 79.3155 35.8561 78.7201 36.4321L80.8063 38.5881ZM62.2111 54.494L63.2542 55.572L62.2111 54.494ZM57.6324 54.494L58.6754 53.416L57.6324 54.494ZM79.6329 47.5616L78.2002 47.1174L79.6329 47.5616ZM81.4936 41.5599L82.9264 42.0041C83.0014 41.7618 83.0139 41.5046 82.9626 41.2562L81.4936 41.5599ZM89.853 40.9267L91.2762 41.4007V41.4007L89.853 40.9267ZM86.4652 51.0998L87.8884 51.5737H87.8884L86.4652 51.0998ZM89.8984 40.7113L88.405 40.5709L88.405 40.571L89.8984 40.7113ZM91.3806 24.9354L89.8872 24.795V24.7951L91.3806 24.9354ZM91.6781 24.3208L90.635 23.2429L90.635 23.2429L91.6781 24.3208ZM82.1995 37.5641C82.0318 36.7528 81.2382 36.2311 80.4269 36.3988C79.6156 36.5664 79.0939 37.3601 79.2616 38.1713L82.1995 37.5641ZM85.4136 52.2772L84.7681 50.9232L85.4136 52.2772ZM51.5272 47.1091L52.5703 48.187H52.5703L51.5272 47.1091ZM65.5435 35.6337C66.1389 35.0576 66.1545 34.108 65.5784 33.5127C65.0024 32.9173 64.0527 32.9017 63.4574 33.4778L65.5435 35.6337ZM56.106 51.5396L55.0629 50.4617L56.106 51.5396ZM51.5272 51.5396L52.5703 50.4617L51.5272 51.5396ZM48.4748 41.202L49.5178 42.28L48.4748 41.202ZM53.0536 45.6326L52.0105 44.5546L53.0536 45.6326ZM48.4748 45.6326L49.5178 44.5546H49.5178L48.4748 45.6326ZM46.9483 33.8177L47.9914 34.8957L46.9483 33.8177ZM69.3986 12.0941L70.4417 13.1721L69.3986 12.0941ZM60.9646 31.2035C61.56 30.6275 61.5756 29.6778 60.9995 29.0825C60.4235 28.4871 59.4738 28.4715 58.8785 29.0476L60.9646 31.2035ZM51.5271 38.2483L50.484 37.1703L51.5271 38.2483ZM72.3121 10.9264L72.3121 12.4264H72.3121V10.9264ZM76.7105 10.9264L76.7105 12.4264C77.0998 12.4264 77.4738 12.2751 77.7535 12.0044L76.7105 10.9264ZM46.9483 38.2483L47.9914 37.1703H47.9914L46.9483 38.2483ZM58.6754 51.1414L70.1224 40.0649L68.0363 37.909L56.5893 48.9854L58.6754 51.1414ZM78.7201 36.4321L61.1681 53.416L63.2542 55.572L80.8063 38.5881L78.7201 36.4321ZM58.6754 53.416C58.0203 52.7821 58.0203 51.7753 58.6754 51.1414L56.5893 48.9854C54.7156 50.7984 54.7156 53.759 56.5893 55.572L58.6754 53.416ZM56.5893 55.572C58.4352 57.3581 61.4083 57.3581 63.2542 55.572L61.1681 53.416C60.4852 54.0768 59.3583 54.0768 58.6754 53.416L56.5893 55.572ZM81.0656 48.0058L82.9264 42.0041L80.0609 41.1157L78.2002 47.1174L81.0656 48.0058ZM88.4299 40.4528L85.0421 50.6259L87.8884 51.5737L91.2762 41.4007L88.4299 40.4528ZM91.3919 40.8516L92.874 25.0757L89.8872 24.7951L88.405 40.5709L91.3919 40.8516ZM92.7211 25.3988L103.141 15.3159L101.055 13.16L90.635 23.2429L92.7211 25.3988ZM82.9626 41.2562L82.1995 37.5641L79.2616 38.1713L80.0247 41.8635L82.9626 41.2562ZM92.874 25.0757C92.8618 25.2062 92.8032 25.3193 92.7211 25.3988L90.635 23.2429C90.2121 23.652 89.9431 24.2001 89.8872 24.795L92.874 25.0757ZM91.2762 41.4007C91.3354 41.2228 91.3743 41.0386 91.3919 40.8516L88.405 40.571C88.4088 40.5304 88.4172 40.4907 88.4299 40.4528L91.2762 41.4007ZM84.7681 50.9232C82.5864 51.9632 80.4618 49.9532 81.0656 48.0058L78.2002 47.1174C76.7355 51.8416 81.7833 55.6694 86.059 53.6312L84.7681 50.9232ZM86.059 53.6312C86.9166 53.2224 87.5848 52.4855 87.8884 51.5737L85.0421 50.6259C85.0036 50.7414 84.9112 50.855 84.7681 50.9232L86.059 53.6312ZM52.5703 48.187L65.5435 35.6337L63.4574 33.4778L50.4841 46.0311L52.5703 48.187ZM66.5099 39.3852L55.0629 50.4617L57.1491 52.6176L68.5961 41.5411L66.5099 39.3852ZM52.5703 50.4617C51.9151 49.8277 51.9151 48.821 52.5703 48.187L50.4841 46.0311C48.6105 47.8441 48.6105 50.8046 50.4841 52.6176L52.5703 50.4617ZM50.4841 52.6176C52.3301 54.4038 55.3031 54.4038 57.1491 52.6176L55.0629 50.4617C54.3801 51.1224 53.2531 51.1224 52.5703 50.4617L50.4841 52.6176ZM49.5178 42.28L59.4386 32.6804L57.3524 30.5245L47.4317 40.1241L49.5178 42.28ZM61.9312 34.9551L52.0105 44.5546L54.0966 46.7106L64.0174 37.111L61.9312 34.9551ZM49.5178 44.5546C48.8627 43.9207 48.8627 42.9139 49.5178 42.28L47.4317 40.1241C45.5581 41.9371 45.5581 44.8976 47.4317 46.7106L49.5178 44.5546ZM47.4317 46.7106C49.2776 48.4968 52.2507 48.4968 54.0966 46.7106L52.0105 44.5546C51.3276 45.2154 50.2007 45.2154 49.5178 44.5546L47.4317 46.7106ZM47.9914 34.8957L70.4417 13.1721L68.3556 11.0161L45.9052 32.7397L47.9914 34.8957ZM58.8785 29.0476L50.484 37.1703L52.5702 39.3262L60.9646 31.2035L58.8785 29.0476ZM72.3121 12.4264L76.7105 12.4264L76.7105 9.42639L72.3121 9.42639V12.4264ZM77.7535 12.0044L88.4374 1.66634L86.3513 -0.489585L75.6674 9.84843L77.7535 12.0044ZM70.4417 13.1721C70.9296 12.7 71.6015 12.4264 72.3121 12.4264L72.3121 9.42639C70.8371 9.42639 69.4131 9.99288 68.3556 11.0161L70.4417 13.1721ZM47.9914 37.1703C47.3362 36.5364 47.3362 35.5296 47.9914 34.8957L45.9052 32.7397C44.0316 34.5527 44.0316 37.5133 45.9052 39.3262L47.9914 37.1703ZM45.9052 39.3262C47.7512 41.1124 50.7242 41.1124 52.5702 39.3262L50.484 37.1703C49.8012 37.8311 48.6742 37.8311 47.9914 37.1703L45.9052 39.3262Z" fill="currentColor"/>
<path d="M23.3694 53.3512C22.769 53.922 22.745 54.8715 23.3158 55.4719C23.8866 56.0723 24.836 56.0963 25.4364 55.5255L23.3694 53.3512ZM43.2195 38.6192C43.8199 38.0484 43.8439 37.099 43.2731 36.4986C42.7023 35.8982 41.7528 35.8742 41.1524 36.445L43.2195 38.6192ZM24.152 43.3665L22.703 42.9786L22.703 42.9786L24.152 43.3665ZM21.8402 52.0022L20.3912 51.6144C20.2625 52.0952 20.3807 52.6087 20.7068 52.9848L21.8402 52.0022ZM12.7765 52.6955L14.1523 53.2931L14.1523 53.2931L12.7765 52.6955ZM17.519 41.777L18.8948 42.3746L17.519 41.777ZM12.7262 52.8899L11.233 52.7471L11.233 52.7471L12.7262 52.8899ZM11.1036 69.8593L9.61036 69.7165V69.7165L11.1036 69.8593ZM10.9008 70.2709L9.86725 69.1838L9.86724 69.1838L10.9008 70.2709ZM24.6534 55.2472L23.52 56.2298L24.6534 55.2472ZM25.8467 67.1556L27.1478 67.902L25.8467 67.1556ZM23.9685 67.4151C23.5562 68.1336 23.8045 69.0504 24.523 69.4626C25.2416 69.8749 26.1583 69.6266 26.5706 68.908L23.9685 67.4151ZM24.2037 42.8797L22.7056 42.9554V42.9554L24.2037 42.8797ZM54.6799 63.3634C55.2803 62.7926 55.3043 61.8431 54.7335 61.2427C54.1627 60.6423 53.2133 60.6183 52.6129 61.1891L54.6799 63.3634ZM24.9381 83.2742V81.7742C24.5534 81.7742 24.1834 81.922 23.9046 82.1871L24.9381 83.2742ZM25.4364 55.5255L43.2195 38.6192L41.1524 36.445L23.3694 53.3512L25.4364 55.5255ZM22.703 42.9786L20.3912 51.6144L23.2892 52.3901L25.601 43.7544L22.703 42.9786ZM14.1523 53.2931L18.8948 42.3746L16.1431 41.1794L11.4007 52.098L14.1523 53.2931ZM11.233 52.7471L9.61036 69.7165L12.5967 70.0021L14.2194 53.0327L11.233 52.7471ZM9.86724 69.1838L-3.05379 81.4678L-0.986742 83.642L11.9343 71.3581L9.86724 69.1838ZM20.7068 52.9848L23.52 56.2298L25.7868 54.2647L22.9736 51.0197L20.7068 52.9848ZM24.5456 66.4091L23.9685 67.4151L26.5706 68.908L27.1478 67.902L24.5456 66.4091ZM9.61036 69.7165C9.63087 69.5021 9.7288 69.3154 9.86725 69.1838L11.9343 71.3581C12.305 71.0056 12.5465 70.5276 12.5967 70.0021L9.61036 69.7165ZM11.4007 52.0979C11.3114 52.3034 11.2545 52.5223 11.233 52.7471L14.2194 53.0327C14.2107 53.1238 14.1877 53.2117 14.1523 53.2931L11.4007 52.0979ZM23.52 56.2298C26.0249 59.1193 26.421 63.1404 24.5456 66.4091L27.1478 67.902C29.6659 63.5131 29.1172 58.1063 25.7868 54.2647L23.52 56.2298ZM22.7056 42.9554C22.706 42.9626 22.7053 42.9702 22.703 42.9786L25.601 43.7544C25.6838 43.4449 25.718 43.1244 25.7018 42.804L22.7056 42.9554ZM25.7018 42.804C25.5699 40.1946 23.5881 38.6353 21.5701 38.3024C19.5554 37.97 17.1768 38.7995 16.1431 41.1794L18.8948 42.3746C19.2784 41.4915 20.1531 41.1092 21.0819 41.2624C22.0073 41.415 22.6593 42.0385 22.7056 42.9554L25.7018 42.804ZM52.6129 61.1891L31.3486 81.4049L33.4157 83.5792L54.6799 63.3634L52.6129 61.1891ZM30.396 81.7742H24.9381V84.7742H30.396V81.7742ZM23.9046 82.1871L10.8038 94.6419L12.8708 96.8162L25.9716 84.3613L23.9046 82.1871ZM31.3486 81.4049C31.1083 81.6334 30.7669 81.7742 30.396 81.7742V84.7742C31.515 84.7742 32.6025 84.3523 33.4157 83.5792L31.3486 81.4049Z" fill="currentColor"/>
</g>
<defs>
<clipPath id="clip0_1_1248">
<rect width="96" height="96" fill="white"/>
</clipPath>
</defs>
</svg>
