<svg xmlns="http://www.w3.org/2000/svg" width="101" height="96" fill="none" viewBox="0 0 101 96">
  <path fill="#CCF1D6" d="M76 44.67c0-7-5.48-12.67-12.25-12.67-3.43 0-6.53 1.46-8.75 3.8a12.02 12.02 0 0 0-8.75-3.8C39.48 32 34 37.67 34 44.67c0 3.54 1.4 6.75 3.68 9.05h-.18L55 70l17.5-16.29h-.18c2.27-2.3 3.68-5.5 3.68-9.04Z"/>
  <path fill="#262626" d="m64.12 40.8-1.04-1.07 1.04 1.08Zm10.03-7.6a1.5 1.5 0 1 0-2.1-2.16l2.1 2.16Zm8.37-1.16a1.5 1.5 0 0 0-2.08-2.16l2.08 2.16Zm-14.8 12.24 1.04 1.08-1.05-1.08Zm-3.6 0 1.05-1.08-1.05 1.08Zm17.26-5.44-1.43-.44 1.43.44Zm1.46-4.7 1.43.44c.08-.24.09-.5.04-.75l-1.47.3Zm6.56-.5 1.42.47-1.42-.47Zm-2.66 7.98 1.42.47-1.42-.47Zm2.7-8.15-1.5-.14 1.5.14Zm1.15-12.37-1.49-.14 1.5.14Zm.24-.49-1.05-1.07 1.05 1.07ZM83.7 30.94a1.5 1.5 0 1 0-2.94.6l2.94-.6Zm2.2 11.6-.64-1.35.64 1.35ZM59.34 38.5l1.04 1.08-1.04-1.08Zm11.21-8.77a1.5 1.5 0 1 0-2.08-2.16l2.08 2.16Zm-7.62 12.24-1.05-1.07 1.05 1.07Zm-3.6 0 1.05-1.07-1.04 1.07Zm-2.39-8.1 1.04 1.07-1.04-1.08Zm3.6 3.47 1.04 1.08-1.05-1.08Zm-3.6 0 1.04-1.08-1.04 1.08Zm-1.2-9.27L54.7 27l1.04 1.07Zm17.61-17.04-1.04-1.07 1.04 1.07Zm-6.39 15.23a1.5 1.5 0 1 0-2.08-2.16l2.08 2.16Zm-7.62 5.29-1.05-1.08 1.05 1.08Zm16.3-21.43v1.5-1.5Zm3.45 0v1.5c.39 0 .76-.15 1.04-.42l-1.04-1.08ZM55.74 31.54l1.05-1.08-1.05 1.08Zm9.43 10.34 8.98-8.68-2.1-2.16-8.97 8.69 2.09 2.15Zm15.27-12L66.67 43.2l2.09 2.16 13.76-13.32-2.08-2.16ZM65.17 43.2a.9.9 0 0 1 0-1.32l-2.09-2.15a3.9 3.9 0 0 0 0 5.63l2.09-2.16Zm-2.09 2.16a4.1 4.1 0 0 0 5.68 0l-2.09-2.16c-.4.4-1.1.4-1.5 0l-2.09 2.16Zm19.73-6.07 1.46-4.71-2.86-.89-1.46 4.7 2.86.9Zm5.16-6.13-2.65 7.98 2.84.95 2.66-7.98-2.85-.95Zm2.95.45 1.17-12.37-2.99-.28-1.16 12.37 2.98.28Zm.95-11.92 8.17-7.9-2.08-2.16-8.18 7.9 2.09 2.16Zm-7.56 12.14-.6-2.9-2.94.61.6 2.9 2.94-.6Zm7.78-12.6a.73.73 0 0 1-.22.46l-2.09-2.15c-.38.37-.63.87-.68 1.42l2.99.28Zm-1.27 12.88c.05-.16.09-.33.1-.5l-2.98-.28c0-.06.01-.11.03-.16l2.85.94Zm-5.55 7.08c-1.49.7-2.84-.67-2.46-1.9l-2.86-.9c-1.24 4.01 3.03 7.21 6.6 5.5l-1.28-2.7Zm1.29 2.7c.75-.35 1.33-1 1.6-1.8l-2.84-.95-.05.05 1.29 2.7Zm-26.18-4.32 10.17-9.85-2.08-2.16-10.18 9.85 2.09 2.16Zm10.48-7.37-8.98 8.69 2.09 2.15 8.98-8.69-2.09-2.15Zm-10.48 8.69a.9.9 0 0 1 0-1.32l-2.09-2.16a3.9 3.9 0 0 0 0 5.63l2.09-2.15Zm-2.09 2.15a4.1 4.1 0 0 0 5.68 0l-2.09-2.15c-.4.4-1.1.4-1.5 0l-2.09 2.15Zm-.3-8.1 7.78-7.54-2.1-2.15-7.77 7.53 2.08 2.15Zm9.28-6.22-7.78 7.53 2.09 2.16 7.78-7.53-2.09-2.16Zm-9.29 7.53a.9.9 0 0 1 0-1.32l-2.08-2.15a3.9 3.9 0 0 0 0 5.63l2.08-2.16Zm-2.08 2.16a4.1 4.1 0 0 0 5.68 0l-2.1-2.16c-.4.4-1.09.4-1.5 0l-2.08 2.16Zm.89-9.27 17.6-17.04-2.08-2.15-17.6 17.04 2.08 2.15Zm8.09-5.05-6.59 6.37 2.09 2.16 6.58-6.37-2.08-2.16ZM75.64 11.6h3.45v-3h-3.45v3Zm4.49-.42 8.38-8.11L86.42.92l-8.38 8.11 2.09 2.16Zm-5.73.91c.32-.3.76-.5 1.24-.5v-3c-1.24 0-2.44.48-3.33 1.35l2.09 2.15ZM56.79 30.46a.9.9 0 0 1 0-1.32L54.7 27a3.9 3.9 0 0 0 0 5.63l2.09-2.16Zm-2.09 2.16a4.1 4.1 0 0 0 5.68 0l-2.09-2.16c-.4.4-1.1.4-1.5 0l-2.09 2.16Zm-22.4 9.34a1.5 1.5 0 0 0 2.06 2.17l-2.07-2.17Zm23.15-17.87a1.5 1.5 0 1 0-2.07-2.18l2.07 2.18Zm-22.42 5.83-1.45-.4v.01l1.45.39ZM30.3 40.16l-1.45-.4c-.13.49-.01 1 .32 1.38l1.13-.98Zm-10.75.82 1.38.6-1.38-.6Zm5.63-12.95 1.37.6-1.37-.6Zm-5.69 13.18L18 41.07l1.5.14Zm-1.92 20.12-1.5-.14 1.5.14Zm-.24.49-1.03-1.1 1.03 1.1ZM33.62 44l-1.12 1 1.13-.99Zm1.42 14.12 1.3.75-1.3-.75Zm-1.99.45a1.5 1.5 0 1 0 2.6 1.5l-2.6-1.5Zm.04-29.23-1.5.08 1.5-.08Zm35.94 24.08a1.5 1.5 0 1 0-2.06-2.17l2.06 2.17ZM33.96 77.23v-1.5c-.38 0-.75.15-1.03.42l1.03 1.08Zm.4-33.1L55.45 24.1l-2.07-2.18-21.09 20.05 2.07 2.17Zm-2.78-14.6-2.74 10.24 2.9.77 2.74-10.23-2.9-.78ZM20.92 41.58l5.62-12.95-2.75-1.2-5.62 12.95 2.75 1.2Zm-2.93-.51-1.92 20.12 2.98.28 1.93-20.12-2.99-.28Zm-1.7 19.66L.97 75.29l2.06 2.18L18.35 62.9l-2.06-2.17Zm12.87-19.6L32.49 45l2.27-1.97-3.34-3.85-2.26 1.97Zm4.58 16.25-.69 1.19 2.6 1.5.7-1.2-2.61-1.5Zm-17.67 3.8c.01-.18.1-.34.22-.45l2.06 2.17c.4-.37.65-.87.7-1.43l-2.98-.28Zm2.1-20.8c-.1.22-.16.45-.18.69l2.99.28a.86.86 0 0 1-.06.23l-2.75-1.2Zm14.32 4.6a10.67 10.67 0 0 1 1.25 12.4l2.6 1.49a13.66 13.66 0 0 0-1.58-15.85L32.49 45Zm-.9-15.56v.1l2.89.79c.09-.34.13-.7.11-1.05l-3 .16Zm3-.16a5.4 5.4 0 0 0-4.67-5.07 5.57 5.57 0 0 0-6.13 3.25l2.75 1.2c.52-1.2 1.7-1.69 2.9-1.5 1.2.2 2.1 1.03 2.15 2.28l3-.16Zm32.38 21.99L41.76 75.22l2.06 2.17 25.21-23.97-2.06-2.17ZM40.43 75.73h-6.47v3h6.47v-3Zm-7.5.42L17.4 90.9l2.06 2.18L35 78.32l-2.07-2.17Zm8.83-.93c-.34.32-.82.51-1.33.51v3c1.26 0 2.48-.47 3.4-1.34l-2.07-2.17Z"/>
</svg>
