<svg aria-hidden="true" focusable="false" xmlns="http://www.w3.org/2000/svg" width="64" height="64" fill="none" viewBox="0 0 64 64">
  <path fill="var(--pictogram, #CCF1D6)" d="M48.3 29.9a8 8 0 0 0-7.8-8.1c-2.2 0-4.2.9-5.6 2.4a7.7 7.7 0 0 0-5.6-2.4 8 8 0 0 0-7.9 8c0 2.3 1 4.4 2.4 5.9h-.1L34.9 46 46 35.7a8.2 8.2 0 0 0 2.3-5.8Z"/>
  <path fill="#262626" d="m40.7 27.4-.6-.7.6.7Zm6.4-4.9a1 1 0 0 0-1.3-1.4l1.3 1.4Zm5.4-.7a1 1 0 0 0-1.3-1.4l1.3 1.4ZM43 29.6l.7.7-.7-.7Zm-2.3 0 .7-.7-.7.7Zm11-3.5-.9-.2 1 .2Zm1-3 1 .3V23l-1 .2Zm4.2-.3.9.3-1-.3ZM55.2 28l.9.3-1-.3Zm1.7-5.2h-1 1Zm.8-8h-1 1Zm.1-.2-.7-.7.7.7ZM53.3 21a1 1 0 0 0-2 .4l2-.4Zm1.4 7.4-.4-.9.4 1Zm-17-2.6.6.7-.6-.7Zm7.1-5.6a1 1 0 0 0-1.3-1.4l1.3 1.4ZM40 28.1l-.7-.7.7.7Zm-2.3 0 .6-.7-.6.7ZM36 23l.7.7-.7-.7Zm2.3 2.3.7.7-.7-.7Zm-2.3 0 .7-.7-.7.7Zm-.7-6-.7-.6.7.6Zm11.3-11-.6-.7.6.7Zm-4 9.8a1 1 0 0 0-1.4-1.4l1.3 1.4Zm-5 3.4-.6-.7.7.7ZM48.2 7.7v1-1Zm2.2 0v1c.2 0 .5 0 .7-.3l-.7-.7Zm-15 13.8.7-.7-.6.7Zm6 6.6 5.8-5.6-1.3-1.4-5.7 5.6 1.3 1.4Zm9.9-7.7-8.9 8.5 1.4 1.4 8.8-8.5-1.3-1.4Zm-9.8 8.5a.6.6 0 0 1 0-.8L40 26.7c-1 1-1 2.6 0 3.6l1.3-1.4ZM40 30.3c1 1 2.6 1 3.6 0L42.3 29c-.2.3-.7.3-1 0l-1.2 1.4Zm12.6-3.9 1-3-2-.6-.9 3 1.9.6Zm3.3-3.9-1.7 5.1 1.8.6 1.7-5-1.8-.7Zm1.9.3.7-8-1.9-.1-.7 8h1.9Zm.6-7.6 5.2-5.1-1.3-1.4-5.3 5 1.4 1.5Zm-4.9 7.7-.3-1.8-2 .4.5 1.8 1.8-.4Zm5-8-.1.3-1.4-1.4c-.2.2-.4.5-.4.9l2 .2Zm-.8 8.2v-.3l-1.8-.2 1.8.5Zm-3.5 4.5c-1 .5-1.9-.4-1.6-1.2l-1.9-.5c-.7 2.5 2 4.6 4.3 3.5l-.8-1.8Zm.8 1.8a2 2 0 0 0 1-1.2l-1.8-.6.8 1.8Zm-16.8-2.8 6.5-6.3-1.3-1.4-6.5 6.3 1.3 1.4Zm6.7-4.7-5.7 5.5 1.3 1.4 5.8-5.5-1.4-1.4Zm-6.7 5.5a.6.6 0 0 1 0-.8L37 25.2c-1 1-1 2.6 0 3.6l1.3-1.4ZM37 28.8c1 1 2.6 1 3.6 0l-1.3-1.4c-.3.3-.7.3-1 0L37 28.8Zm-.2-5.2 5-4.8-1.4-1.4-5 4.9 1.4 1.3Zm6-4-5 4.9 1.3 1.4 5-4.9-1.4-1.3Zm-6 4.9a.6.6 0 0 1 0-.9l-1.3-1.3c-1 1-1 2.6 0 3.6l1.3-1.4Zm-1.3 1.4c1 1 2.6 1 3.6 0l-1.3-1.4a1 1 0 0 1-1 0l-1.3 1.4Zm.5-6L47.3 9 46 7.6l-11.3 11 1.3 1.3Zm5.2-3.2-4.2 4 1.3 1.5 4.2-4.1-1.3-1.4Zm6.9-8h2.2v-2H48v2Zm2.9-.3 5.3-5.2L55 2l-5.4 5L51 8.4Zm-3.7.6c.2-.2.5-.3.8-.3v-2a3 3 0 0 0-2.1 1L47.3 9ZM36 20.8a.6.6 0 0 1 0-.9l-1.3-1.3c-1 1-1 2.6 0 3.6l1.3-1.4Zm-1.3 1.4c1 1 2.6 1 3.6 0L37 20.8a1 1 0 0 1-1 0l-1.3 1.4Zm-14.4 5.9a1 1 0 0 0 1.4 1.4l-1.4-1.4Zm14.9-11.4a1 1 0 0 0-1.4-1.4l1.4 1.4Zm-14.4 3.7-1-.2 1 .2ZM19.1 27l-1-.3c0 .3 0 .7.2 1l.8-.7Zm-7 .5 1 .4-1-.4Zm3.7-8.3.9.4-1-.4ZM12 27.7l-1-.1h1Zm-1 12.8h-1 1Zm-.1.3-.7-.7.7.7Zm10.4-11.4-.7.7.7-.7Zm.9 9 .8.6-.8-.5Zm-1.3.4a1 1 0 1 0 1.7 1l-1.7-1Zm0-18.7H20h1Zm23 15.4a1 1 0 1 0-1.3-1.4l1.4 1.4ZM21.5 50.7v-1a1 1 0 0 0-.6.3l.6.7Zm.3-21.2 13.5-12.8-1.4-1.4-13.5 12.8 1.4 1.4ZM20 20.2l-2 6.5 1.9.5 1.7-6.5-1.8-.5Zm-7 7.7 3.6-8.3-1.8-.8-3.6 8.3 1.8.8Zm-2-.3-1 12.8 1.9.2L13 27.7l-2-.1Zm-1 12.5L.3 49.5l1.3 1.4 9.8-9.4-1.3-1.4Zm8.2-12.5 2.2 2.5 1.4-1.3-2.1-2.4-1.5 1.2Zm3 10.4-.5.8 1.7 1 .4-.8-1.6-1ZM10 40.4l.1-.3 1.3 1.4c.3-.2.4-.5.5-.9l-2-.2Zm1.3-13.3-.1.5 1.9.1v.2l-1.8-.8Zm9.2 3c2 2.2 2.2 5.4.8 7.9l1.6 1a8.7 8.7 0 0 0-1-10.2l-1.4 1.3Zm-.6-10 1.8.6.1-.7-1.9.1Zm2 0c-.2-2-1.6-3.1-3-3.3-1.5-.3-3.2.3-4 2l1.8.8c.3-.8 1-1 1.8-1 .8.2 1.4.7 1.4 1.5h2Zm20.6 14L26.4 49.4l1.3 1.4L44 35.5 42.5 34Zm-17 15.6h-4v2h4v-2Zm-4.7.3-10 9.5 1.3 1.4 10-9.5-1.3-1.4Zm5.6-.6c-.2.2-.5.3-.8.3v2c.8 0 1.5-.3 2.1-.9l-1.3-1.4Z"/>
</svg>
