<svg width="96" height="96" viewBox="0 0 96 96" fill="none" xmlns="http://www.w3.org/2000/svg">
<g clip-path="url(#clip0_74_884)">
<rect x="27.8994" y="38" width="38" height="14" transform="rotate(45 27.8994 38)" fill="rgb(204 226 240)"/>
<rect x="27.8994" y="38" width="38" height="14" transform="rotate(45 27.8994 38)" fill="rgb(204 226 240)"/>
<rect x="35" y="64.8408" width="62" height="14" transform="rotate(-45 35 64.8408)" fill="rgb(204 226 240)"/>
<rect x="35" y="64.8408" width="62" height="14" transform="rotate(-45 35 64.8408)" fill="rgb(204 226 240)"/>
<path d="M33.3572 69.3008C33.3572 76.4016 27.6008 82.158 20.5 82.158V82.158C13.3992 82.158 7.64289 76.4016 7.64289 69.3008L7.64289 56.4737L11.5 58.9998L21 51.9998L21 58.4737L33.3572 50.0527L33.3572 69.3008Z" stroke="#262626" stroke-width="3"/>
<path d="M20.5 82.158V95.0001" stroke="#262626" stroke-width="3"/>
<path d="M9.64282 94.9998H31.3571" stroke="#262626" stroke-width="3"/>
<path d="M7.5 68L6.58327 67.0128C3.07811 63.238 1.60476 58.0065 2.6248 52.9572L3.50025 48.6238C4.63122 43.0254 9.55121 39 15.2626 39H26.7374C32.4488 39 37.3688 43.0254 38.4998 48.6238L39.2294 52.2357C40.3297 57.6822 38.5255 63.3095 34.4634 67.1009L33.5 68" stroke="#262626" stroke-width="3"/>
<path d="M60 43.7368H49V24.5C49 12.0736 59.0736 2 71.5 2V2C83.9264 2 94 12.0736 94 24.5V43.7368H82" stroke="#262626" stroke-width="3"/>
<path d="M84.3572 37.3007C84.3572 44.4015 78.6008 50.1578 71.5 50.1578V50.1578C64.3992 50.1578 58.6429 44.4015 58.6429 37.3007L58.6429 24.4736L62.4041 24.4736C68.386 24.4736 74.286 23.0823 79.6376 20.4096L84.3572 18.0526L84.3572 37.3007Z" stroke="#262626" stroke-width="3"/>
<path d="M71.5 50.1578V62.9999" stroke="#262626" stroke-width="3"/>
<path d="M60.6428 63H82.3571" stroke="#262626" stroke-width="3"/>
</g>
<defs>
<clipPath id="clip0_74_884">
<rect width="96" height="96" fill="white"/>
</clipPath>
</defs>
</svg>
