<svg width="96" height="96" viewBox="0 0 96 96" fill="none" xmlns="http://www.w3.org/2000/svg">
<rect x="16" y="36" width="64" height="24" fill="#CCF1D6"/>
<rect x="60" y="16" width="64" height="24" transform="rotate(90 60 16)" fill="#CCF1D6"/>
<path d="M22.5 70.5C29.8947 70.5 36.756 74.2002 43.0858 82C36.756 89.7998 29.8947 93.5 22.5 93.5C15.1053 93.5 8.24399 89.7998 1.91415 82C8.24399 74.2002 15.1053 70.5 22.5 70.5Z" stroke="#262626" stroke-width="3"/>
<path d="M30.4565 82C30.4565 86.1436 26.9491 89.6 22.5 89.6C18.0509 89.6 14.5435 86.1436 14.5435 82C14.5435 77.8565 18.0509 74.4 22.5 74.4C26.9491 74.4 30.4565 77.8565 30.4565 82Z" stroke="#262626" stroke-width="3"/>
<path d="M29.4687 51.8091L29.4687 37.8965L27.2812 39.361" stroke="#262626" stroke-width="3" stroke-linecap="round" stroke-linejoin="round"/>
<ellipse cx="39.561" cy="40.9917" rx="3.82812" ry="3.84426" stroke="#262626" stroke-width="3"/>
<ellipse cx="39.5612" cy="48.6802" rx="3.82812" ry="3.84426" stroke="#262626" stroke-width="3"/>
<path d="M43.6874 32.7539H50.2499" stroke="#262626" stroke-width="3" stroke-linecap="round"/>
<path d="M46.9687 29.459L46.9687 36.0491" stroke="#262626" stroke-width="3" stroke-linecap="round"/>
<path d="M83.7499 21.2214C83.7499 28.5882 77.8048 34.5493 70.4843 34.5493C63.1639 34.5493 57.2187 28.5882 57.2187 21.2214C57.2187 13.8547 63.1639 7.89355 70.4843 7.89355C77.8048 7.89355 83.7499 13.8547 83.7499 21.2214Z" stroke="#262626" stroke-width="3"/>
<path d="M85.2499 52.1278V52.1278C85.2499 45.0676 79.5266 39.3442 72.4664 39.3442H68.899C61.6197 39.3442 55.7187 45.2453 55.7187 52.5246V52.5246" stroke="#262626" stroke-width="3"/>
<path d="M46.9688 22.8689V8C46.9688 4.68629 49.655 2 52.9688 2H88C91.3137 2 94 4.68629 94 8V31.1475C94 34.4612 91.3137 37.1475 88 37.1475H85.3363" stroke="#262626" stroke-width="3" stroke-linecap="round"/>
<line x1="24" y1="59.8115" x2="50.25" y2="59.8115" stroke="#262626" stroke-width="3"/>
<path d="M91.8126 69V55.4263C91.8126 53.2171 90.0217 51.4263 87.8126 51.4263H53.1563C50.9472 51.4263 49.1563 53.2171 49.1563 55.4263V61.3115" stroke="#262626" stroke-width="3"/>
</svg>
