<svg width="96" height="96" viewBox="0 0 96 96" fill="none" xmlns="http://www.w3.org/2000/svg">
<rect x="16" y="36" width="64" height="24" fill="rgb(204 241 214)"/>
<rect x="60" y="16" width="64" height="24" transform="rotate(90 60 16)" fill="rgb(204 241 214)"/>
<path d="M22.5 70.5C29.8947 70.5 36.756 74.2002 43.0858 82C36.756 89.7998 29.8947 93.5 22.5 93.5C15.1053 93.5 8.24399 89.7998 1.91415 82C8.24399 74.2002 15.1053 70.5 22.5 70.5Z" stroke="#262626" stroke-width="3"/>
<path d="M30.4565 82C30.4565 86.1436 26.9491 89.6 22.5 89.6C18.0509 89.6 14.5435 86.1436 14.5435 82C14.5435 77.8565 18.0509 74.4 22.5 74.4C26.9491 74.4 30.4565 77.8565 30.4565 82Z" stroke="#262626" stroke-width="3"/>
<line x1="67.5" y1="18.0737" x2="74.1923" y2="18.0737" stroke="#262626" stroke-width="3" stroke-linecap="round"/>
<line x1="68.5769" y1="13.6801" x2="73.1154" y2="13.6801" stroke="#262626" stroke-width="3" stroke-linecap="round"/>
<path d="M83.8847 21.2212C83.8847 28.61 78.0194 34.5491 70.8462 34.5491C63.673 34.5491 57.8077 28.61 57.8077 21.2212C57.8077 13.8324 63.673 7.89331 70.8462 7.89331C78.0194 7.89331 83.8847 13.8324 83.8847 21.2212Z" stroke="#262626" stroke-width="3"/>
<path d="M85.3847 52.0288V52.0288C85.3847 45.0235 79.7057 39.3445 72.7003 39.3445H69.4881C62.2088 39.3445 56.3077 45.2455 56.3077 52.5248V52.5248" stroke="#262626" stroke-width="3"/>
<path d="M91.8462 69.0002V55.7341C91.8462 53.355 89.9176 51.4264 87.5385 51.4264H55.2308C52.8517 51.4264 50.9231 53.355 50.9231 55.7341V62.41" stroke="#262626" stroke-width="3"/>
<path d="M31.5836 41.5789L32.3311 34.9501L38.1097 37.5099C40.7629 38.6851 41.8303 41.9765 40.3714 44.5172C39.5392 45.9664 37.9933 46.8765 36.3385 46.8876C33.4969 46.9066 31.264 44.4136 31.5836 41.5789Z" stroke="#262626" stroke-width="3"/>
<path d="M28.7307 53.5923C28.7307 52.6178 29.5207 51.8278 30.4952 51.8278H43.3508C44.3253 51.8278 45.1153 52.6177 45.1153 53.5923V60.9097H28.7307V53.5923Z" stroke="#262626" stroke-width="3"/>
<path d="M36.923 52.5245L36.923 47.0327" stroke="#262626" stroke-width="3"/>
<path d="M56.2226 37.1475H54.1538C50.5852 37.1475 47.6923 34.2546 47.6923 30.686V8.46154C47.6923 4.89293 50.5852 2 54.1538 2H87.5384C91.107 2 94 4.89293 94 8.46154V30.686C94 34.2546 91.107 37.1475 87.5384 37.1475H85.4696" stroke="#262626" stroke-width="3" stroke-linecap="round"/>
<line x1="24" y1="60.9102" x2="49.8462" y2="60.9102" stroke="#262626" stroke-width="3"/>
</svg>
