<svg width="96" height="96" viewBox="0 0 96 96" fill="none" xmlns="http://www.w3.org/2000/svg">
<rect x="16" y="36" width="64" height="24" fill="rgb(204 226 240)"/>
<rect x="60" y="16" width="64" height="24" transform="rotate(90 60 16)" fill="rgb(204 226 240)"/>
<path d="M22.5 70.5C29.8947 70.5 36.756 74.2002 43.0858 82C36.756 89.7998 29.8947 93.5 22.5 93.5C15.1053 93.5 8.24399 89.7998 1.91415 82C8.24399 74.2002 15.1053 70.5 22.5 70.5Z" stroke="#262626" stroke-width="3"/>
<path d="M30.4565 82C30.4565 86.1436 26.9491 89.6 22.5 89.6C18.0509 89.6 14.5435 86.1436 14.5435 82C14.5435 77.8565 18.0509 74.4 22.5 74.4C26.9491 74.4 30.4565 77.8565 30.4565 82Z" stroke="#262626" stroke-width="3"/>
<circle cx="76.8899" cy="21.11" r="10.89" stroke="#262626" stroke-width="3"/>
<path d="M84.5599 45.0159V43.5301C84.5599 39.2941 81.1259 35.8601 76.8899 35.8601V35.8601C72.6539 35.8601 69.2199 39.2941 69.2199 43.5301V45.3001" stroke="#262626" stroke-width="3"/>
<path d="M92.8199 63.0001V48.8401C92.8199 46.2333 90.7066 44.1201 88.0999 44.1201H47.3899C44.7831 44.1201 42.6699 46.2333 42.6699 48.8401V63.0001" stroke="#262626" stroke-width="3"/>
<path d="M43.2599 19.34V11.08C43.2599 7.16983 46.4298 4 50.3399 4H86.9199C90.8301 4 94 7.16982 94 11.08V31.2642C94 33.8024 91.9423 35.86 89.4042 35.86V35.86" stroke="#262626" stroke-width="3" stroke-linecap="round"/>
<circle cx="73.35" cy="21.11" r="1.77" fill="currentColor"/>
<circle cx="80.4299" cy="21.11" r="1.77" fill="currentColor"/>
<mask id="path-11-inside-1_1_2592" fill="white">
<path fill-rule="evenodd" clip-rule="evenodd" d="M38.54 28.1112C38.54 29.7131 39.286 31.1469 40.4611 32.1065C40.2179 32.977 40.0881 33.8925 40.0881 34.8373C40.0881 40.6157 44.9419 45.3 50.9293 45.3C56.9167 45.3 61.7705 40.6157 61.7705 34.8373C61.7705 33.8928 61.6408 32.9776 61.3977 32.1073C62.5734 31.1477 63.3199 29.7136 63.3199 28.1112C63.3199 25.222 60.893 22.8799 57.8993 22.8799C56.2391 22.8799 54.7533 23.6002 53.759 24.7346C52.8569 24.4998 51.9082 24.3746 50.9293 24.3746C49.9507 24.3746 49.0024 24.4997 48.1007 24.7343C47.1063 23.6 45.6206 22.8799 43.9606 22.8799C40.9669 22.8799 38.54 25.222 38.54 28.1112Z"/>
</mask>
<path d="M40.4611 32.1065L43.3504 32.9138L43.8784 31.024L42.3587 29.7829L40.4611 32.1065ZM61.3977 32.1073L59.5007 29.7832L57.9804 31.0242L58.5083 32.9144L61.3977 32.1073ZM53.759 24.7346L53.0034 27.6379L54.7948 28.1041L56.015 26.712L53.759 24.7346ZM48.1007 24.7343L45.8448 26.7119L47.0648 28.1036L48.8559 27.6377L48.1007 24.7343ZM42.3587 29.7829C41.8338 29.3542 41.54 28.7528 41.54 28.1112H35.54C35.54 30.6735 36.7383 32.9395 38.5635 34.4301L42.3587 29.7829ZM43.0881 34.8373C43.0881 34.1686 43.1798 33.5246 43.3504 32.9138L37.5718 31.2992C37.2559 32.4295 37.0881 33.6165 37.0881 34.8373H43.0881ZM50.9293 42.3C46.4974 42.3 43.0881 38.8592 43.0881 34.8373H37.0881C37.0881 42.3721 43.3864 48.3 50.9293 48.3V42.3ZM58.7705 34.8373C58.7705 38.8592 55.3612 42.3 50.9293 42.3V48.3C58.4722 48.3 64.7705 42.3721 64.7705 34.8373H58.7705ZM58.5083 32.9144C58.6789 33.525 58.7705 34.1688 58.7705 34.8373H64.7705C64.7705 33.6169 64.6027 32.4303 64.2871 31.3003L58.5083 32.9144ZM60.3199 28.1112C60.3199 28.753 60.0259 29.3546 59.5007 29.7832L63.2947 34.4314C65.1209 32.9409 66.3199 30.6742 66.3199 28.1112H60.3199ZM57.8993 25.8799C59.3375 25.8799 60.3199 26.9785 60.3199 28.1112H66.3199C66.3199 23.4656 62.4485 19.8799 57.8993 19.8799V25.8799ZM56.015 26.712C56.4503 26.2153 57.1193 25.8799 57.8993 25.8799V19.8799C55.3589 19.8799 53.0562 20.985 51.5029 22.7571L56.015 26.712ZM50.9293 27.3746C51.6516 27.3746 52.3464 27.4669 53.0034 27.6379L54.5145 21.8313C53.3674 21.5327 52.1649 21.3746 50.9293 21.3746V27.3746ZM48.8559 27.6377C49.5127 27.4668 50.2073 27.3746 50.9293 27.3746V21.3746C49.6942 21.3746 48.4921 21.5326 47.3454 21.8309L48.8559 27.6377ZM43.9606 25.8799C44.7405 25.8799 45.4094 26.2153 45.8448 26.7119L50.3566 22.7567C48.8033 20.9848 46.5007 19.8799 43.9606 19.8799V25.8799ZM41.54 28.1112C41.54 26.9785 42.5223 25.8799 43.9606 25.8799V19.8799C39.4114 19.8799 35.54 23.4656 35.54 28.1112H41.54Z" fill="currentColor" mask="url(#path-11-inside-1_1_2592)"/>
<mask id="path-13-inside-2_1_2592" fill="white">
<ellipse cx="50.9422" cy="35.27" rx="1.78234" ry="1.77"/>
</mask>
<ellipse cx="50.9422" cy="35.27" rx="1.78234" ry="1.77" fill="currentColor"/>
<path d="M49.7246 35.27C49.7246 34.5711 50.2894 34.04 50.9422 34.04V40.04C53.5638 40.04 55.7246 37.924 55.7246 35.27H49.7246ZM50.9422 34.04C51.5951 34.04 52.1599 34.5711 52.1599 35.27H46.1599C46.1599 37.924 48.3207 40.04 50.9422 40.04V34.04ZM52.1599 35.27C52.1599 35.9689 51.5951 36.5 50.9422 36.5V30.5C48.3207 30.5 46.1599 32.616 46.1599 35.27H52.1599ZM50.9422 36.5C50.2894 36.5 49.7246 35.9689 49.7246 35.27H55.7246C55.7246 32.616 53.5638 30.5 50.9422 30.5V36.5Z" fill="currentColor" mask="url(#path-13-inside-2_1_2592)"/>
</svg>
