<svg width="96" height="96" viewBox="0 0 96 96" fill="none" xmlns="http://www.w3.org/2000/svg">
<g clip-path="url(#clip0_1_451)">
<path d="M83.9994 69L84 17L12 69L83.9994 69Z" fill="#CCF1D6"/>
<path d="M9.50049 52C9.50049 46.201 14.2015 41.5 20.0005 41.5H44.0005C49.7995 41.5 54.5005 46.201 54.5005 52V88C54.5005 91.5899 51.5903 94.5 48.0005 94.5H16.0005C12.4106 94.5 9.50049 91.5899 9.50049 88V52Z" stroke="#262626" stroke-width="3"/>
<path d="M22.8342 40C22.8342 36.4101 25.7444 33.5 29.3342 33.5H34.6676C38.2574 33.5 41.1676 36.4102 41.1676 40V41.1667H22.8342V40Z" stroke="#262626" stroke-width="3"/>
<path d="M1.5 68C1.5 66.6193 2.61929 65.5 4 65.5H9.5V86.5H8C4.41015 86.5 1.5 83.5899 1.5 80V68Z" stroke="#262626" stroke-width="3"/>
<path d="M62.5 68C62.5 66.6193 61.3807 65.5 60 65.5H54.5V86.5H56C59.5899 86.5 62.5 83.5899 62.5 80V68Z" stroke="#262626" stroke-width="3"/>
<path d="M17.5005 70C17.5005 68.6193 18.6198 67.5 20.0005 67.5H44.0005C45.3812 67.5 46.5005 68.6193 46.5005 70V84C46.5005 85.3807 45.3812 86.5 44.0005 86.5H20.0005C18.6198 86.5 17.5005 85.3807 17.5005 84V70Z" stroke="#262626" stroke-width="3"/>
<line x1="22.5" y1="56.5" x2="41.5" y2="56.5" stroke="#262626" stroke-width="3" stroke-linecap="round"/>
<path d="M94 1.5C94.2761 1.5 94.5 1.72386 94.5 2L94.5 58C94.5 58.2761 94.2761 58.5 94 58.5L76.5 58.5L76.5 1.49999L94 1.5Z" stroke="#262626" stroke-width="3"/>
<path d="M95 12.5L86 12.5" stroke="#262626" stroke-width="3"/>
<path d="M95 21L89 21" stroke="#262626" stroke-width="3"/>
<path d="M95 29.5L86 29.5" stroke="#262626" stroke-width="3"/>
<path d="M95 38L89 38" stroke="#262626" stroke-width="3"/>
<path d="M95 46.5L86 46.5" stroke="#262626" stroke-width="3"/>
</g>
<defs>
<clipPath id="clip0_1_451">
<rect width="96" height="96" fill="white"/>
</clipPath>
</defs>
</svg>
