<svg xmlns="http://www.w3.org/2000/svg" width="96" height="96" fill="none" viewBox="0 0 96 96" aria-hidden="true" focusable="false">
  <path fill="#D8F9FF" d="M26 29h64V17H26v12ZM14 57h64V45H14v12ZM0 84h64V72H0v12Z"/>
  <path stroke="#262626" stroke-linecap="round" stroke-linejoin="round" stroke-width="3" d="m10.4 13.6 1.4 2.2 6.7-4.7m5.9 22.2 1.4 2.2 6.7-4.7"/>
  <path stroke="#262626" stroke-linecap="round" stroke-width="3" d="M25 14h6M10 24h6m-6 10h6m9-10h6m8 0h6m-6-10h6"/>
  <path stroke="#262626" stroke-width="3" d="M52 2H4a2 2 0 0 0-2 2v38c0 1.1.9 2 2 2h48a2 2 0 0 0 2-2V4a2 2 0 0 0-2-2Zm-1.5 60.3c.3-1 1.3-1.8 2.4-1.8h37.9c1.6 0 2.8 1.6 2.4 3.2l-7.7 28c-.3 1-1.3 1.8-2.4 1.8H45.2a2.5 2.5 0 0 1-2.4-3.2l7.7-28Z"/>
  <path stroke="#262626" stroke-linejoin="round" stroke-width="3" d="m48.8 70 18.1 8.7L91.1 70"/>
</svg>
