<svg width="96" height="96" viewBox="0 0 96 96" fill="none" xmlns="http://www.w3.org/2000/svg">
<g clip-path="url(#clip0_1_1553)">
<circle cx="48" cy="48" r="28" fill="rgb(204 226 240)"/>
<circle cx="58" cy="45" r="10" fill="rgb(204 226 240)"/>
<rect x="28" y="43" width="30" height="4" fill="rgb(204 226 240)"/>
<mask id="path-4-inside-1_1_1553" fill="white">
<rect x="33.1084" y="44.1428" width="65" height="20" rx="2" transform="rotate(15 33.1084 44.1428)"/>
</mask>
<rect x="33.1084" y="44.1428" width="65" height="20" rx="2" transform="rotate(15 33.1084 44.1428)" stroke="#262626" stroke-width="6" mask="url(#path-4-inside-1_1_1553)"/>
<path d="M34.255 46.0029C36.5745 40.2095 42.9121 36.9345 49.0901 38.5899L84.8293 48.1662C91.0073 49.8216 94.8583 55.8266 93.9703 62.0036L34.255 46.0029Z" stroke="#262626" stroke-width="3"/>
<line x1="26.3882" y1="61.4948" x2="93.0371" y2="79.3533" stroke="#262626" stroke-width="3"/>
<line x1="40.0847" y1="54.812" x2="48.778" y2="57.1414" stroke="#262626" stroke-width="3" stroke-linecap="round"/>
<line x1="75.8239" y1="64.3883" x2="84.5173" y2="66.7177" stroke="#262626" stroke-width="3" stroke-linecap="round"/>
<path d="M0 62L95.3759 86.5478" stroke="#262626" stroke-width="3"/>
<line x1="1.5" y1="11" x2="1.5" y2="96" stroke="#262626" stroke-width="3"/>
<path d="M15.134 14.7599L15.134 14.7599L27.6701 22.5658L28.2372 22.9189L28.8791 22.7336L36.6954 20.477L36.6956 20.477C39.1458 19.7692 41.9044 20.5308 43.9406 22.6359C44.6515 23.3709 44.6536 24.5322 44.1202 25.159C43.955 25.3531 43.7554 25.4782 43.5466 25.5385L20.4163 32.2193C17.9677 32.9266 15.3471 32.2683 13.29 30.5394L12.6777 30.0249L11.9093 30.2465L9.91755 30.8208L9.84788 30.5761L10.4179 30.4118L12.3048 29.8679L11.2837 28.1905C11.1808 28.0216 11.0823 27.8484 10.9883 27.671L9.07188 23.3742L11.4995 22.673C11.8825 22.5623 12.3692 22.6525 12.7884 23.0456L12.8895 23.1405L13.0063 23.2152L16.8547 25.6766L17.429 26.0439L18.0834 25.8528L18.5432 25.7185L20.8509 25.0444L19.2311 23.268L12.1853 15.541L13.2512 14.8049C13.8155 14.4152 14.5526 14.3978 15.134 14.7599Z" stroke="#262626" stroke-width="3"/>
</g>
<defs>
<clipPath id="clip0_1_1553">
<rect width="96" height="96" fill="white"/>
</clipPath>
</defs>
</svg>
