<svg width="65" height="65" viewBox="0 0 65 65" fill="none" xmlns="http://www.w3.org/2000/svg">
<g clip-path="url(#clip0_1_1675)">
<path d="M50.1114 26.5034C50.1114 20.3532 45.3999 15.3676 39.588 15.3676C36.643 15.3676 33.9805 16.6478 32.0723 18.7109C30.1622 16.6478 27.4997 15.3676 24.5546 15.3676C18.7427 15.3676 14.0312 20.3532 14.0312 26.5034C14.0312 29.6207 15.2417 32.4388 17.1922 34.4601L17.0379 34.4576L32.0713 48.7751L47.1047 34.4576L46.9504 34.4601C48.901 32.4388 50.1114 29.6207 50.1114 26.5034Z" fill="#CCF1D6"/>
<circle cx="56.1252" cy="26.0579" r="7.01559" stroke="#262626" stroke-width="2.00445"/>
<path fill-rule="evenodd" clip-rule="evenodd" d="M45.8357 49.4432C43.8014 49.4432 42.6988 51.9982 43.9771 53.6511L44.1054 53.817L48.1072 58.1292L52.109 53.817L52.2374 53.6511C53.5157 51.9982 52.4131 49.4432 50.3787 49.4432C49.7755 49.4432 49.1928 49.7023 48.7688 50.1593L48.1072 50.8721L47.4457 50.1593C47.0217 49.7023 46.4389 49.4432 45.8357 49.4432Z" fill="#262626"/>
<path d="M49.6863 62.8733H48.593C43.4062 62.4333 38.7529 58.291 38.7529 53.2941C38.7529 48.2972 42.8175 44.194 48.0043 43.754V43.715C48.0043 39.8674 51.3178 36.7483 55.4053 36.7483C59.4928 36.7483 62.8064 39.8674 62.8064 43.715V64.1425" stroke="#262626" stroke-width="2.00445"/>
<mask id="path-5-inside-1_1_1675" fill="white">
<rect y="4.00879" width="32.0713" height="28.0624" rx="1.3363"/>
</mask>
<rect y="4.00879" width="32.0713" height="28.0624" rx="1.3363" stroke="#262626" stroke-width="4.00891" mask="url(#path-5-inside-1_1_1675)"/>
<line x1="1.33643" y1="15.0333" x2="30.7351" y2="15.0333" stroke="#262626" stroke-width="2.00445"/>
<path d="M9.35449 1.3363L9.35449 9.35412" stroke="#262626" stroke-width="2.00445" stroke-linecap="round"/>
<path d="M9.35449 20.0444L6.68189 20.0444" stroke="#262626" stroke-width="2.00445" stroke-linecap="round"/>
<path d="M9.35449 25.3898L6.68189 25.3898" stroke="#262626" stroke-width="2.00445" stroke-linecap="round"/>
<path d="M17.3716 20.0444L14.699 20.0444" stroke="#262626" stroke-width="2.00445" stroke-linecap="round"/>
<path d="M17.3716 25.3898L14.699 25.3898" stroke="#262626" stroke-width="2.00445" stroke-linecap="round"/>
<path d="M25.3896 20.0444L22.717 20.0444" stroke="#262626" stroke-width="2.00445" stroke-linecap="round"/>
<path d="M25.3896 25.3898L22.717 25.3898" stroke="#262626" stroke-width="2.00445" stroke-linecap="round"/>
<path d="M22.7173 1.3363L22.7173 9.35412" stroke="#262626" stroke-width="2.00445" stroke-linecap="round"/>
</g>
<defs>
<clipPath id="clip0_1_1675">
<rect width="64.1425" height="64.1425" fill="white"/>
</clipPath>
</defs>
</svg>
