<svg aria-hidden="true" focusable="false" xmlns="http://www.w3.org/2000/svg" width="97" height="97" fill="none" viewBox="0 0 97 97">
  <path fill="rgb(204 241 214)" d="M74 39.33C74 30.31 67.08 23 58.54 23a15 15 0 0 0-11.04 4.9A15.02 15.02 0 0 0 36.46 23C27.92 23 21 30.31 21 39.33c0 4.58 1.78 8.7 4.64 11.67h-.22L47.5 72l22.08-21h-.22A16.75 16.75 0 0 0 74 39.33Z"/>
  <path fill="#000" fill-rule="evenodd" d="M69.6 74c-3.04 0-4.7 3.82-2.78 6.3l.2.25L73 87l5.99-6.45.2-.25c1.9-2.48.25-6.3-2.79-6.3-.9 0-1.78.39-2.41 1.07L73 76.14l-.99-1.07A3.3 3.3 0 0 0 69.6 74Z" clip-rule="evenodd"/>
  <path stroke="#262626" stroke-width="3" d="M84.5 50a10.5 10.5 0 1 0 0-21 10.5 10.5 0 0 0 0 21Zm-9.36 43.62h-1.62C65.87 92.97 59 86.85 59 79.46c0-7.39 6-13.45 13.65-14.1v-.06c0-5.69 4.9-10.3 10.93-10.3 6.03 0 10.92 4.61 10.92 10.3v30.2M44.17 8H3.83C2.83 8 2 8.81 2 9.81v34.38c0 1 .82 1.81 1.83 1.81h40.34c1 0 1.83-.81 1.83-1.8V9.8c0-1-.82-1.81-1.83-1.81ZM3 22h43.42"/>
  <path stroke="#262626" stroke-linecap="round" stroke-width="3" d="M14.5 2.5v12M15 30h-4m4 8h-4m15-8h-4m4 8h-4m16-8h-4m4 8h-4m-.5-35.5v12"/>
</svg>
