<svg xmlns="http://www.w3.org/2000/svg" width="98" height="96" fill="none" viewBox="0 0 98 96">
  <path fill="#CCF1D6" d="M45.2 13H59L33.8 77H20l25.2-64Z"/>
  <path fill="#CCF1D6" d="M34 51h37v14H34z"/>
  <path fill="#CCF1D6" d="M45 13h13.9L82 77H68.1L45 13Z"/>
  <path stroke="#262626" stroke-linejoin="round" stroke-width="3" d="M96 23.9 78.8 3.5a4 4 0 0 0-6.2 5.2l7.3 8.5L59 2.7a4.1 4.1 0 0 0-4.6 6.8l12.3 8.1-17.4-6.1a4 4 0 1 0-2.2 7.7l15.7 5.1-11.4 2c-1 .2-1.7.9-2 1.8l-4.1 15.7A4 4 0 1 0 53 46l2.8-11a2 2 0 0 1 2-1.4h8.7c.4 0 .8.1 1.1.4l4 4a4.6 4.6 0 0 1-3.2 7.9h-6.7a4.1 4.1 0 0 0 0 8.2h14.7c2 0 4-.3 6-1L96 48.5"/>
  <path stroke="#262626" stroke-width="3" d="M25.2 82.8H37c3.2 0 5.8-2.5 5.8-5.6 0-3-2.6-5.6-5.8-5.6H23.8A12 12 0 0 0 13.6 66C7.2 66 2 71 2 77.2V94h40c.4 0 1 0 1.4-.3l24-9.5a5.2 5.2 0 0 0-2.8-9.9l-22 4.1"/>
</svg>
