<svg width="96" height="96" viewBox="0 0 96 96" fill="none" xmlns="http://www.w3.org/2000/svg">
<g clip-path="url(#clip0_1_2567)">
<path d="M44.2353 13H58L32.7647 77H19L44.2353 13Z" fill="#CCF1D6"/>
<rect x="33" y="51" width="37" height="14" fill="#CCF1D6"/>
<path d="M44 13H57.875L81 77H67.125L44 13Z" fill="#CCF1D6"/>
<path d="M95 23.8917L77.8178 3.48405C76.3668 1.78542 73.814 1.58501 72.1159 3.03642C70.4398 4.46901 70.2195 6.98049 71.6206 8.68313L78.9243 17.22L57.9145 2.69335C56.0257 1.43141 53.4719 1.94001 52.2103 3.82934C50.9642 5.6956 51.4433 8.21655 53.2871 9.49518L65.6206 17.6477L48.2283 11.5011C46.0503 10.7963 43.7297 12.0614 43.1373 14.2732C42.5656 16.4075 43.8318 18.6013 45.9654 19.1731L61.6515 24.3194L50.2592 26.2884C49.3388 26.4978 48.6099 27.1996 48.3656 28.1116L44.1563 43.8256C43.5713 46.0094 44.8669 48.254 47.05 48.8391C49.2422 49.4267 51.4937 48.1174 52.0681 45.9211L54.9476 34.9101C55.1692 34.0627 55.9346 33.4716 56.8103 33.4716H65.6206C66.0357 33.4716 66.4339 33.6366 66.7274 33.9302L70.7805 37.9845C72.1715 39.3759 72.5163 41.5015 71.6366 43.2615C70.8624 44.8103 69.2799 45.7886 67.5489 45.7886H60.7964C58.5296 45.7886 56.692 47.6268 56.692 49.8943C56.692 52.1618 58.5296 54 60.7964 54H75.5259C77.5502 54 79.5613 53.6735 81.4818 53.0332L95 48.5258" stroke="#262626" stroke-width="3" stroke-linejoin="round"/>
<path d="M24.2393 82.8H35.8589C39.0676 82.8 41.6687 80.2928 41.6687 77.2C41.6687 74.1072 39.0676 71.6 35.8589 71.6H22.7868C20.7777 68.2523 16.9205 66 12.6196 66C6.20229 66 1 71.0144 1 77.2V94H40.9076C41.4105 94 41.9089 93.9052 42.3767 93.7205L66.4104 84.2304C69.6688 82.9438 70.7311 78.8574 68.5118 76.1468V76.1468C67.3157 74.6859 65.4183 73.9933 63.5623 74.3401L41.5922 78.4444" stroke="#262626" stroke-width="3"/>
</g>
<defs>
<clipPath id="clip0_1_2567">
<rect width="96" height="96" fill="white"/>
</clipPath>
</defs>
</svg>
