<svg width="96" height="96" viewBox="0 0 96 96" fill="none" aria-hidden="true" focusable="false" xmlns="http://www.w3.org/2000/svg">
<g clip-path="url(#clip0_1_1933)">
<path d="M61.1189 47.757L61.1189 83H34.8811V47.757H20L48 8L76 47.757H61.1189Z" fill="rgb(204 241 214)"/>
<line x1="48.5001" y1="96.0197" x2="47.5001" y2="20.0197" stroke="#262626" stroke-width="3"/>
<path d="M48 52L35 40" stroke="#262626" stroke-width="3"/>
<path d="M48 38L60 26" stroke="#262626" stroke-width="3"/>
<mask id="path-5-inside-1_1_1933" fill="white">
<path fill-rule="evenodd" clip-rule="evenodd" d="M70.1856 23.2618C70.1952 22.9907 70.2001 22.7183 70.2001 22.4449C70.2001 10.0489 60.2608 0 48.0001 0C35.7393 0 25.8001 10.0489 25.8001 22.4449C25.8001 22.7183 25.8049 22.9906 25.8145 23.2617C17.255 25.7529 11 33.6555 11 43.019C11 54.382 20.2115 63.5935 31.5745 63.5935H64.4255C75.7885 63.5935 85 54.382 85 43.019C85 33.6555 78.7451 25.753 70.1856 23.2618Z"/>
</mask>
<path d="M70.1856 23.2618L67.1875 23.1557L67.1049 25.4896L69.3473 26.1422L70.1856 23.2618ZM25.8145 23.2617L26.6528 26.1422L28.8952 25.4896L28.8126 23.1556L25.8145 23.2617ZM67.2001 22.4449C67.2001 22.6829 67.1958 22.9199 67.1875 23.1557L73.1838 23.3679C73.1946 23.0614 73.2001 22.7537 73.2001 22.4449H67.2001ZM48.0001 3C58.573 3 67.2001 11.6746 67.2001 22.4449H73.2001C73.2001 8.42316 61.9486 -3 48.0001 -3V3ZM28.8001 22.4449C28.8001 11.6746 37.4271 3 48.0001 3V-3C34.0515 -3 22.8001 8.42316 22.8001 22.4449H28.8001ZM28.8126 23.1556C28.8043 22.9199 28.8001 22.6829 28.8001 22.4449H22.8001C22.8001 22.7537 22.8055 23.0614 22.8164 23.3678L28.8126 23.1556ZM14 43.019C14 35.0252 19.3395 28.2707 26.6528 26.1422L24.9761 20.3813C15.1705 23.2351 8 32.2858 8 43.019H14ZM31.5745 60.5935C21.8684 60.5935 14 52.7251 14 43.019H8C8 56.0388 18.5546 66.5935 31.5745 66.5935V60.5935ZM64.4255 60.5935H31.5745V66.5935H64.4255V60.5935ZM82 43.019C82 52.7251 74.1317 60.5935 64.4255 60.5935V66.5935C77.4454 66.5935 88 56.0388 88 43.019H82ZM69.3473 26.1422C76.6605 28.2707 82 35.0252 82 43.019H88C88 32.2858 80.8296 23.2352 71.024 20.3813L69.3473 26.1422Z" fill="currentColor" mask="url(#path-5-inside-1_1_1933)"/>
<line x1="39.5" y1="69.5" x2="39.5" y2="94.5" stroke="#262626" stroke-width="3" stroke-linecap="round"/>
<line x1="57.5" y1="69.5" x2="57.5" y2="94.5" stroke="#262626" stroke-width="3" stroke-linecap="round"/>
<line x1="35.5" y1="75.5" x2="60.5" y2="75.5" stroke="#262626" stroke-width="3" stroke-linecap="round"/>
</g>
<defs>
<clipPath id="clip0_1_1933">
<rect width="96" height="96" fill="white"/>
</clipPath>
</defs>
</svg>
