<svg xmlns="http://www.w3.org/2000/svg" width="64" height="64" fill="none" viewBox="0 0 64 64">
  <circle cx="32.67" cy="30.67" r="18.67" fill="#CCE2F0"/>
  <path fill="#CCE2F0" d="M30 21.33h2.67v24l-1.34 4-1.33-4v-24Z"/>
  <path stroke="#262626" stroke-linejoin="round" stroke-width="2" d="M1.33 6h28v26.44h-28z"/>
  <path stroke="#262626" stroke-width="2" d="M1.33 13.78h28"/>
  <path stroke="#262626" stroke-linecap="round" stroke-width="2" d="M9.11 1.33v7.78m12.45-7.78v7.78"/>
  <path stroke="#262626" stroke-width="2" d="M59.67 45.81V41c0-.92-.75-1.67-1.67-1.67H33c-.92 0-1.67.75-1.67 1.67v20c0 .92.75 1.67 1.67 1.67h25c.92 0 1.67-.75 1.67-1.67v-5.39"/>
  <path stroke="#262626" stroke-width="2" d="M48 51a5 5 0 0 1 5-5h8.33c.92 0 1.67.75 1.67 1.67v6.66c0 .92-.75 1.67-1.67 1.67H53a5 5 0 0 1-5-5Z"/>
  <path stroke="#262626" stroke-linecap="round" stroke-width="2" d="M52.17 51H53"/>
</svg>
