<svg width="96" height="96" viewBox="0 0 96 96" fill="none" xmlns="http://www.w3.org/2000/svg">
<g clip-path="url(#clip0_1_2149)">
<rect x="46" width="4" height="12" fill="#CCF1D6"/>
<rect x="46" y="84" width="4" height="12" fill="#CCF1D6"/>
<rect x="12" y="46" width="4" height="12" transform="rotate(90 12 46)" fill="#CCF1D6"/>
<rect x="96" y="46" width="4" height="12" transform="rotate(90 96 46)" fill="#CCF1D6"/>
<rect x="31.5303" y="80.0742" width="4" height="12" transform="rotate(24 31.5303 80.0742)" fill="#CCF1D6"/>
<rect x="65.6963" y="3.33643" width="4" height="12" transform="rotate(24 65.6963 3.33643)" fill="#CCF1D6"/>
<rect x="20.7144" y="71.5688" width="4" height="12" transform="rotate(46 20.7144 71.5688)" fill="#CCF1D6"/>
<rect x="81.1392" y="13.2178" width="4" height="12" transform="rotate(46 81.1392 13.2178)" fill="#CCF1D6"/>
<rect x="13.8721" y="59.6313" width="4" height="12" transform="rotate(68 13.8721 59.6313)" fill="#CCF1D6"/>
<rect x="91.7556" y="28.1646" width="4" height="12" transform="rotate(68 91.7556 28.1646)" fill="#CCF1D6"/>
<rect x="15.5894" y="31.5303" width="4" height="12" transform="rotate(114 15.5894 31.5303)" fill="#CCF1D6"/>
<rect x="92.3271" y="65.6963" width="4" height="12" transform="rotate(114 92.3271 65.6963)" fill="#CCF1D6"/>
<rect x="24.0947" y="20.7148" width="4" height="12" transform="rotate(136 24.0947 20.7148)" fill="#CCF1D6"/>
<rect x="82.446" y="81.1392" width="4" height="12" transform="rotate(136 82.446 81.1392)" fill="#CCF1D6"/>
<rect x="36.0322" y="13.8726" width="4" height="12" transform="rotate(158 36.0322 13.8726)" fill="#CCF1D6"/>
<rect x="67.4995" y="91.7559" width="4" height="12" transform="rotate(158 67.4995 91.7559)" fill="#CCF1D6"/>
<circle cx="47" cy="47" r="26" fill="#CCF1D6"/>
<path d="M58.0419 17.2721C56.3037 10.7848 60.554 4.00944 67.5352 2.13881C74.5165 0.268189 81.5851 4.01069 83.3233 10.4979C83.9668 12.8995 83.7896 15.3406 82.9569 17.5577" stroke="#262626" stroke-width="3"/>
<mask id="path-19-inside-1_1_2149" fill="white">
<path fill-rule="evenodd" clip-rule="evenodd" d="M54.7939 18.8C54.508 17.733 55.1412 16.6363 56.2081 16.3505L66.4993 13.5929C77.1687 10.7341 88.1354 17.0657 90.9942 27.7351L95.447 44.3528C96.0187 46.4867 94.7524 48.68 92.6185 49.2518L76.5317 53.5623C70.1301 55.2776 63.5501 51.4786 61.8348 45.077L61.6995 44.5723L48.6349 38.5416L36.5914 40.6537C34.8677 40.8624 33.4871 39.2846 33.9415 37.6255L37.8248 23.4466C38.2792 21.7875 40.2812 21.0963 41.6674 22.1199L51.0773 29.3203L57.7412 29.7995L54.7939 18.8Z"/>
</mask>
<path d="M56.2081 16.3505L55.4316 13.4527L56.2081 16.3505ZM54.7939 18.8L57.6916 18.0235L54.7939 18.8ZM66.4993 13.5929L67.2758 16.4907L66.4993 13.5929ZM90.9942 27.7351L88.0965 28.5115L88.0965 28.5115L90.9942 27.7351ZM61.8348 45.077L64.7326 44.3005L61.8348 45.077ZM61.6995 44.5723L64.5973 43.7958L64.2334 42.4378L62.9569 41.8485L61.6995 44.5723ZM48.6349 38.5416L49.8922 35.8178L49.0405 35.4246L48.1166 35.5867L48.6349 38.5416ZM36.5914 40.6537L36.952 43.632L37.0311 43.6224L37.1096 43.6086L36.5914 40.6537ZM33.9415 37.6255L31.048 36.8331L31.048 36.8331L33.9415 37.6255ZM37.8248 23.4466L34.9313 22.6542L34.9313 22.6542L37.8248 23.4466ZM41.6674 22.1199L43.4904 19.7374L43.4701 19.7219L43.4496 19.7067L41.6674 22.1199ZM51.0773 29.3203L49.2542 31.7028L49.9669 32.2482L50.8621 32.3126L51.0773 29.3203ZM57.7412 29.7995L57.526 32.7918L61.7298 33.0941L60.639 29.0231L57.7412 29.7995ZM55.4316 13.4527C52.7643 14.1674 51.1814 16.9091 51.8961 19.5764L57.6916 18.0235C57.8346 18.557 57.518 19.1053 56.9845 19.2482L55.4316 13.4527ZM65.7229 10.6952L55.4316 13.4527L56.9845 19.2482L67.2758 16.4907L65.7229 10.6952ZM93.892 26.9586C90.6044 14.6889 77.9926 7.40749 65.7229 10.6952L67.2758 16.4907C76.3447 14.0607 85.6664 19.4426 88.0965 28.5115L93.892 26.9586ZM98.3447 43.5764L93.892 26.9586L88.0965 28.5115L92.5492 45.1293L98.3447 43.5764ZM93.395 52.1496C97.1292 51.149 99.3453 47.3106 98.3447 43.5764L92.5492 45.1293C92.6921 45.6628 92.3755 46.2111 91.8421 46.354L93.395 52.1496ZM77.3082 56.46L93.395 52.1496L91.8421 46.354L75.7553 50.6645L77.3082 56.46ZM58.937 45.8534C61.0811 53.8554 69.3062 58.6042 77.3082 56.46L75.7553 50.6645C70.9541 51.951 66.019 49.1017 64.7326 44.3005L58.937 45.8534ZM58.8018 45.3488L58.937 45.8534L64.7326 44.3005L64.5973 43.7958L58.8018 45.3488ZM47.3775 41.2654L60.4422 47.2961L62.9569 41.8485L49.8922 35.8178L47.3775 41.2654ZM48.1166 35.5867L36.0731 37.6988L37.1096 43.6086L49.1531 41.4965L48.1166 35.5867ZM36.2308 37.6755C36.5743 37.6339 36.9566 37.9735 36.8349 38.418L31.048 36.8331C30.0175 40.5958 33.1612 44.0909 36.952 43.632L36.2308 37.6755ZM36.8349 38.418L40.7182 24.2391L34.9313 22.6542L31.048 36.8331L36.8349 38.418ZM40.7182 24.2391C40.6642 24.4361 40.5094 24.5668 40.3757 24.613C40.2423 24.6591 40.0444 24.6508 39.8851 24.5332L43.4496 19.7067C40.3753 17.4363 35.9447 18.9541 34.9313 22.6542L40.7182 24.2391ZM39.8443 24.5025L49.2542 31.7028L52.9003 26.9378L43.4904 19.7374L39.8443 24.5025ZM57.9564 26.8072L51.2924 26.328L50.8621 32.3126L57.526 32.7918L57.9564 26.8072ZM51.8961 19.5764L54.8434 30.576L60.639 29.0231L57.6916 18.0235L51.8961 19.5764Z" fill="#262626" mask="url(#path-19-inside-1_1_2149)"/>
<path d="M23.262 62.9276C23.262 65.1028 22.1334 68.3432 20.5923 71.1291C19.8351 72.498 19.0265 73.6683 18.295 74.473C17.928 74.8767 17.6139 75.1511 17.3687 75.3142C17.2609 75.3859 17.1865 75.4229 17.143 75.4415C17.0995 75.4229 17.0251 75.3859 16.9172 75.3142C16.672 75.1511 16.358 74.8767 15.991 74.473C15.2594 73.6683 14.4508 72.498 13.6936 71.1291C12.1526 68.3432 11.0239 65.1028 11.0239 62.9276C11.0239 58.4427 13.9605 55.5 17.143 55.5C18.8396 55.5 20.3339 56.1558 21.417 57.3558C22.5052 58.5613 23.262 60.4139 23.262 62.9276Z" stroke="#262626" stroke-width="3"/>
<path d="M31.1109 70.8044C28.95 70.8044 25.7265 71.9363 22.9528 73.4839C21.5905 74.2441 20.4256 75.0559 19.6246 75.7905C19.2229 76.1589 18.9495 76.4745 18.7867 76.7213C18.7113 76.8356 18.6741 76.9131 18.6561 76.9567C18.6741 77.0002 18.7113 77.0777 18.7867 77.192C18.9495 77.4389 19.2229 77.7545 19.6246 78.1229C20.4256 78.8574 21.5905 79.6692 22.9528 80.4294C25.7265 81.9771 28.95 83.1089 31.1109 83.1089C35.5606 83.1089 38.4998 80.1687 38.4998 76.9567C38.4998 75.2464 37.8441 73.7426 36.6494 72.6549C35.4501 71.5629 33.6089 70.8044 31.1109 70.8044Z" stroke="#262626" stroke-width="3"/>
<path d="M19.9604 75.0439V75.0439C14.7691 77.372 11.4285 82.5312 11.4285 88.2206L11.4285 92.2615" stroke="#262626" stroke-width="3"/>
<path d="M4.17467e-06 98.0003L4.63537 94.817C8.7281 92.0064 14.1291 92.0064 18.2218 94.817L22.8572 98.0003" stroke="#262626" stroke-width="3"/>
</g>
<defs>
<clipPath id="clip0_1_2149">
<rect width="96" height="96" fill="white"/>
</clipPath>
</defs>
</svg>
