<svg xmlns="http://www.w3.org/2000/svg" width="64" height="64" fill="none" viewBox="0 0 64 64">
  <path fill="#CCE2F0" fill-rule="evenodd" d="M32 40.8a7.3 7.3 0 1 1 0 14.6c-4 0-7.3-3.3-7.3-7.3s3.2-7.3 7.3-7.3Zm0-20.2c-2.7 0-4 1.9-4 3.2H16C16 15 23.6 8.7 32 8.7s16 6.3 16 15c0 4.3-1.8 8.1-4.9 11a8.9 8.9 0 0 1-1 .8l-2.5 1.7a49.5 49.5 0 0 0-1.6 1v.7H26V36c0-2.3 1.2-4 1.8-4.7a13 13 0 0 1 2.1-2c1.2-1 2.5-1.8 3.3-2.3h.1a15.1 15.1 0 0 0 1.7-1.3c.7-.6 1-1.3 1-2 0-1.3-1.3-3.2-4-3.2Z" clip-rule="evenodd"/>
  <path stroke="#262626" stroke-width="2" d="m4.7 7 1.8 2.2 4-4m.9 3.4H19m-7.6 6.1H19m-7.6 6.1H19"/>
  <mask id="a" fill="#fff">
    <rect width="25.3" height="29.3" rx="1.3"/>
  </mask>
  <rect width="25.3" height="29.3" stroke="#262626" stroke-width="4" mask="url(#a)" rx="1.3"/>
  <circle cx="7.7" cy="14.7" r="1.3" fill="#262626"/>
  <circle cx="7.7" cy="20.6" r="1.3" fill="#262626"/>
  <circle cx="39" cy="41" r="13.3" stroke="#262626" stroke-width="2"/>
  <path stroke="#262626" stroke-width="2" d="M48.7 50 62 63.3"/>
</svg>
