<svg width="96" height="96" viewBox="0 0 96 96" fill="none" xmlns="http://www.w3.org/2000/svg">
<path fill-rule="evenodd" clip-rule="evenodd" d="M53.8333 16L56.7213 24.6604C57.1272 24.8146 57.5273 24.9805 57.9212 25.1579L66.0884 21.0762L72.9238 27.9116L68.8421 36.0788C69.0195 36.4727 69.1854 36.8728 69.3396 37.2787L78 40.1667V49.8333L69.3387 52.7237C69.1845 53.1296 69.0184 53.5297 68.841 53.9236L72.9238 62.0884L66.0884 68.9238L57.9236 64.841C57.5297 65.0184 57.1296 65.1845 56.7237 65.3387L53.8333 74H44.1667L41.2787 65.3396C40.8728 65.1854 40.4727 65.0195 40.0788 64.8421L31.9116 68.9238L25.0762 62.0884L29.1579 53.9212C28.9805 53.5273 28.8146 53.1272 28.6604 52.7213L20 49.8333V40.1667L28.6595 37.2811C28.8139 36.8744 28.9802 36.4735 29.1579 36.0788L25.0762 27.9116L31.9116 21.0762L40.0788 25.1579C40.4735 24.9802 40.8744 24.8139 41.2811 24.6595L44.1667 16H53.8333Z" fill="rgb(204 241 214)"/>
<circle cx="50.3637" cy="75.1818" r="8.68182" stroke="#262626" stroke-width="3"/>
<path d="M12.1818 36H7.09091C4.27928 36 2 38.2793 2 41.0909V56.3636C2 63.3927 7.6982 69.0909 14.7273 69.0909V69.0909C21.7564 69.0909 27.4546 63.3927 27.4546 56.3637V41.0909C27.4546 38.2793 25.1753 36 22.3636 36H17.2727" stroke="#262626" stroke-width="3"/>
<path d="M14.7275 67.5454V87.909C14.7275 90.7207 17.0068 93 19.8185 93V93C22.6301 93 24.9094 90.7207 24.9094 87.9091V84.0909C24.9094 79.1705 28.8981 75.1818 33.8185 75.1818H42.7276" stroke="#262626" stroke-width="3"/>
<mask id="path-5-inside-1_1_3437" fill="white">
<path fill-rule="evenodd" clip-rule="evenodd" d="M77.6998 5.91292C85.3774 9.34664 90.7271 17.0516 90.7271 26.006V29.0061L95.114 35.73C96.0301 37.134 95.0226 38.9943 93.3461 38.9943H44.1147C42.3755 38.9943 41.3825 37.009 42.4257 35.6174L46.7271 29.8787V26.006C46.7271 16.776 52.411 8.87364 60.4696 5.60816C60.8802 2.93872 62.9649 0.776496 65.7007 0.32646L66.324 0.223939C68.1391 -0.0746458 69.9909 -0.0746465 71.806 0.223938L72.4293 0.326462C75.2686 0.793504 77.4065 3.10459 77.6998 5.91292Z"/>
</mask>
<path d="M77.6998 5.91292L74.5501 6.24182L74.7397 8.05819L76.4068 8.80379L77.6998 5.91292ZM90.7271 29.0061H87.5602V29.9478L88.0748 30.7365L90.7271 29.0061ZM95.114 35.73L97.7662 33.9995L95.114 35.73ZM42.4257 35.6174L44.9596 37.5167H44.9596L42.4257 35.6174ZM46.7271 29.8787L49.261 31.7781L49.8939 30.9339V29.8787H46.7271ZM60.4696 5.60816L61.6589 8.54317L63.3262 7.86758L63.5996 6.08957L60.4696 5.60816ZM65.7007 0.32646L66.2147 3.45128H66.2147L65.7007 0.32646ZM66.324 0.223939L65.81 -2.90088L66.324 0.223939ZM71.806 0.223938L72.3201 -2.90088L71.806 0.223938ZM72.4293 0.326462L71.9153 3.45128L72.4293 0.326462ZM93.8939 26.006C93.8939 15.7577 87.7686 6.94698 78.9927 3.02205L76.4068 8.80379C82.9862 11.7463 87.5602 18.3454 87.5602 26.006H93.8939ZM93.8939 29.0061V26.006H87.5602V29.0061H93.8939ZM97.7662 33.9995L93.3793 27.2757L88.0748 30.7365L92.4618 37.4604L97.7662 33.9995ZM93.3461 42.1611C97.5377 42.1611 100.057 37.5101 97.7662 33.9995L92.4618 37.4604C92.0035 36.758 92.5075 35.8275 93.3461 35.8275V42.1611ZM44.1147 42.1611H93.3461V35.8275H44.1147V42.1611ZM39.8917 33.718C37.2836 37.1974 39.7664 42.1611 44.1147 42.1611V35.8275C44.9847 35.8275 45.4814 36.8206 44.9596 37.5167L39.8917 33.718ZM44.1931 27.9794L39.8917 33.718L44.9596 37.5167L49.261 31.7781L44.1931 27.9794ZM43.5602 26.006V29.8787H49.8939V26.006H43.5602ZM59.2803 2.67316C50.0676 6.40632 43.5602 15.4424 43.5602 26.006H49.8939C49.8939 18.1096 54.7545 11.341 61.6589 8.54317L59.2803 2.67316ZM63.5996 6.08957C63.8047 4.7565 64.8487 3.67598 66.2147 3.45128L65.1867 -2.79836C61.081 -2.12299 57.9557 1.12094 57.3396 5.12676L63.5996 6.08957ZM66.2147 3.45128L66.838 3.34876L65.81 -2.90088L65.1867 -2.79836L66.2147 3.45128ZM66.838 3.34876C68.3128 3.10617 69.8173 3.10617 71.292 3.34876L72.3201 -2.90088C70.1645 -3.25546 67.9655 -3.25546 65.81 -2.90088L66.838 3.34876ZM71.292 3.34876L71.9153 3.45128L72.9433 -2.79836L72.3201 -2.90088L71.292 3.34876ZM71.9153 3.45128C73.3335 3.68457 74.4037 4.83989 74.5501 6.24182L80.8494 5.58402C80.4093 1.36929 77.2036 -2.09757 72.9433 -2.79836L71.9153 3.45128Z" fill="currentColor" mask="url(#path-5-inside-1_1_3437)"/>
<path d="M62.0554 6.34229L62.0554 19.0077" stroke="#262626" stroke-width="3.16682" stroke-linecap="round"/>
<path d="M75.7271 6.00586L75.727 18.6713" stroke="#262626" stroke-width="3.16682" stroke-linecap="round"/>
</svg>
