<svg xmlns="http://www.w3.org/2000/svg" viewBox="0 0 218 47" width="218" height="47">
  <g fill="none">
    <path fill="#40C1AC" d="M18.24.5 0 46.39h199.76L218 .5z"/>
    <path fill="#062040" d="M28 17.94c1.95 0 3.21.91 4.01 2.18v-1.61c0-.11.12-.23.23-.23h2.07c.11 0 .23.12.23.23v9.06h.91c.23 0 .35.23.23.46l-.57 1.61c0 .11-.12.11-.23.11h-2.52a.24.24 0 0 1-.23-.23v-1.6a4.4 4.4 0 0 1-4.02 2.18c-2.98 0-5.51-2.76-5.51-6.08-.11-3.44 2.41-6.08 5.4-6.08Zm.57 9.75c2.06 0 3.44-1.49 3.44-3.67 0-2.18-1.49-3.67-3.44-3.67-2.07 0-3.44 1.49-3.44 3.67 0 2.18 1.37 3.67 3.44 3.67Zm9.87 1.72v-9.06h-.92c-.23 0-.35-.23-.23-.46l.57-1.61c0-.11.12-.11.23-.11h2.53c.11 0 .23.11.23.23v2.29a5.18 5.18 0 0 1 4.36-2.87c.11 0 .23.12.23.23v2.3c0 .11-.12.23-.23.23-2.99 0-4.36 1.6-4.36 3.67v5.05c0 .11-.12.22-.23.22h-2.07c0 .12-.11 0-.11-.11Zm11.47-1.61v1.61c0 .11-.11.23-.23.23h-2.75c-.23 0-.35-.23-.23-.46l.8-1.95V13.92c0-.11.12-.23.23-.23h2.07c.11 0 .23.12.23.23v6.2a4.39 4.39 0 0 1 4.01-2.18c2.98 0 5.51 2.64 5.51 6.08 0 3.32-2.53 6.08-5.51 6.08a4.94 4.94 0 0 1-4.13-2.3Zm7-3.78c0-2.18-1.49-3.67-3.44-3.67-2.07 0-3.44 1.49-3.44 3.67 0 2.18 1.49 3.67 3.44 3.67 2.06 0 3.44-1.49 3.44-3.67Zm10.33-6.08c2.86 0 5.5 2.18 5.5 5.73v.92c0 .12-.11.23-.23.23h-8.26c.23 1.72 1.26 2.75 2.99 2.75 1.14 0 2.18-.11 2.63-1.03 0-.11.12-.11.23-.11h2.07c.23 0 .34.11.23.34-.57 2.07-2.75 3.1-5.05 3.1-3.21 0-5.62-2.64-5.62-6.08 0-3.21 2.29-5.85 5.51-5.85Zm2.98 4.82c0-1.61-1.15-2.53-2.87-2.53-1.72 0-2.64 1.03-2.98 2.53h5.85Zm4.47-8.27c0-1.03.81-1.95 1.95-1.95a2 2 0 0 1 1.95 1.95 2 2 0 0 1-1.95 1.95c-1.14 0-1.95-.8-1.95-1.95Zm.69 14.92v-10.9c0-.11.12-.23.23-.23h2.07c.11 0 .23.12.23.23v10.9c0 .11-.12.23-.23.23h-2.07c-.11 0-.23-.12-.23-.23Zm10.56-11.47c1.95 0 3.21.91 4.01 2.18v-6.2c0-.11.12-.23.23-.23h2.07c.11 0 .23.12.23.23v13.65h.92c.23 0 .34.23.23.46l-.58 1.61c0 .11-.11.11-.23.11H90.3a.24.24 0 0 1-.23-.23v-1.6a4.4 4.4 0 0 1-4.02 2.18c-2.98 0-5.5-2.64-5.5-6.08s2.4-6.08 5.39-6.08Zm.57 9.75c2.07 0 3.44-1.49 3.44-3.67 0-2.18-1.49-3.67-3.44-3.67-2.06 0-3.44 1.49-3.44 3.67 0 2.18 1.38 3.67 3.44 3.67Zm9.07-.92c0-.11.11-.23.23-.23h2.06c.12 0 .23.12.23.23.23.69 1.38 1.15 2.75 1.15 1.61 0 2.64-.46 2.64-1.38 0-2.64-7.8.12-7.8-4.82 0-2.29 1.84-3.67 4.93-3.67 2.76 0 4.94 1.26 5.05 3.33 0 .11-.11.23-.23.23h-2.18c-.11 0-.23-.12-.23-.23-.23-.8-1.26-1.26-2.52-1.26-1.49 0-2.41.46-2.41 1.49 0 2.41 7.92-.23 7.92 4.82 0 2.18-1.95 3.55-5.17 3.55-2.86 0-5.16-1.26-5.27-3.21Zm19.96 3.21a4.5 4.5 0 0 1-4.02-2.18V34c0 .11-.11.23-.23.23h-2.06c-.12 0-.23-.12-.23-.23V20.35h-.92c-.23 0-.34-.23-.23-.46l.58-1.61c0-.11.11-.11.23-.11h2.63c.12 0 .23.11.23.23V20a4.4 4.4 0 0 1 4.02-2.18c2.98 0 5.51 2.64 5.51 6.08s-2.41 6.08-5.51 6.08Zm-.57-9.75c-2.07 0-3.45 1.49-3.45 3.67 0 2.18 1.5 3.67 3.45 3.67 2.06 0 3.44-1.49 3.44-3.67a3.38 3.38 0 0 0-3.44-3.67Zm8.72 9.18V13.92c0-.11.11-.23.23-.23h2.06c.12 0 .23.12.23.23v15.49c0 .11-.11.23-.23.23h-2.06c-.12 0-.23-.12-.23-.23Zm10.55-11.47a4.5 4.5 0 0 1 4.02 2.18v-1.61c0-.11.11-.23.23-.23h2.06c.12 0 .23.12.23.23v9.06h.92c.23 0 .34.23.23.46l-.57 1.61c0 .11-.12.11-.23.11h-2.53c-.11 0-.23-.11-.23-.23v-1.6a4.39 4.39 0 0 1-4.01 2.18c-2.99 0-5.51-2.76-5.51-6.08-.12-3.44 2.29-6.08 5.39-6.08Zm.58 9.75c2.06 0 3.44-1.49 3.44-3.67 0-2.18-1.49-3.67-3.44-3.67-2.07 0-3.45 1.49-3.45 3.67-.11 2.18 1.38 3.67 3.45 3.67Zm8.95-.92c0-.11.11-.23.22-.23h2.07c.11 0 .23.12.23.23.23.69 1.38 1.15 2.75 1.15 1.61 0 2.64-.46 2.64-1.38 0-2.64-7.8.12-7.8-4.82 0-2.29 1.84-3.67 4.93-3.67 2.76 0 4.94 1.26 5.05 3.33 0 .11-.11.23-.23.23h-2.18c-.11 0-.23-.12-.23-.23-.23-.8-1.26-1.26-2.52-1.26-1.49 0-2.41.46-2.41 1.49 0 2.41 7.92-.23 7.92 4.82 0 2.18-1.95 3.55-5.17 3.55-2.75 0-5.16-1.26-5.27-3.21Zm12.73 0c0-.11.12-.23.23-.23h2.07c.11 0 .23.12.23.23.22.69 1.37 1.15 2.75 1.15 1.61 0 2.64-.46 2.64-1.38 0-2.64-7.8.12-7.8-4.82 0-2.29 1.83-3.67 4.93-3.67 2.75 0 4.93 1.26 5.05 3.33 0 .11-.12.23-.23.23h-2.18c-.12 0-.23-.12-.23-.23-.23-.8-1.26-1.26-2.53-1.26-1.49 0-2.4.46-2.4 1.49 0 2.41 7.91-.23 7.91 4.82 0 2.18-1.95 3.55-5.16 3.55-2.75 0-5.05-1.26-5.28-3.21Zm18.47-8.83a5.5 5.5 0 0 1 5.51 5.73v.92c0 .12-.11.23-.23.23h-8.14c.22 1.72 1.26 2.75 2.98 2.75 1.15 0 2.18-.11 2.64-1.03 0-.11.11-.11.23-.11h2.06c.23 0 .35.11.23.34-.57 2.07-2.75 3.1-5.05 3.1-3.21 0-5.62-2.64-5.62-6.08a5.36 5.36 0 0 1 5.39-5.85Zm2.87 4.82c0-1.61-1.15-2.53-2.87-2.53-1.72 0-2.64 1.03-2.98 2.53h5.85Zm4.71-4.36c0-.12.11-.12.23-.12h2.52c.11 0 .23.12.23.23v1.84c.69-1.5 1.95-2.41 3.9-2.41 2.98 0 4.13 2.18 4.13 5.62v5.96c0 .12-.11.23-.23.23h-2.06a.24.24 0 0 1-.23-.23v-5.96c0-2.64-1.15-3.21-2.64-3.21-2.07 0-2.99 1.49-2.99 3.67v5.5c0 .12-.11.23-.22.23h-2.07c-.11 0-.23-.11-.23-.23v-9.06h-.92c-.23 0-.34-.23-.23-.46l.81-1.6Z"/>
  </g>
</svg>
