<svg xmlns="http://www.w3.org/2000/svg" viewBox="0 0 33 31">
  <path fill="currentColor" fill-rule="evenodd" d="M20.5.83c1.47 0 2.67 1.2 2.67 2.67v2.67h6.66c1.48 0 2.67 1.2 2.67 2.66v6.67c0 1.35-.7 1.95-1.33 2.67v9.33c0 1.47-1.2 2.67-2.67 2.67h-24a2.67 2.67 0 0 1-2.67-2.67v-9.33C1.12 17.49.5 16.85.5 15.5V8.83c0-1.47 1.2-2.66 2.67-2.66h6.66V3.5c0-1.47 1.2-2.67 2.67-2.67h8ZM15.17 19.5H4.5v8h24v-8H17.83v2.67h-2.66V19.5ZM29.83 8.83H3.17v5.34c0 1.4 1.08 2.55 2.46 2.66h21.54c1.4 0 2.55-1.08 2.66-2.46V8.83ZM20.5 3.5h-8v2.67h8V3.5Z"/>
</svg>
