<svg xmlns="http://www.w3.org/2000/svg" fill="none" viewBox="0 0 24 24">
  <path fill="currentColor" fill-rule="evenodd" d="M2 15H0V9h2v2h1.05a9 9 0 0 1 1.92-4.62L4 5.41l-.7.71-1.42-1.41L4.7 1.88l1.41 1.41-.7.71.96.97A8.96 8.96 0 0 1 11 3.05V2H9V0h6v2h-2v1.06c1.74.19 3.32.87 4.62 1.9l.97-.96-.71-.7 1.41-1.42 2.83 2.83-1.41 1.41-.71-.7-.97.96A8.96 8.96 0 0 1 20.95 11H22V9h2v6h-2v-2h-1.05a8.96 8.96 0 0 1-1.97 4.68l.96.97.77-.77 1.41 1.41-2.83 2.83-1.41-1.41.64-.65-.97-.97A8.95 8.95 0 0 1 13 20.95V22h2v2H9v-2h2v-1.05a8.96 8.96 0 0 1-4.55-1.86l-.98.97.65.65-1.41 1.41-2.83-2.83 1.41-1.41.77.77.96-.97A8.96 8.96 0 0 1 3.06 13H2v2ZM12 5a7 7 0 1 0 0 14 7 7 0 0 0 0-14Zm-2 10a1 1 0 1 1 0 2 1 1 0 0 1 0-2Zm5-1a1 1 0 1 1 0 2 1 1 0 0 1 0-2Zm-5-7a3 3 0 1 1 0 6 3 3 0 0 1 0-6Zm6 2a1 1 0 1 1 0 2 1 1 0 0 1 0-2Zm-6 0a1 1 0 1 0 0 2 1 1 0 0 0 0-2Z" clip-rule="evenodd"/>
</svg>
