<svg xmlns="http://www.w3.org/2000/svg" fill="none" viewBox="0 0 24 25" width="24" height="25">
  <path fill="currentColor" fill-rule="evenodd" d="M10.38 6.48a3 3 0 0 1 .24-.15 6.36 6.36 0 0 0-.5-2.6c-.35-.6-.72-.81-.93-.88a.82.82 0 0 0-.69.09c-.26.15-.7.78-.12 1.8a6.36 6.36 0 0 0 2 1.74ZM9 8.86C8 8.3 7 8 6.5 8c-.7 0-1.07.2-1.24.36A.82.82 0 0 0 5 9c0 .3.33 1 1.5 1C7 10 8 9.7 9 9.14a3.06 3.06 0 0 1 0-.28Zm1.38 2.67a6.36 6.36 0 0 0-2 1.73c-.34.6-.35 1.03-.3 1.25.04.22.17.4.42.55.26.15 1.03.22 1.62-.8.24-.42.48-1.45.5-2.6a3.01 3.01 0 0 1-.24-.13Zm2.24.4a7.87 7.87 0 0 1-.77 3.33c-1 1.74-2.92 2.36-4.35 1.53a2.83 2.83 0 0 1-1.44-2.66A6.56 6.56 0 0 0 4 18.91V25H2v-6.1a8.56 8.56 0 0 1 3.62-6.99C4.08 11.58 3 10.41 3 9c0-1.66 1.3-3 3.5-3 .1 0 .22 0 .33.02a3.5 3.5 0 0 1-.18-.28c-1-1.73-.58-3.7.85-4.53 1.43-.83 3.24-.39 4.35 1.53l.15.3.15-.3C13.15 1 15.07.38 16.5 1.2c1.43.82 1.95 2.61.85 4.53l-.18.28.33-.02c2 0 3.5 1.34 3.5 3s-1.3 3-3.5 3c-.93 0-2.19-.43-3.27-1a3 3 0 0 1-1.61.94ZM15 9.15c1 .56 2 .86 2.5.86.7 0 1.07-.2 1.24-.36A.82.82 0 0 0 19 9c0-.3-.33-1-1.5-1-.5 0-1.5.3-2.5.86a2.99 2.99 0 0 1 0 .28Zm-1.38-2.66a6.36 6.36 0 0 0 2-1.74c.34-.6.35-1.03.3-1.25a.82.82 0 0 0-.42-.55c-.26-.15-1.03-.22-1.62.8a6.36 6.36 0 0 0-.5 2.6 3 3 0 0 1 .24.14ZM13 9a1 1 0 1 1-2 0 1 1 0 0 1 2 0Zm0 12.5a6.4 6.4 0 0 1 1-2.75l.13.22A6.4 6.4 0 0 1 15 21.5c0 1.17-.7 1.5-1 1.5-.29 0-.5-.1-.64-.26-.15-.17-.36-.54-.36-1.24Zm-2 0c0-2 2-5.5 3-5.5s3 3.5 3 5.5-1.34 3.5-3 3.5-3-1.3-3-3.5Z" clip-rule="evenodd"/>
</svg>
