<svg xmlns="http://www.w3.org/2000/svg" fill="none" viewBox="0 0 24 24">
  <path fill="currentColor" fill-rule="evenodd" d="M12 0a12 12 0 0 1 11 16.8v.2h-.09A12 12 0 0 1 1.1 17H1v-.2A12 12 0 0 1 12 0Zm2.5 17h-5c.62 3.02 1.7 5 2.5 5s1.88-1.98 2.5-5Zm-7.05 0H3.34a10.03 10.03 0 0 0 5.62 4.53A15.9 15.9 0 0 1 7.46 17Zm13.21 0h-4.11a15.9 15.9 0 0 1-1.51 4.53c2.39-.76 4.39-2.4 5.62-4.53Zm-13.6-7H2.2a10.05 10.05 0 0 0 .26 5h4.7a28.2 28.2 0 0 1-.1-5Zm7.86 0H9.08a25.94 25.94 0 0 0 .1 5h5.65a25.72 25.72 0 0 0 .1-5Zm6.88 0h-4.87a28.73 28.73 0 0 1-.09 5h4.7a10 10 0 0 0 .26-5ZM8.96 2.47l-.17.06A10 10 0 0 0 2.83 8h4.45c.3-2.07.84-3.87 1.53-5.24l.15-.29ZM12 2c-.88 0-2.11 2.43-2.69 6h5.38c-.56-3.47-1.75-5.87-2.62-6H12Zm3.04.47.04.08A17.3 17.3 0 0 1 16.72 8h4.45a10.03 10.03 0 0 0-6.13-5.53Z" clip-rule="evenodd"/>
</svg>
