<svg xmlns="http://www.w3.org/2000/svg" fill="none" viewBox="0 0 24 24">
  <path fill="currentColor" fill-rule="evenodd" d="M9.04 9 7.9 14.73c-.39 1.99-.5 4.01-.35 6.02l8.33-6.82-.96-3.2-.3-1.8a8.92 8.92 0 0 1-3.3-.22A3.38 3.38 0 0 1 9.6 7.64a2.8 2.8 0 0 1-.22-3.16 4.47 4.47 0 0 1 .95-1.21l.03-.02v-.01h.01l.64.76.65.77a1.51 1.51 0 0 0-.17.16c-.12.13-.25.3-.35.49-.2.36-.22.66.04 1 .07.09.28.24.72.38a6.98 6.98 0 0 0 2.4.16l-.58-3.57A1.6 1.6 0 0 0 12.18 2H9.5c-.53 0-1.25.15-1.88.46-.64.31-.96.67-1.08.96l-.5 1.25H2v2.66C2 8.3 2.75 9 3.58 9h5.46Zm9.15 5.64.56 1.86L22 24H6a24.38 24.38 0 0 1-.05-9.65L6.6 11H3.58A3.62 3.62 0 0 1 0 7.33V4.5c0-1.01.8-1.83 1.79-1.83h2.9C5.42.87 7.84 0 9.5 0h2.68a3.6 3.6 0 0 1 3.53 3.06l.77 4.74.08.07L18.4 6.4a3.12 3.12 0 0 1 3.93 4.85l-4.13 3.38ZM16.51 16 9.2 22h9.76l-2.08-4.81L16.5 16Zm.36-5.82 2.77-2.22a1.12 1.12 0 0 1 1.41 1.74l-3.48 2.85-.69-2.29-.01-.08Z" clip-rule="evenodd"/>
</svg>
