<svg xmlns="http://www.w3.org/2000/svg" fill="none" viewBox="0 0 24 24">
  <path fill="currentColor" fill-rule="evenodd" d="M13.58 0c.88 0 1.65.46 2.1 1.16A2.48 2.48 0 0 1 19 3.06a2.49 2.49 0 0 1 3 2.28V15a4 4 0 0 1-1.98 3.46V24H9.12v-4.02L2.58 13.3a2.01 2.01 0 0 1 0-2.83l.7-.7a2.95 2.95 0 0 1 4.2 0l.65.64V3.5a2.49 2.49 0 0 1 3.35-2.34A2.47 2.47 0 0 1 13.58 0Zm4.46 19.06-6.94 2.01V22h6.94v-2.94ZM14.9 14.9l-3.93 3.97.12.12 8.04-2.32a2 2 0 0 0 .75-.94l-4.98-.83Zm-4.25-.72-2.17 2.2 1.08 1.08 2.94-2.97-1.85-.3Zm-5.97-3-.7.7 3.1 3.09 1.38-1.4-2.38-2.4a.98.98 0 0 0-1.4 0Zm15.34-.27H10.1v1.02l9.9 1.81v-2.83ZM19.52 5a.5.5 0 0 0-.48.41l-.01.09v3.4h.99V5.5a.5.5 0 0 0-.5-.5ZM10.6 3a.5.5 0 0 0-.48.41l-.01.09v5.4h.99V3.5a.5.5 0 0 0-.5-.5Zm5.95 0a.5.5 0 0 0-.49.41V8.9h.98V3.5a.5.5 0 0 0-.49-.5Zm-2.97-1a.5.5 0 0 0-.5.41V8.9h1V2.5a.5.5 0 0 0-.5-.5Z" clip-rule="evenodd"/>
</svg>
