<svg xmlns="http://www.w3.org/2000/svg" viewBox="0 0 33 31">
  <path fill="currentColor" fill-rule="evenodd" d="M23.17.83c5.15 0 9.33 4.38 9.33 9.78a9.98 9.98 0 0 1-2.8 6.99h.13L16.5 30.17 3.17 17.6h.13a9.98 9.98 0 0 1-2.8-7C.5 5.21 4.68.83 9.83.83a9.1 9.1 0 0 1 6.67 2.94A9.1 9.1 0 0 1 23.17.83Zm0 2.67a6.4 6.4 0 0 0-4.48 1.85l-.24.24-1.95 2.08-1.95-2.08A6.44 6.44 0 0 0 9.83 3.5c-3.65 0-6.66 3.16-6.66 7.11 0 1.84.65 3.57 1.8 4.87l.24.26 1.47 1.5 9.82 9.26 9.82-9.26 1.47-1.5a7.3 7.3 0 0 0 2.03-4.76l.01-.37c0-3.95-3.01-7.11-6.66-7.11Z"/>
</svg>
