<svg xmlns="http://www.w3.org/2000/svg" viewBox="0 0 70 51">
  <g fill="none" fill-rule="evenodd" transform="translate(0 .67)">
    <path fill="#6AB889" fill-rule="nonzero" d="M68.54 0H1.46C.66 0 0 .65 0 1.46v46.66c0 .81.65 1.46 1.46 1.46h11.66c.81 0 1.46-.65 1.46-1.45v-2.2a3.65 3.65 0 0 1 7.3 0v2.2c0 .8.65 1.45 1.45 1.45h23.34c.8 0 1.45-.65 1.45-1.45v-2.2a3.65 3.65 0 0 1 7.3 0v2.2c0 .8.65 1.45 1.45 1.45h11.67c.8 0 1.46-.65 1.46-1.45V1.45C70 .66 69.35 0 68.54 0Z"/>
    <ellipse cx="17.56" cy="14.58" fill="#E7E9E9" rx="5.9" ry="5.83"/>
    <path fill="#E7E9E9" d="M29.42 35c0-6.44-5.28-11.67-11.8-11.67-6.5 0-11.79 5.23-11.79 11.67h23.6Z"/>
    <path fill="#3E3832" d="M36.2 32.08h23.86c.66 0 1.19.66 1.19 1.46 0 .8-.53 1.46-1.2 1.46H36.2c-.66 0-1.19-.65-1.19-1.46 0-.8.53-1.46 1.2-1.46Zm0-5.83h23.86c.66 0 1.19.65 1.19 1.46 0 .8-.53 1.46-1.2 1.46H36.2c-.66 0-1.19-.66-1.19-1.46 0-.8.53-1.46 1.2-1.46Zm0-5.83h23.86c.66 0 1.19.65 1.19 1.45 0 .81-.53 1.46-1.2 1.46H36.2c-.66 0-1.19-.65-1.19-1.45 0-.81.53-1.46 1.2-1.46Zm-.03-8.75h9.33c.64 0 1.17.65 1.17 1.46 0 .8-.53 1.45-1.17 1.45h-9.33c-.65 0-1.17-.65-1.17-1.46 0-.8.52-1.45 1.17-1.45Z"/>
  </g>
</svg>
