<svg xmlns="http://www.w3.org/2000/svg" viewBox="0 0 32 28">
  <path fill="currentColor" fill-rule="evenodd" d="M25.33 0a6.67 6.67 0 0 1 6.11 9.33H32V28H0V9.33h13.33A6.67 6.67 0 0 1 20 2.67l.08-.11A6.66 6.66 0 0 1 25.33 0Zm4 12a6.64 6.64 0 0 1-4 1.33l.05-.06a6.68 6.68 0 0 1-3.2 2.36c.14.14.25.3.34.48.16.32.24.7.24 1.17 0 .57-.12 1.05-.38 1.42-.2.31-.48.56-.8.73l-.21.1 1.78 3.14h-1.98l-1.5-2.82h-.98v2.82h-1.76v-7.42A6.7 6.7 0 0 1 13.89 12H2.67v13.33h26.66V12Zm-18.45 2.84v3.2h.04l2.33-3.2h1.95l-2.37 3.12 2.8 4.7H13.7l-1.91-3.3-.91 1.2v2.1H9.1v-7.82h1.77Zm8.73 1.4h-.92v2.2h.92c.46 0 .81-.1 1.06-.3.24-.19.36-.48.36-.86 0-.39-.12-.65-.36-.8-.2-.13-.49-.2-.84-.23h-.22ZM20 5.35a4 4 0 1 0 0 8 4 4 0 0 0 0-8Zm5.33-2.67c-.85 0-1.65.27-2.3.72l.18.1a6.67 6.67 0 0 1 3.36 6.96l.17-.04-.06.02a4 4 0 0 0-1.35-7.76Z"/>
</svg>
