<svg xmlns="http://www.w3.org/2000/svg" viewBox="0 0 84 53" width="84" height="53">
  <path fill="#c30000" fill-rule="evenodd" clip-rule="evenodd" d="M39.1 52.9c-14.4 0-26.4-12-26.4-26.4S24.7.1 39.1.1c14.4 0 26.4 12 26.4 26.4 0 14.4-12 26.4-26.4 26.4zM5.4 24.7 0 38h5.2l5.4-13.3H5.4zM66.5 38l5.3-13.3h2.8L69.4 38h-2.9zm15.8-13.3L77 38h1.5l5.3-13.3h-1.5z"/>
  <path fill="#fefefe" d="M56.9 24.7s-.3 0-.4.3l-2.6 7.9-2.6-7.9c-.1-.3-.4-.3-.4-.3h-9c-.2 0-.4.2-.4.4v2.7c0-2.1-2.3-3.1-3.6-3.1-3 0-5 2-5.6 5 0-2-.2-2.7-.7-3.4-.3-.4-.6-.7-1-.9-.8-.5-1.5-.6-3-.6h-1.8s-.3 0-.4.3L23.6 29v-4c0-.2-.2-.4-.4-.4H19s-.3 0-.4.3L17 29.2s-.2.4.2.4h1.6v8.1c0 .2.2.4.4.4h4.1c.2 0 .4-.2.4-.4v-8.1h1.6c.9 0 1.1 0 1.5.2.2.1.4.2.5.4.2.4.3.9.3 2.4v5.1c0 .2.2.4.4.4h4s.4 0 .6-.4l.9-2.2c1.2 1.6 3.1 2.6 5.5 2.6h.5s.4 0 .6-.4l1.5-3.8v3.9c0 .2.2.4.4.4h4s.4 0 .6-.4l1.6-4c.1-.3-.4-.3-.4-.3h-1.4v-6.9l4.5 11.3c.2.4.6.4.6.4h4.8s.4 0 .6-.4l5-12.5c.2-.4-.3-.4-.3-.4l-4.7-.3zm-15.4 8.5h-2.7c-.5 0-1.1-.2-1.4-.5-.8-.7-.8-2.1 0-2.8.2-.2.4-.3.7-.4.2-.1.5-.1.8-.1h.8a2 2 0 0 1 2 2v1.8z"/>
</svg>
