<svg xmlns="http://www.w3.org/2000/svg" fill="none" viewBox="0 0 24 24">
  <path fill="currentColor" fill-rule="evenodd" d="M6 1a1 1 0 0 1 .51.14l2.76 1.64A12.6 12.6 0 0 1 13 2.22c6.08 0 11 4.21 11 9.4 0 3.3-1.99 6.21-5 7.89V24h-2v-3.61a12.63 12.63 0 0 1-7 .29V24H8v-4a10.4 10.4 0 0 1-4.69-3.92H0V8.16h2.77A9.37 9.37 0 0 1 5 5.17V2a1 1 0 0 1 1-1Zm1 2.74v2.3l-.65.6A7.49 7.49 0 0 0 4.73 8.7l-.14.3-.54 1.15H2v3.96h2.42l.59.93c1.53 2.43 4.57 4.02 7.99 4.02 5.03 0 9-3.4 9-7.42 0-4.03-3.97-7.43-9-7.43-.95 0-1.88.12-2.76.36l-.38.1-.85.27L7 3.73Zm6 2.44a8.5 8.5 0 0 1 3.97.96l-.7 1.89A6.3 6.3 0 0 0 13 8.16a6.3 6.3 0 0 0-3.28.87l-.69-1.89A8.5 8.5 0 0 1 13 6.18Z" clip-rule="evenodd"/>
</svg>
