<svg xmlns="http://www.w3.org/2000/svg" viewBox="0 0 32 32">
  <path fill="currentColor" fill-rule="evenodd" d="M31.06 14.76a4 4 0 0 1-.49 5.64l-.95 1.1-.96 1.1a79.8 79.8 0 0 1-8.16 8.27c-.4.34-1.33.52-2.8.55H0V20c.3 0 .78-.43 1.47-1.3l.17-.22c1.17-1.53 3.25-3.05 5.6-3.05 2.11 0 4 .98 5.22 2.52l.1.14h5.33c.82 0 1.57.25 2.2.66l5.34-4.48a4 4 0 0 1 5.63.5Zm-3.79 1.46-.12.1-5.45 4.56a4 4 0 0 1-3.8 5.21H12v-2.66h5.9a1.33 1.33 0 0 0 .15-2.66H11c-1.36-1.79-2.61-2.68-3.77-2.68-1.44 0-2.57.67-3.41 1.73l-.9 1.1-.26.33v7.51h14.88c1.02-.01 1.68-.16 2-.44l.55-.5.59-.56.65-.64c2-2 4.52-4.76 7.52-8.27.52-.43.62-1.2.26-1.75l-.1-.12a1.33 1.33 0 0 0-1.75-.26ZM16.21.9a4.98 4.98 0 0 1 5.92.15l.22.18.2.2A4.8 4.8 0 0 1 24 4.83c0 1.35-.57 2.65-1.58 3.66l-.87.85-2.16 2.08L16 14.67l-2.95-2.8-1.86-1.8-.42-.4-1.2-1.17A5.14 5.14 0 0 1 8 4.85c0-1.29.52-2.5 1.45-3.43a4.98 4.98 0 0 1 6.1-.67l.24.15.2.16.22-.16Zm-1.65 2.38a2.32 2.32 0 0 0-3.25 0 2.2 2.2 0 0 0-.68 1.57c0 .64.28 1.28.81 1.8l1.39 1.36 1 .96L16 11.05l2.1-2.01 1.28-1.23 1.18-1.16c.53-.53.8-1.16.8-1.8a2.2 2.2 0 0 0-.67-1.58 2.33 2.33 0 0 0-3.09-.14l-.16.15L16 4.7l-1.44-1.43Z"/>
</svg>
