<svg width="224" height="137" fill="none" viewBox="0 0 224 137" aria-hidden="true" role="img" focusable="false">
  <!-- Compass -->
  <g class="translate-x-[120px] fine:group-hover:translate-x-0 transition-transform duration-300 ease-out">
    <path fill="#99C4DD" d="M50 119a17 17 0 1 1-34 0 17 17 0 0 1 34 0Z"/>
    <path fill="#FFB8B8" d="m36.5 123 6-13.1-13.2 6-6 13.2 13.2-6Z"/>
  </g>

  <!-- Letter S -->
  <g class="translate-x-[40px] fine:group-hover:translate-x-0 transition-transform duration-300 ease-out">
    <path fill="#F7B4AF" fill-rule="evenodd" d="M148.5 85h-.5a42.5 42.5 0 0 1 0-85h68v34h-67.5a8.5 8.5 0 0 0 0 17H165v34h-16.5Z" clip-rule="evenodd"/>
    <path fill="#95BAD6" fill-rule="evenodd" d="M181.5 51h.5a42.5 42.5 0 0 1 0 85h-72v-34h71.5a8.5 8.5 0 0 0 0-17H165V51h16.5Z" clip-rule="evenodd"/>
  </g>

  <!-- Cover shape -->
  <path class="rotate-[10deg] scale-[3] origin-bottom-left -translate-x-[568px] fill-deepblue-100 fine:group-hover:fill-red-200 fine:group-hover:rotate-0 fine:group-hover:scale-100 fine:group-hover:translate-x-0 transition-all duration-300 ease-out " fill="#F7B3B1" d="M224 0h40v136h-40z"/>

  <!-- Heart -->
  <path class="translate-x-[48px] scale-[0.8] translate-y-[-32px] fine:group-hover:translate-x-0 fine:group-hover:translate-y-0 fine:group-hover:scale-100 transition-transform duration-300 ease-out" fill="#F68282" d="m128.4 76.5-5.4 2.8-5.4-2.8a12.7 12.7 0 0 0-14.4 20.7L123 115l19.8-18a12.8 12.8 0 0 0-14.4-20.6Z" />

  <!-- Hand -->
  <g class="translate-x-[24px] translate-y-[-28px] fine:group-hover:translate-x-0 fine:group-hover:translate-y-0 transition-transform duration-300 ease-out">
    <path fill="#5C0000" fill-rule="evenodd" d="M110.4 114.2a1 1 0 0 0 .4 1.4l12.3 5.3 22.7-8.2c5.2-1.5 10-3.5 14.6 1 .5.5.7 1.1.6 1.7a2 2 0 0 1-1 1.5c-10.8 5.3-18 9.5-23.3 12.5-8 4.5-11.8 6.6-16.3 6.6-3.7 0-8-1.5-15.4-4.2-3.8-1.4-8.6-3.1-14.7-5.1a2 2 0 0 1-1.3-1.9V100c0-1 1-1.9 2.2-1.9h6.4c5.9 0 10.4 1.9 13.5 3.8h17.7a5.7 5.7 0 0 1 0 11.4H112a2 2 0 0 0-1.7 1Z" clip-rule="evenodd"/>
    <path fill="#F68282" d="M79 98h10v30H79V98Z"/>
  </g>
</svg>
