<svg width="224" height="136" fill="none" viewBox="0 0 224 136" aria-hidden="true" role="img" focusable="false">
  <!-- Arrow -->
  <g class="translate-x-[140px] fine:group-hover:translate-x-0 transition-transform duration-300 ease-out">
    <path fill="#99C4DD" d="M34.2 104 13 118l21.2 14v-28Z"/>
    <path fill="#FFB8B8" d="M61.4 113.3v10.2H34.2v-10.2h27.2Z"/>
  </g>

  <g>
    <path fill="#95BAD6" d="M184 0h40v136h-40z"/>
    <path fill="#FBD492" d="M140 49h44v38h-44z"/>
  </g>

  <path class="rotate-[10deg] scale-[4] origin-bottom-left -translate-x-[290px] fill-deepblue-100 fine:group-hover:rotate-0 fine:group-hover:scale-100 fine:group-hover:translate-x-0 fine:group-hover:fill-red-200 transition-all duration-300 ease-out" fill="#F7B3B1" d="M100 0h40v136h-40z"/>

  <!-- Dog -->
  <g class="translate-x-[28px] -translate-y-[28px] fine:group-hover:translate-x-0 fine:group-hover:translate-y-0 transition-transform duration-300 ease-out">
    <path fill="#F68282" d="m149.1 71.8-2-2.2 2 2.2Zm-37.5 61.6 50.7-47.2-4-4.4-50.8 47.1 4.1 4.5Zm35.5-63.8-21.3 19.2 4 4.4 21.4-19.1-4-4.5Zm15.5.3c-4.3-4.2-11-4.3-15.5-.3l4 4.5a5.3 5.3 0 0 1 7.2.1l4.3-4.3Zm-.3 16.3c4.7-4.4 4.8-11.8.3-16.3l-4.3 4.3c2.1 2 2.1 5.5 0 7.6l4 4.4Z"/>
    <path fill="#5C0000" d="M108.7 65c-6 0-11.4 3.8-13.4 9.5l-.2.6H77v10.6a14 14 0 0 0 14.2 14H97a285 285 0 0 0-2.5 24.2V134H140v-5a106.9 106.9 0 0 1-2-5.3 239 239 0 0 1-4.7-14.6c-1.2-3.9-1.8-7-2.3-9.4h2.5V79a14 14 0 0 0-14.2-14h-10.6Z"/>
    <path fill="#F68282" d="M112 77.1v9.3h5v-9.3h-5Zm13.3 22.7h8.3v-5h-8.3v5Zm-13.4-13.4c0 7.4 6 13.4 13.4 13.4v-5a8.3 8.3 0 0 1-8.3-8.4h-5Z"/>
    <path stroke="#F68282" stroke-width="6" d="m111.1 130 24.4-23"/>
    <path fill="#F68282" d="M141.8 127.3H92.3v8.7h49.5v-8.7Z"/>
  </g>
</svg>
