<svg xmlns="http://www.w3.org/2000/svg" width="96" height="96" fill="none" viewBox="0 0 96 96">
  <path fill="#F5D3E2" d="m40.6 31-9.5-9.6a3.4 3.4 0 0 0-4.8 0l-8.2 8.2c-.8.8-1.1 2-.8 3.2a64.2 64.2 0 0 0 39 40.6l2.6 1c1.3.5 2.6.1 3.6-.8l8-8a3.4 3.4 0 0 0 0-4.8L61 51.3a3.4 3.4 0 0 0-4.7 0L52 55.4c-.7.7-1.7.7-2.4 0L36.5 42.3c-.7-.7-.7-1.7 0-2.4l4.1-4.2a3.4 3.4 0 0 0 0-4.8v.1Z"/>
  <path fill="#99185E" fill-rule="evenodd" d="M47.5 8.5a4 4 0 0 1 2.5-1h27a3.5 3.5 0 0 1 3.5 3.5v3.5a1.5 1.5 0 0 1-3 0V11a.5.5 0 0 0-.5-.5H50a.5.5 0 0 0-.5.5v24.3a.5.5 0 0 0 .7.4l2.5-1.5a1.5 1.5 0 1 1 1.6 2.6l-2.5 1.5a3.5 3.5 0 0 1-5.3-2.8V11c0-1 .4-1.8 1-2.5Z" clip-rule="evenodd"/>
  <path fill="#99185E" fill-rule="evenodd" d="M86.4 48.4a1.5 1.5 0 0 0 2.1-1.4V21.5c0-2-1.6-3.5-3.5-3.5H60.5c-2 0-3.5 1.6-3.5 3.5V41c0 2 1.6 3.5 3.5 3.5h16.6l9.3 3.9ZM60.5 21H85c.3 0 .5.2.5.5v23.2l-7.7-3.2H60.5a.5.5 0 0 1-.5-.5V21.5c0-.3.2-.5.5-.5Z" clip-rule="evenodd"/>
  <path fill="#99185E" d="M66 33.5a2 2 0 1 0 0-4 2 2 0 0 0 0 4Zm7 0a2 2 0 1 0 0-4 2 2 0 0 0 0 4Zm7 0a2 2 0 1 0 0-4 2 2 0 0 0 0 4Z"/>
  <path fill="#99185E" fill-rule="evenodd" d="M23 73.5A13.5 13.5 0 0 0 9.5 87a1.5 1.5 0 0 1-3 0 16.5 16.5 0 0 1 33 0 1.5 1.5 0 0 1-3 0A13.5 13.5 0 0 0 23 73.5Zm0-29a9.8 9.8 0 1 0 0 19.6 9.8 9.8 0 0 0 0-19.6Zm-12.8 9.8a12.8 12.8 0 1 1 25.6 0 12.8 12.8 0 0 1-25.6 0Z" clip-rule="evenodd"/>
</svg>