<svg xmlns="http://www.w3.org/2000/svg" width="96" height="96" fill="none" viewBox="0 0 96 96">
  <path fill="#F5D3E2" d="m40.6 31-9.5-9.6a3.4 3.4 0 0 0-4.8 0l-8.2 8.2c-.8.8-1.1 2-.8 3.2a64.2 64.2 0 0 0 39 40.6l2.6 1c1.3.5 2.6.1 3.6-.8l8-8a3.4 3.4 0 0 0 0-4.8L61 51.3a3.4 3.4 0 0 0-4.7 0L52 55.4c-.7.7-1.7.7-2.4 0L36.5 42.3c-.7-.7-.7-1.7 0-2.4l4.1-4.2a3.4 3.4 0 0 0 0-4.8Z"/>
  <path stroke="#99185E" stroke-linecap="round" stroke-width="3" d="M79 14.5V11a2 2 0 0 0-2-2H50a2 2 0 0 0-2 2v24.4a2 2 0 0 0 3 1.6l2.5-1.5"/>
  <path fill="#99185E" d="m87 47-.6 1.4a1.5 1.5 0 0 0 2.1-1.4H87Zm-9.5-4 .6-1.4-.3-.1h-.3V43Zm-17-22H85v-3H60.5v3Zm25 .5V47h3V21.5h-3Zm2 24.1-9.4-4-1.2 2.8 9.5 4 1.2-2.8Zm-10-4.1h-17v3h17v-3ZM60 41V21.5h-3V41h3Zm.5.5a.5.5 0 0 1-.5-.5h-3c0 2 1.6 3.5 3.5 3.5v-3ZM85 21c.3 0 .5.2.5.5h3c0-2-1.6-3.5-3.5-3.5v3Zm-24.5-3c-2 0-3.5 1.6-3.5 3.5h3c0-.3.2-.5.5-.5v-3Z"/>
  <circle cx="66" cy="31.5" r="2" fill="#99185E"/>
  <circle cx="73" cy="31.5" r="2" fill="#99185E"/>
  <circle cx="80" cy="31.5" r="2" fill="#99185E"/>
  <path fill="#99185E" d="m38.5 82.5 1.4-.4a1.5 1.5 0 0 1-1.8 1.8l.4-1.4ZM36 72.2l1-1 .4.3v.4l-1.4.3ZM28.2 80l-.3 1.4h-.4l-.3-.3 1-1.1Zm8.8 2.8-2.5-10.2 3-.7L39.8 82l-2.9.7Zm-8.4-4.3L38.8 81l-.7 3L28 81.3l.7-2.9ZM11.9 61.6l3.2 3.2-2 2.1-3.3-3.2 2.1-2Zm3.2 3.2 14.2 14.1-2.1 2.2L13 66.9l2.1-2.1ZM35 73.3 20.8 59l2.1-2 14.2 14-2.2 2.2ZM20.8 59l-3.2-3 2.1-2 3.3 3-2.1 2.1ZM13 64.8l7.8-7.8 2.1 2.1-7.8 7.8-2-2.1Zm-1-8.9a4 4 0 0 0 0 5.7l-2.2 2.1a7 7 0 0 1 0-9.9L12 56Zm-2.2-2a7 7 0 0 1 10 0l-2.2 2a4 4 0 0 0-5.7 0l-2-2Z"/>
  <path stroke="#99185E" stroke-linecap="round" stroke-width="3" d="M43.7 88.7H8.2"/>
</svg>