<svg xmlns="http://www.w3.org/2000/svg" width="96" height="96" fill="none" viewBox="0 0 96 96">
  <path fill="#ECF399" fill-rule="evenodd" d="M46.22 11.27V22.3h4.71V11.27h-4.71Zm-20.5 5.91 5.5 9.56 4.07-2.36-5.5-9.56-4.07 2.36Zm39.82 9.56 5.5-9.56-4.08-2.36-5.5 9.56 4.08 2.36ZM53.03 80.08a4.77 4.77 0 0 1-9.52.36l-.02-.36h9.54Zm2.38-7.17v4.78H41.1v-4.78h14.3Zm-7.15-45.44c10.53 0 19.06 8.67 19.06 19.37a19.5 19.5 0 0 1-3.36 11l-.94 1.32c-1.55 2.27-3.65 6.06-6.29 11.36H39.8L38.52 68a87.8 87.8 0 0 0-5-8.8l-.51-.73a19.49 19.49 0 0 1-3.81-11.63c0-10.7 8.53-19.37 19.06-19.37Zm11.91 14.35a4.77 4.77 0 1 1-9.54.02 4.77 4.77 0 0 1 9.54-.02Z" clip-rule="evenodd"/>
  <path stroke="#23262A" stroke-width="3" d="M94.5 53.5h-38V1.64h27.2l10.8 11V53.5Z"/>
  <path stroke="#23262A" stroke-width="3" d="M82.33 2.43v11.43h11.4m-29.62 6.85h13.67m-13.67 9.15H86.9M64.11 39h9.11M18 70h6v14m-6 0h12"/>
  <circle cx="24" cy="61" r="3" fill="#23262A"/>
  <path stroke="#23262A" stroke-width="3" d="M46.5 72a22.5 22.5 0 1 1-45 0 22.5 22.5 0 0 1 45 0Z"/>
</svg>