<svg width="96" height="96" viewBox="0 0 96 96" fill="none" aria-hidden="true" focusable="false" xmlns="http://www.w3.org/2000/svg">
<rect x="46.6667" y="16" width="2.66667" height="8" fill="var(--pictogram, rgb(204 241 214))"/>
<rect x="46.6667" y="72" width="2.66667" height="8" fill="var(--pictogram, rgb(204 241 214))"/>
<rect x="24" y="46.6667" width="2.66667" height="8" transform="rotate(90 24 46.6667)" fill="var(--pictogram, rgb(204 241 214))"/>
<rect x="80" y="46.6667" width="2.66667" height="8" transform="rotate(90 80 46.6667)" fill="var(--pictogram, rgb(204 241 214))"/>
<rect x="37.0203" y="69.3828" width="2.66667" height="8" transform="rotate(24 37.0203 69.3828)" fill="var(--pictogram, rgb(204 241 214))"/>
<rect x="59.7975" y="18.2243" width="2.66667" height="8" transform="rotate(24 59.7975 18.2243)" fill="var(--pictogram, rgb(204 241 214))"/>
<rect x="29.8096" y="63.7127" width="2.66667" height="8" transform="rotate(46 29.8096 63.7127)" fill="var(--pictogram, rgb(204 241 214))"/>
<rect x="70.0927" y="24.8118" width="2.66667" height="8" transform="rotate(46 70.0927 24.8118)" fill="var(--pictogram, rgb(204 241 214))"/>
<rect x="25.2481" y="55.7542" width="2.66667" height="8" transform="rotate(68 25.2481 55.7542)" fill="var(--pictogram, rgb(204 241 214))"/>
<rect x="77.1704" y="34.7764" width="2.66667" height="8" transform="rotate(68 77.1704 34.7764)" fill="var(--pictogram, rgb(204 241 214))"/>
<rect x="26.393" y="37.0204" width="2.66667" height="8" transform="rotate(114 26.393 37.0204)" fill="var(--pictogram, rgb(204 241 214))"/>
<rect x="77.5515" y="59.7975" width="2.66667" height="8" transform="rotate(114 77.5515 59.7975)" fill="var(--pictogram, rgb(204 241 214))"/>
<rect x="32.0631" y="29.8097" width="2.66667" height="8" transform="rotate(136 32.0631 29.8097)" fill="var(--pictogram, rgb(204 241 214))"/>
<rect x="70.964" y="70.0928" width="2.66667" height="8" transform="rotate(136 70.964 70.0928)" fill="var(--pictogram, rgb(204 241 214))"/>
<rect x="40.0216" y="25.2482" width="2.66667" height="8" transform="rotate(158 40.0216 25.2482)" fill="var(--pictogram, rgb(204 241 214))"/>
<rect x="60.9996" y="77.1706" width="2.66667" height="8" transform="rotate(158 60.9996 77.1706)" fill="var(--pictogram, rgb(204 241 214))"/>
<circle cx="48" cy="48" r="32" fill="var(--pictogram, rgb(204 241 214))"/>
<path d="M74.8567 69.4259L80.3501 74.7448C81.99 76.3326 84.5706 76.3181 86.193 74.7118C87.9196 73.0025 87.8875 70.1711 86.1227 68.5027L72.7086 55.8215L65.7785 63.1042C63.8431 65.1714 60.6423 65.2984 58.5545 63.3907L55.5517 60.6471C54.5167 59.7014 54.3995 58.0936 55.2861 57.003L64.0311 46.2456C69.8269 39.1162 80.1261 37.9204 87.3524 43.538C95.2377 49.6679 96.1832 61.2175 89.7859 68.586C88.958 69.5394 88.1268 70.498 87.4669 71.5745V71.5745M80.0444 74.4556C81.6386 75.8969 81.7381 78.3961 80.2638 79.9639L80.1496 80.0854C78.7448 81.5792 76.4189 81.6424 74.9377 80.2271M64.1565 80.6393L69.2889 85.7015C70.8695 87.2605 73.4062 87.1748 74.8815 85.5126C76.3062 83.9075 76.1991 81.4361 74.6412 79.9647L69.5066 75.1151M65.3595 45.2953C58.3202 37.4285 45.7768 38.6254 40.1253 47.5756C35.0567 55.6026 36.2414 66.2637 43.039 72.8369L62.5952 91.7476C64.3941 93.4871 67.2414 93.4043 68.9397 91.5633C70.6375 89.7228 70.5157 86.8072 68.6958 85.0916" stroke="currentColor" stroke-width="3"/>
<rect x="1.5" y="1.5" width="17.6769" height="24" rx="8.83846" stroke="currentColor" stroke-width="3"/>
<line x1="19.5923" y1="12.8438" x2="54.5" y2="12.8438" stroke="currentColor" stroke-width="3" stroke-linecap="round"/>
<path d="M40.4923 12.6563L40.4923 5.90627" stroke="currentColor" stroke-width="3" stroke-linecap="round"/>
<path d="M49.9692 12.6563L49.9692 5.90627" stroke="currentColor" stroke-width="3" stroke-linecap="round"/>
</svg>
