<svg width="96" height="96" viewBox="0 0 96 96" fill="none" aria-hidden="true" focusable="false" xmlns="http://www.w3.org/2000/svg">
<g clip-path="url(#clip0_74_810)">
<rect x="27.8994" y="38" width="38" height="14" transform="rotate(45 27.8994 38)" fill="var(--pictogram, rgb(204 241 214))"/>
<rect x="27.8994" y="38" width="38" height="14" transform="rotate(45 27.8994 38)" fill="var(--pictogram, rgb(204 241 214))"/>
<rect x="35" y="64.8406" width="62" height="14" transform="rotate(-45 35 64.8406)" fill="var(--pictogram, rgb(204 241 214))"/>
<rect x="35" y="64.8406" width="62" height="14" transform="rotate(-45 35 64.8406)" fill="var(--pictogram, rgb(204 241 214))"/>
<path d="M58.4684 55.4687V67H85.4304V53.1225C85.4304 51.4449 85.7821 49.7859 86.4629 48.2527L91.8107 36.2087C98.9553 20.118 87.1763 2 69.5708 2H65.7944C53.2269 2 43.4791 12.9741 44.9615 25.4539V25.4539C44.9783 25.5954 44.9485 25.7384 44.8768 25.8615L38.63 36.5759C37.464 38.5759 38.9066 41.087 41.2217 41.087H44.9873L45.8632 48.9776C46.3656 53.5042 50.5402 56.6987 55.0407 56.0005L58.4684 55.4687ZM58.4684 55.4687C58.4684 55.4687 61.6139 54.7891 65.6582 52.75C69.1362 50.9965 70.1519 50.0313 70.1519 50.0313" stroke="currentColor" stroke-width="3"/>
<path d="M41.4239 61.7482C47.323 71.9658 43.575 85.1736 33.0526 91.2487C22.5301 97.3238 9.21783 93.9658 3.31873 83.7482C-2.58036 73.5307 9.7126 75.1232 20.235 69.0481C30.7575 62.973 35.5248 51.5307 41.4239 61.7482Z" stroke="currentColor" stroke-width="3"/>
</g>
<defs>
<clipPath id="clip0_74_810">
<rect width="96" height="96" fill="white"/>
</clipPath>
</defs>
</svg>
