<svg width="96" height="96" viewBox="0 0 96 96" fill="none" aria-hidden="true" focusable="false" xmlns="http://www.w3.org/2000/svg">
<g clip-path="url(#clip0_1_1439)">
<path d="M35.321 31.4373C40.7002 36.83 44.8116 51.5829 42.1604 54.2407C39.5092 56.8985 24.793 52.7769 19.4138 47.3842C14.0345 41.9915 13.5609 34.3771 17.9536 29.9735C22.3462 25.5699 29.3792 25.4806 35.321 31.4373Z" fill="var(--pictogram, rgb(204 241 214))"/>
<path d="M52.679 31.4373C47.2998 36.83 43.1884 51.5829 45.8396 54.2407C48.4908 56.8985 63.207 52.7769 68.5862 47.3842C73.9655 41.9915 74.4391 34.3771 70.0464 29.9735C65.6538 25.5699 58.6208 25.4806 52.679 31.4373Z" fill="var(--pictogram, rgb(204 241 214))"/>
<rect x="42.8069" y="53.2446" width="3.2807" height="42.7556" fill="var(--pictogram, rgb(204 241 214))"/>
<path d="M28.1442 81.6H41.2163C44.826 81.6 47.7523 78.8242 47.7523 75.4C47.7523 71.9758 44.826 69.2 41.2163 69.2H26.5102C24.2499 65.4936 19.9106 63 15.0721 63C7.85257 63 2 68.5517 2 75.4V94H45.5027C46.9895 94 48.4633 93.7237 49.8492 93.1852L75.5833 83.185C79.2295 81.7681 80.4129 77.1933 77.911 74.1861V74.1861C76.5876 72.5956 74.5091 71.8427 72.4741 72.2168L47.6663 76.7778" stroke="#262626" stroke-width="3"/>
<path d="M94.5 16.0584C94.5 24.104 88.003 30.6169 80 30.6169C71.997 30.6169 65.5 24.104 65.5 16.0584C65.5 8.01288 71.997 1.5 80 1.5C88.003 1.5 94.5 8.01288 94.5 16.0584Z" stroke="#262626" stroke-width="3"/>
<path d="M92 47.9999V47.9999C92 41.3725 86.6274 35.9561 80 35.9561V35.9561C73.3726 35.9561 68 41.3725 68 47.9999V47.9999" stroke="#262626" stroke-width="3"/>
<mask id="path-7-inside-1_1_1439" fill="white">
<ellipse cx="76" cy="15.5566" rx="2" ry="2.00731"/>
</mask>
<ellipse cx="76" cy="15.5566" rx="2" ry="2.00731" fill="currentColor"/>
<path d="M74.58 15.5566C74.58 14.7882 75.204 14.1439 76 14.1439V20.9839C79.0051 20.9839 81.42 18.5423 81.42 15.5566H74.58ZM76 14.1439C76.796 14.1439 77.42 14.7882 77.42 15.5566H70.58C70.58 18.5423 72.9949 20.9839 76 20.9839V14.1439ZM77.42 15.5566C77.42 16.3251 76.796 16.9693 76 16.9693V10.1293C72.9949 10.1293 70.58 12.571 70.58 15.5566H77.42ZM76 16.9693C75.204 16.9693 74.58 16.3251 74.58 15.5566H81.42C81.42 12.571 79.0051 10.1293 76 10.1293V16.9693Z" fill="currentColor" mask="url(#path-7-inside-1_1_1439)"/>
<mask id="path-9-inside-2_1_1439" fill="white">
<ellipse cx="84" cy="15.5566" rx="2" ry="2.00731"/>
</mask>
<ellipse cx="84" cy="15.5566" rx="2" ry="2.00731" fill="currentColor"/>
<path d="M82.58 15.5566C82.58 14.7882 83.204 14.1439 84 14.1439V20.9839C87.0051 20.9839 89.42 18.5423 89.42 15.5566H82.58ZM84 14.1439C84.796 14.1439 85.42 14.7882 85.42 15.5566H78.58C78.58 18.5423 80.9949 20.9839 84 20.9839V14.1439ZM85.42 15.5566C85.42 16.3251 84.796 16.9693 84 16.9693V10.1293C80.9949 10.1293 78.58 12.571 78.58 15.5566H85.42ZM84 16.9693C83.204 16.9693 82.58 16.3251 82.58 15.5566H89.42C89.42 12.571 87.0051 10.1293 84 10.1293V16.9693Z" fill="currentColor" mask="url(#path-9-inside-2_1_1439)"/>
</g>
<defs>
<clipPath id="clip0_1_1439">
<rect width="96" height="96" fill="white"/>
</clipPath>
</defs>
</svg>
