<svg width="96" height="96" viewBox="0 0 96 96" fill="none" aria-hidden="true" focusable="false" xmlns="http://www.w3.org/2000/svg">
<g clip-path="url(#clip0_1_394)">
<rect x="20" y="20" width="56" height="56" rx="28" fill="var(--pictogram, rgb(204 241 214))"/>
<path d="M58.0419 17.2718C56.3037 10.7846 60.554 4.00921 67.5352 2.13858C74.5165 0.26796 81.5851 4.01046 83.3233 10.4977C83.9668 12.8993 83.7896 15.3404 82.9569 17.5575" stroke="#262626" stroke-width="3"/>
<mask id="path-3-inside-1_1_394" fill="white">
<path fill-rule="evenodd" clip-rule="evenodd" d="M54.7939 18.7998C54.508 17.7329 55.1412 16.6362 56.2081 16.3503L66.4993 13.5928C77.1687 10.7339 88.1354 17.0656 90.9942 27.7349L95.447 44.3527C96.0187 46.4865 94.7524 48.6799 92.6185 49.2517L76.5317 53.5621C70.1301 55.2774 63.5501 51.4784 61.8348 45.0768L61.6995 44.5722L48.6349 38.5414L36.5914 40.6536C34.8677 40.8623 33.4871 39.2845 33.9415 37.6254L37.8248 23.4465C38.2792 21.7874 40.2812 21.0961 41.6674 22.1198L51.0773 29.3201L57.7412 29.7994L54.7939 18.7998Z"/>
</mask>
<path d="M54.7939 18.7998L57.6916 18.0233L57.6916 18.0233L54.7939 18.7998ZM90.9942 27.7349L88.0965 28.5114L88.0965 28.5114L90.9942 27.7349ZM95.447 44.3527L92.5492 45.1291L95.447 44.3527ZM61.6995 44.5722L64.5973 43.7957L64.2334 42.4376L62.9569 41.8483L61.6995 44.5722ZM48.6349 38.5414L49.8922 35.8176L49.0405 35.4245L48.1166 35.5865L48.6349 38.5414ZM36.5914 40.6536L36.952 43.6318L37.0311 43.6222L37.1096 43.6085L36.5914 40.6536ZM33.9415 37.6254L31.048 36.8329L31.048 36.8329L33.9415 37.6254ZM37.8248 23.4465L34.9313 22.654L34.9313 22.654L37.8248 23.4465ZM41.6674 22.1198L43.4904 19.7373L43.4701 19.7218L43.4496 19.7066L41.6674 22.1198ZM51.0773 29.3201L49.2542 31.7027L49.9669 32.248L50.8621 32.3124L51.0773 29.3201ZM57.7412 29.7994L57.526 32.7916L61.7298 33.094L60.639 29.0229L57.7412 29.7994ZM55.4316 13.4525C52.7643 14.1672 51.1814 16.9089 51.8961 19.5763L57.6916 18.0233C57.8346 18.5568 57.518 19.1051 56.9845 19.2481L55.4316 13.4525ZM65.7229 10.695L55.4316 13.4525L56.9845 19.2481L67.2758 16.4906L65.7229 10.695ZM93.892 26.9585C90.6044 14.6887 77.9926 7.40734 65.7229 10.695L67.2758 16.4906C76.3447 14.0605 85.6664 19.4424 88.0965 28.5114L93.892 26.9585ZM98.3447 43.5762L93.892 26.9584L88.0965 28.5114L92.5492 45.1291L98.3447 43.5762ZM93.395 52.1494C97.1292 51.1488 99.3453 47.3105 98.3447 43.5762L92.5492 45.1291C92.6921 45.6626 92.3755 46.2109 91.8421 46.3539L93.395 52.1494ZM77.3082 56.4599L93.395 52.1494L91.8421 46.3539L75.7553 50.6643L77.3082 56.4599ZM58.937 45.8533C61.0811 53.8553 69.3062 58.604 77.3082 56.4599L75.7553 50.6643C70.9541 51.9508 66.019 49.1016 64.7326 44.3004L58.937 45.8533ZM58.8018 45.3486L58.937 45.8533L64.7326 44.3004L64.5973 43.7957L58.8018 45.3486ZM47.3775 41.2652L60.4422 47.296L62.9569 41.8483L49.8922 35.8176L47.3775 41.2652ZM48.1166 35.5865L36.0731 37.6987L37.1096 43.6085L49.1531 41.4963L48.1166 35.5865ZM36.2308 37.6753C36.5743 37.6337 36.9566 37.9734 36.8349 38.4178L31.048 36.8329C30.0175 40.5956 33.1612 44.0908 36.952 43.6318L36.2308 37.6753ZM36.8349 38.4178L40.7182 24.2389L34.9313 22.654L31.048 36.8329L36.8349 38.4178ZM40.7182 24.2389C40.6642 24.436 40.5094 24.5667 40.3757 24.6128C40.2423 24.6589 40.0444 24.6507 39.8851 24.533L43.4496 19.7066C40.3753 17.4361 35.9447 18.9539 34.9313 22.654L40.7182 24.2389ZM39.8443 24.5023L49.2542 31.7027L52.9003 26.9376L43.4904 19.7373L39.8443 24.5023ZM57.9564 26.8071L51.2924 26.3279L50.8621 32.3124L57.526 32.7916L57.9564 26.8071ZM51.8961 19.5763L54.8434 30.5758L60.639 29.0229L57.6916 18.0233L51.8961 19.5763Z" fill="currentColor" mask="url(#path-3-inside-1_1_394)"/>
<path d="M23.262 62.9276C23.262 65.1028 22.1334 68.3432 20.5923 71.1291C19.8351 72.498 19.0265 73.6683 18.295 74.473C17.928 74.8767 17.6139 75.1511 17.3687 75.3142C17.2609 75.3859 17.1865 75.4229 17.143 75.4415C17.0995 75.4229 17.0251 75.3859 16.9172 75.3142C16.672 75.1511 16.358 74.8767 15.991 74.473C15.2594 73.6683 14.4508 72.498 13.6936 71.1291C12.1526 68.3432 11.0239 65.1028 11.0239 62.9276C11.0239 58.4427 13.9605 55.5 17.143 55.5C18.8396 55.5 20.3339 56.1558 21.417 57.3558C22.5052 58.5613 23.262 60.4139 23.262 62.9276Z" stroke="#262626" stroke-width="3"/>
<path d="M31.1109 70.8044C28.95 70.8044 25.7265 71.9362 22.9528 73.4839C21.5905 74.244 20.4256 75.0559 19.6246 75.7904C19.2229 76.1588 18.9495 76.4744 18.7867 76.7213C18.7113 76.8355 18.6741 76.913 18.6561 76.9566C18.6741 77.0002 18.7113 77.0777 18.7867 77.192C18.9495 77.4388 19.2229 77.7544 19.6246 78.1228C20.4256 78.8573 21.5905 79.6692 22.9528 80.4294C25.7265 81.977 28.95 83.1088 31.1109 83.1088C35.5606 83.1088 38.4998 80.1686 38.4998 76.9566C38.4998 75.2464 37.8441 73.7426 36.6494 72.6548C35.4501 71.5628 33.6089 70.8044 31.1109 70.8044Z" stroke="#262626" stroke-width="3"/>
<path d="M19.9604 75.0441V75.0441C14.7691 77.3721 11.4285 82.5313 11.4285 88.2207L11.4285 92.2616" stroke="#262626" stroke-width="3"/>
<path d="M4.17467e-06 98.0002L4.63537 94.8169C8.7281 92.0063 14.1291 92.0063 18.2218 94.8169L22.8572 98.0002" stroke="#262626" stroke-width="3"/>
</g>
<defs>
<clipPath id="clip0_1_394">
<rect width="96" height="96" fill="white"/>
</clipPath>
</defs>
</svg>
