<svg width="96" height="96" viewBox="0 0 96 96" fill="none" aria-hidden="true" focusable="false" xmlns="http://www.w3.org/2000/svg">
<g clip-path="url(#clip0_1_2031)">
<rect x="16" y="36" width="64" height="24" fill="var(--pictogram, rgb(204 241 214))"/>
<rect x="16" y="36" width="64" height="24" fill="var(--pictogram, rgb(204 241 214))"/>
<rect x="16" y="36" width="64" height="24" fill="var(--pictogram, rgb(204 241 214))"/>
<rect x="16" y="36" width="64" height="24" fill="var(--pictogram, rgb(204 241 214))"/>
<rect x="60" y="16" width="64" height="24" transform="rotate(90 60 16)" fill="var(--pictogram, rgb(204 241 214))"/>
<path d="M30.4664 20.0537L42.7762 27.1607C44.2282 27.9991 46.0849 27.5016 46.9232 26.0495V26.0495C47.7616 24.5975 47.2641 22.7408 45.812 21.9025L28.5226 11.9204" stroke="#262626" stroke-width="3" stroke-linecap="round"/>
<path d="M29.5886 9.0299L29.7138 7.53979C29.2481 7.49721 28.7908 7.67239 28.4763 8.0138L29.5886 9.0299ZM17.2394 13.1183C16.4251 12.9493 15.6328 13.468 15.4697 14.277C15.3066 15.0859 15.8345 15.8788 16.6487 16.0478L17.2394 13.1183ZM26.9205 1.5888L26.9893 0.0945986L26.9205 1.5888ZM25.5565 13.4077L24.4442 12.3916L25.5565 13.4077ZM36.7032 2.11587L36.772 0.621671L36.7032 2.11587ZM37.095 3.98105L37.34 4.87799L40.2415 4.11549L39.9965 3.21854L37.095 3.98105ZM34.7134 7.99692L29.7138 7.53979L29.4634 10.52L34.4631 10.9771L34.7134 7.99692ZM26.8517 3.08299L36.6344 3.61007L36.772 0.621671L26.9893 0.0945986L26.8517 3.08299ZM26.4376 0.12563L10.8692 2.74056L11.3936 5.69171L26.962 3.07679L26.4376 0.12563ZM28.4763 8.0138L24.4442 12.3916L26.6688 14.4238L30.7009 10.046L28.4763 8.0138ZM20.2214 13.7375L17.2394 13.1183L16.6487 16.0478L19.6308 16.667L20.2214 13.7375ZM26.9893 0.0945986C26.8046 0.0846493 26.6196 0.0950564 26.4376 0.12563L26.962 3.07679C26.9256 3.0829 26.8886 3.08498 26.8517 3.08299L26.9893 0.0945986ZM37.34 4.87799C37.7972 6.55216 36.4471 8.15543 34.7134 7.99692L34.4631 10.9771C38.277 11.3258 41.2474 7.79864 40.2415 4.11549L37.34 4.87799ZM24.4442 12.3916C23.378 13.5492 21.7751 14.0601 20.2214 13.7375L19.6308 16.667C22.2202 17.2046 24.8918 16.3531 26.6688 14.4238L24.4442 12.3916ZM39.9965 3.21854C39.5962 1.7528 38.2934 0.703646 36.772 0.621671L36.6344 3.61007C36.8517 3.62178 37.0378 3.77166 37.095 3.98105L39.9965 3.21854Z" fill="currentColor"/>
<path d="M28.0582 23.942C27.3407 23.5278 26.4233 23.7736 26.0091 24.4911C25.5949 25.2085 25.8407 26.1259 26.5582 26.5401L28.0582 23.942ZM43.126 32.6415L28.0582 23.942L26.5582 26.5401L41.626 35.2396L43.126 32.6415ZM31.3637 22.3036L44.6619 29.9813L46.1619 27.3832L32.8637 19.7055L31.3637 22.3036ZM45.2241 32.0793C44.7999 32.8139 43.8606 33.0656 43.126 32.6415L41.626 35.2396C43.7955 36.4921 46.5696 35.7488 47.8221 33.5793L45.2241 32.0793ZM47.8221 33.5793C49.0747 31.4099 48.3314 28.6358 46.1619 27.3832L44.6619 29.9813C45.3965 30.4054 45.6482 31.3447 45.2241 32.0793L47.8221 33.5793Z" fill="currentColor"/>
<path d="M26.0421 31.5212L37.5706 38.1772C39.0226 39.0155 40.8793 38.518 41.7177 37.066V37.066C42.556 35.6139 42.0585 33.7572 40.6065 32.9189L29.078 26.2629" stroke="#262626" stroke-width="3"/>
<path d="M25.0223 29.2002C24.3048 28.786 23.3874 29.0318 22.9732 29.7492C22.559 30.4666 22.8048 31.384 23.5223 31.7982L25.0223 29.2002ZM2.67229 22.3652L4.11929 21.97L2.67229 22.3652ZM31.7452 40.0927L7.13964 25.8866L5.63964 28.4847L30.2452 42.6907L31.7452 40.0927ZM23.5223 31.7982L33.281 37.4325L34.781 34.8344L25.0223 29.2002L23.5223 31.7982ZM4.11929 21.97L3.4709 19.5959L0.576891 20.3863L1.22528 22.7604L4.11929 21.97ZM7.13964 25.8866C5.65608 25.0301 4.57062 23.6225 4.11929 21.97L1.22528 22.7604C1.88492 25.1756 3.47136 27.2329 5.63964 28.4847L7.13964 25.8866ZM33.8432 39.5305C33.4191 40.2651 32.4798 40.5168 31.7452 40.0927L30.2452 42.6907C32.4146 43.9433 35.1887 43.2 36.4413 41.0305L33.8432 39.5305ZM36.4413 41.0305C37.6938 38.861 36.9505 36.0869 34.781 34.8344L33.281 37.4325C34.0156 37.8566 34.2673 38.7959 33.8432 39.5305L36.4413 41.0305Z" fill="currentColor"/>
<path d="M90.5 59.0676C90.5 68.4989 82.8837 76.1351 73.5 76.1351C64.1163 76.1351 56.5 68.4989 56.5 59.0676C56.5 49.6363 64.1163 42 73.5 42C82.8837 42 90.5 49.6363 90.5 59.0676Z" stroke="#262626" stroke-width="3"/>
<path d="M87.3748 95.9999V95.9999C87.3748 88.3369 81.1627 82.0742 73.4998 82.0742V82.0742C65.8368 82.0742 59.6248 88.3369 59.6248 95.9999V95.9999" stroke="#262626" stroke-width="3"/>
<mask id="path-13-inside-1_1_2031" fill="white">
<ellipse cx="68.875" cy="58.4874" rx="2.3125" ry="2.32095"/>
</mask>
<ellipse cx="68.875" cy="58.4874" rx="2.3125" ry="2.32095" fill="currentColor"/>
<path d="M67.7675 58.4875C67.7675 57.8922 68.2516 57.3884 68.875 57.3884V64.2284C72.0527 64.2284 74.6075 61.6463 74.6075 58.4875H67.7675ZM68.875 57.3884C69.4984 57.3884 69.9825 57.8922 69.9825 58.4875H63.1425C63.1425 61.6463 65.6973 64.2284 68.875 64.2284V57.3884ZM69.9825 58.4875C69.9825 59.0827 69.4984 59.5865 68.875 59.5865V52.7465C65.6973 52.7465 63.1425 55.3286 63.1425 58.4875H69.9825ZM68.875 59.5865C68.2516 59.5865 67.7675 59.0827 67.7675 58.4875H74.6075C74.6075 55.3286 72.0527 52.7465 68.875 52.7465V59.5865Z" fill="currentColor" mask="url(#path-13-inside-1_1_2031)"/>
<mask id="path-15-inside-2_1_2031" fill="white">
<ellipse cx="78.125" cy="58.4874" rx="2.3125" ry="2.32095"/>
</mask>
<ellipse cx="78.125" cy="58.4874" rx="2.3125" ry="2.32095" fill="currentColor"/>
<path d="M77.0175 58.4875C77.0175 57.8922 77.5016 57.3884 78.125 57.3884V64.2284C81.3027 64.2284 83.8575 61.6463 83.8575 58.4875H77.0175ZM78.125 57.3884C78.7484 57.3884 79.2325 57.8922 79.2325 58.4875H72.3925C72.3925 61.6463 74.9473 64.2284 78.125 64.2284V57.3884ZM79.2325 58.4875C79.2325 59.0827 78.7484 59.5865 78.125 59.5865V52.7465C74.9473 52.7465 72.3925 55.3286 72.3925 58.4875H79.2325ZM78.125 59.5865C77.5016 59.5865 77.0175 59.0827 77.0175 58.4875H83.8575C83.8575 55.3286 81.3027 52.7465 78.125 52.7465V59.5865Z" fill="currentColor" mask="url(#path-15-inside-2_1_2031)"/>
</g>
<defs>
<clipPath id="clip0_1_2031">
<rect width="96" height="96" fill="white"/>
</clipPath>
</defs>
</svg>
