<svg width="96" height="96" viewBox="0 0 96 96" fill="none" aria-hidden="true" focusable="false" xmlns="http://www.w3.org/2000/svg">
<g clip-path="url(#clip0_1_3490)">
<rect width="48" height="48" transform="translate(47.9412 14) rotate(45)" fill="var(--pictogram, rgb(204 241 214))"/>
<mask id="path-1-inside-1_1_3490" fill="white">
<path fill-rule="evenodd" clip-rule="evenodd" d="M42.6908 57.0401C51.7603 61.1151 58.0762 70.2274 58.0762 80.8149V84.2308L63.6508 92.7354C64.5709 94.1392 63.5638 96.0035 61.8853 96.0035H2.11524C0.373869 96.0035 -0.618554 94.0139 0.428973 92.6228L5.97395 85.2593V80.8149C5.97395 69.9181 12.6643 60.5839 22.1613 56.6959C22.2276 53.654 24.4536 51.0799 27.4693 50.5861L29.6966 50.2214C31.5037 49.9255 33.3469 49.9255 35.1539 50.2214L37.3813 50.5861C40.443 51.0874 42.6908 53.7331 42.6908 56.8356V57.0401Z"/>
</mask>
<path d="M42.6908 57.0401H39.5239V59.089L41.3929 59.9288L42.6908 57.0401ZM58.0762 84.2308H54.9094V85.1762L55.4276 85.9668L58.0762 84.2308ZM63.6508 92.7354L61.0022 94.4715L63.6508 92.7354ZM0.428973 92.6228L2.95873 94.5278H2.95873L0.428973 92.6228ZM5.97395 85.2593L8.50371 87.1643L9.14077 86.3183V85.2593H5.97395ZM22.1613 56.6959L23.3611 59.6267L25.2822 58.8402L25.3274 56.7649L22.1613 56.6959ZM27.4693 50.5861L26.9576 47.4609L27.4693 50.5861ZM29.6966 50.2214L29.1849 47.0962H29.1849L29.6966 50.2214ZM35.1539 50.2214L34.6422 53.3466H34.6423L35.1539 50.2214ZM37.3813 50.5861L36.8696 53.7113L37.3813 50.5861ZM61.243 80.8149C61.243 68.9355 54.1538 58.7188 43.9886 54.1515L41.3929 59.9288C49.3668 63.5115 54.9094 71.5194 54.9094 80.8149H61.243ZM61.243 84.2308V80.8149H54.9094V84.2308H61.243ZM66.2993 90.9993L60.7247 82.4947L55.4276 85.9668L61.0022 94.4715L66.2993 90.9993ZM61.8853 99.1703C66.082 99.1703 68.6 94.5092 66.2993 90.9993L61.0022 94.4715C60.5419 93.7692 61.0457 92.8367 61.8853 92.8367V99.1703ZM2.11524 99.1703H61.8853V92.8367H2.11524V99.1703ZM-2.10079 90.7178C-4.71984 94.1958 -2.23855 99.1703 2.11524 99.1703V92.8367C2.98629 92.8367 3.48273 93.832 2.95873 94.5278L-2.10079 90.7178ZM3.44419 83.3543L-2.10079 90.7178L2.95873 94.5278L8.50371 87.1643L3.44419 83.3543ZM2.80714 80.8149V85.2593H9.14077V80.8149H2.80714ZM20.9615 53.7652C10.3159 58.1234 2.80714 68.5885 2.80714 80.8149H9.14077C9.14077 71.2477 15.0126 63.0445 23.3611 59.6267L20.9615 53.7652ZM25.3274 56.7649C25.3605 55.2451 26.4736 53.9581 27.981 53.7113L26.9576 47.4609C22.4336 48.2016 19.0947 52.0629 18.9952 56.6269L25.3274 56.7649ZM27.981 53.7113L30.2083 53.3466L29.1849 47.0962L26.9576 47.4609L27.981 53.7113ZM30.2083 53.3466C31.6765 53.1062 33.174 53.1062 34.6422 53.3466L35.6657 47.0962C33.5197 46.7449 31.3308 46.7449 29.1849 47.0962L30.2083 53.3466ZM34.6423 53.3466L36.8696 53.7113L37.893 47.4609L35.6656 47.0962L34.6423 53.3466ZM36.8696 53.7113C38.4002 53.9619 39.5239 55.2846 39.5239 56.8356H45.8576C45.8576 52.1816 42.4858 48.2129 37.893 47.4609L36.8696 53.7113ZM39.5239 56.8356V57.0401H45.8576V56.8356H39.5239Z" fill="currentColor" mask="url(#path-1-inside-1_1_3490)"/>
<path d="M24.125 57.5177L24.125 72.446" stroke="currentColor" stroke-width="3.16682" stroke-linecap="round"/>
<path d="M40.314 57.1212L40.314 72.0495" stroke="currentColor" stroke-width="3.16682" stroke-linecap="round"/>
<path d="M77 2L58 22.3352H75.2331L58 40" stroke="currentColor" stroke-width="3" stroke-linecap="round" stroke-linejoin="round"/>
<path d="M90.2635 3L77.067 16.1177H94L77 33" stroke="currentColor" stroke-width="3" stroke-linecap="round" stroke-linejoin="round"/>
</g>
<defs>
<clipPath id="clip0_1_3490">
<rect width="96" height="96" fill="white"/>
</clipPath>
</defs>
</svg>
