<svg width="96" height="96" viewBox="0 0 96 96" fill="none" aria-hidden="true" focusable="false" xmlns="http://www.w3.org/2000/svg">
<g clip-path="url(#clip0_1_1289)">
<path d="M10.5981 -0.784363L15.4081 6.24562C18.0546 10.1136 15.2848 15.3648 10.5981 15.3648C5.91131 15.3648 3.14154 10.1136 5.78807 6.24563L10.5981 -0.784363Z" fill="var(--pictogram, rgb(204 241 214))"/>
<path d="M25.8973 -0.591248L30.7072 6.43874C33.3538 10.3068 30.584 15.5579 25.8973 15.5579C21.2105 15.5579 18.4407 10.3068 21.0873 6.43874L25.8973 -0.591248Z" fill="var(--pictogram, rgb(204 241 214))"/>
<path d="M34.2538 15.7512L39.0638 22.7812C41.7103 26.6492 38.9405 31.9004 34.2538 31.9004C29.567 31.9004 26.7972 26.6492 29.4438 22.7812L34.2538 15.7512Z" fill="var(--pictogram, rgb(204 241 214))"/>
<path d="M26.0494 32L30.8594 39.03C33.5059 42.898 30.7362 48.1492 26.0494 48.1492C21.3627 48.1492 18.5929 42.898 21.2394 39.03L26.0494 32Z" fill="var(--pictogram, rgb(204 241 214))"/>
<path d="M41.0494 0L45.8594 7.02999C48.5059 10.898 45.7362 16.1492 41.0494 16.1492C36.3627 16.1492 33.5929 10.898 36.2394 7.02999L41.0494 0Z" fill="var(--pictogram, rgb(204 241 214))"/>
<path d="M18.2477 16.4079L23.0577 23.4379C25.7042 27.3059 22.9345 32.5571 18.2477 32.5571C13.561 32.5571 10.7912 27.3059 13.4377 23.4379L18.2477 16.4079Z" fill="var(--pictogram, rgb(204 241 214))"/>
<path d="M16.4 68.5205V68.5205C11.7766 68.4671 8.00004 72.2003 8.00004 76.824L8.00003 96.0001" stroke="#262626" stroke-width="3"/>
<path d="M15 58.3521C16.6331 58.3521 19.1212 59.1897 21.287 60.3597C22.3468 60.9322 23.2417 61.5379 23.8478 62.0761C24.13 62.3266 24.3165 62.5334 24.4268 62.6864C24.3165 62.8394 24.13 63.0462 23.8478 63.2968C23.2417 63.8349 22.3468 64.4406 21.287 65.0131C19.1212 66.1832 16.6331 67.0208 15 67.0208C11.5811 67.0208 9.5 64.8528 9.5 62.6864C9.5 61.4951 9.9684 60.4501 10.835 59.6861C11.71 58.9149 13.0853 58.3521 15 58.3521ZM24.5215 62.8416C24.5214 62.8416 24.5209 62.8405 24.5201 62.8381C24.5211 62.8405 24.5215 62.8416 24.5215 62.8416ZM24.5201 62.5347C24.5209 62.5324 24.5214 62.5312 24.5215 62.5312C24.5215 62.5312 24.5211 62.5324 24.5201 62.5347Z" stroke="#262626" stroke-width="3"/>
<path d="M37 67.0207C35.3669 67.0207 32.8788 66.1831 30.713 65.0131C29.6532 64.4406 28.7583 63.8349 28.1522 63.2967C27.87 63.0462 27.6835 62.8394 27.5732 62.6864C27.6835 62.5334 27.87 62.3266 28.1522 62.076C28.7583 61.5379 29.6532 60.9322 30.713 60.3597C32.8788 59.1896 35.3669 58.3521 37 58.3521C40.4189 58.3521 42.5 60.52 42.5 62.6864C42.5 63.8777 42.0316 64.9227 41.165 65.6867C40.29 66.4579 38.9147 67.0207 37 67.0207ZM27.4785 62.5312C27.4786 62.5312 27.4791 62.5323 27.4799 62.5347C27.4789 62.5323 27.4785 62.5312 27.4785 62.5312ZM27.4799 62.8381C27.4791 62.8404 27.4786 62.8416 27.4785 62.8416C27.4785 62.8416 27.4789 62.8404 27.4799 62.8381Z" stroke="#262626" stroke-width="3"/>
<path d="M24.388 51.6291C25.1927 52.9845 25.6911 55.4822 25.7319 57.8902C25.7519 59.0659 25.6601 60.12 25.4842 60.898C25.3959 61.2886 25.2969 61.5622 25.2096 61.7325C25.2085 61.7347 25.2074 61.7368 25.2064 61.7389C25.2039 61.7388 25.2015 61.7386 25.199 61.7385C25.0037 61.7268 24.7105 61.6734 24.3185 61.5525C23.5376 61.3116 22.553 60.8618 21.5159 60.2571C19.3917 59.0187 17.4164 57.3502 16.6116 55.9948C14.9404 53.1801 15.7692 50.3278 17.7656 49.207C18.8535 48.5962 20.0378 48.4724 21.151 48.8201C22.2688 49.1692 23.4423 50.0363 24.388 51.6291Z" stroke="#262626" stroke-width="3"/>
<path d="M16.612 70.1556C17.4168 68.8002 19.3921 67.1317 21.5163 65.8933C22.5534 65.2886 23.538 64.8389 24.3189 64.5979C24.7109 64.477 25.0042 64.4236 25.1994 64.4119C25.2019 64.4118 25.2043 64.4116 25.2068 64.4115C25.2078 64.4136 25.2089 64.4158 25.2101 64.4179C25.2973 64.5882 25.3963 64.8618 25.4846 65.2524C25.6605 66.0305 25.7523 67.0845 25.7323 68.2602C25.6915 70.6682 25.1931 73.1659 24.3884 74.5213C22.7172 77.336 19.7624 78.0642 17.766 76.9434C16.6781 76.3327 15.9757 75.3973 15.7287 74.286C15.4808 73.1702 15.6663 71.7484 16.612 70.1556Z" stroke="#262626" stroke-width="3"/>
<path d="M35.388 70.1556C34.5832 68.8002 32.6079 67.1317 30.4837 65.8933C29.4466 65.2886 28.462 64.8389 27.6811 64.5979C27.2891 64.477 26.9958 64.4236 26.8006 64.4119C26.7981 64.4118 26.7957 64.4116 26.7932 64.4115C26.7922 64.4136 26.7911 64.4158 26.7899 64.4179C26.7027 64.5882 26.6037 64.8618 26.5154 65.2524C26.3395 66.0305 26.2477 67.0845 26.2677 68.2602C26.3085 70.6682 26.8069 73.1659 27.6116 74.5213C29.2828 77.336 32.2376 78.0642 34.234 76.9434C35.3219 76.3327 36.0243 75.3973 36.2713 74.286C36.5192 73.1702 36.3337 71.7484 35.388 70.1556Z" stroke="#262626" stroke-width="3"/>
<path d="M35.388 55.9953C34.5832 57.3507 32.6079 59.0192 30.4837 60.2576C29.4466 60.8623 28.462 61.312 27.6811 61.5529C27.2891 61.6739 26.9958 61.7273 26.8006 61.7389C26.7981 61.7391 26.7957 61.7392 26.7932 61.7394C26.7922 61.7373 26.7911 61.7351 26.7899 61.733C26.7027 61.5627 26.6037 61.2891 26.5154 60.8985C26.3395 60.1204 26.2477 59.0664 26.2677 57.8907C26.3085 55.4827 26.8069 52.985 27.6116 51.6296C29.2828 48.8149 32.2376 48.0866 34.234 49.2074C35.3219 49.8182 36.0243 50.7536 36.2713 51.8649C36.5192 52.9807 36.3337 54.4025 35.388 55.9953Z" stroke="#262626" stroke-width="3"/>
<mask id="path-14-inside-1_1_1289" fill="white">
<path fill-rule="evenodd" clip-rule="evenodd" d="M35.5125 29.9075H31C33.0147 13.0469 46.7973 0 63.5 0C80.2026 0 93.9852 13.0469 95.9999 29.9075H91.4667C88.8839 28.1024 85.7776 27.0496 82.4356 27.0496C79.0937 27.0496 75.9874 28.1024 73.4046 29.9075H72.5206C69.9379 28.1024 66.8316 27.0496 63.4896 27.0496C60.1476 27.0496 57.0413 28.1024 54.4586 29.9075H53.5745C50.9917 28.1024 47.8854 27.0497 44.5435 27.0497C41.2016 27.0497 38.0953 28.1024 35.5125 29.9075Z"/>
</mask>
<path d="M31 29.9075L28.0212 29.5516L27.6202 32.9075H31V29.9075ZM35.5125 29.9075V32.9075H36.457L37.2311 32.3665L35.5125 29.9075ZM95.9999 29.9075V32.9075H99.3798L98.9788 29.5516L95.9999 29.9075ZM91.4667 29.9075L89.7481 32.3665L90.5222 32.9075H91.4667V29.9075ZM73.4046 29.9075V32.9075H74.3491L75.1232 32.3665L73.4046 29.9075ZM72.5206 29.9075L70.8021 32.3665L71.5762 32.9075H72.5206V29.9075ZM54.4586 29.9075V32.9075H55.403L56.1771 32.3665L54.4586 29.9075ZM53.5745 29.9075L51.8559 32.3665L52.63 32.9075H53.5745V29.9075ZM31 32.9075H35.5125V26.9075H31V32.9075ZM63.5 -3C45.161 -3 30.2019 11.3018 28.0212 29.5516L33.9788 30.2635C35.8275 14.792 48.4337 3 63.5 3V-3ZM98.9788 29.5516C96.798 11.3018 81.839 -3 63.5 -3V3C78.5663 3 91.1724 14.792 93.0211 30.2635L98.9788 29.5516ZM91.4667 32.9075H95.9999V26.9075H91.4667V32.9075ZM82.4356 30.0496C85.135 30.0496 87.646 30.8973 89.7481 32.3665L93.1853 27.4485C90.1219 25.3076 86.4202 24.0496 82.4356 24.0496V30.0496ZM75.1232 32.3665C77.2253 30.8973 79.7363 30.0496 82.4356 30.0496V24.0496C78.4511 24.0496 74.7494 25.3076 71.686 27.4485L75.1232 32.3665ZM72.5206 32.9075H73.4046V26.9075H72.5206V32.9075ZM63.4896 30.0496C66.189 30.0496 68.6999 30.8973 70.8021 32.3665L74.2392 27.4485C71.1758 25.3076 67.4741 24.0496 63.4896 24.0496V30.0496ZM56.1771 32.3665C58.2793 30.8973 60.7902 30.0496 63.4896 30.0496V24.0496C59.5051 24.0496 55.8034 25.3076 52.74 27.4485L56.1771 32.3665ZM53.5745 32.9075H54.4586V26.9075H53.5745V32.9075ZM44.5435 30.0497C47.2428 30.0497 49.7537 30.8973 51.8559 32.3665L55.293 27.4485C52.2297 25.3076 48.528 24.0497 44.5435 24.0497V30.0497ZM37.2311 32.3665C39.3332 30.8973 41.8441 30.0497 44.5435 30.0497V24.0497C40.559 24.0497 36.8573 25.3076 33.794 27.4485L37.2311 32.3665Z" fill="currentColor" mask="url(#path-14-inside-1_1_1289)"/>
<path d="M63.4789 32.4595V56.801C63.4789 59.7906 65.9024 62.2142 68.892 62.2142V62.2142C71.8816 62.2142 74.3052 59.7906 74.3052 56.801V55.602" stroke="#262626" stroke-width="3"/>
</g>
<defs>
<clipPath id="clip0_1_1289">
<rect width="96" height="96" fill="white"/>
</clipPath>
</defs>
</svg>
