<svg width="96" height="96" viewBox="0 0 96 96" fill="none" aria-hidden="true" focusable="false" xmlns="http://www.w3.org/2000/svg">
<g clip-path="url(#clip0_1_1876)">
<path fill-rule="evenodd" clip-rule="evenodd" d="M53.8333 19L56.7213 27.6604C57.1272 27.8146 57.5273 27.9805 57.9212 28.1579L66.0884 24.0762L72.9238 30.9116L68.8421 39.0788C69.0195 39.4727 69.1854 39.8728 69.3396 40.2787L78 43.1667V52.8333L69.3387 55.7237C69.1845 56.1296 69.0184 56.5297 68.841 56.9236L72.9238 65.0884L66.0884 71.9238L57.9236 67.841C57.5297 68.0184 57.1296 68.1845 56.7237 68.3387L53.8333 77H44.1667L41.2787 68.3396C40.8728 68.1854 40.4727 68.0195 40.0788 67.8421L31.9116 71.9238L25.0762 65.0884L29.1579 56.9212C28.9805 56.5273 28.8146 56.1272 28.6604 55.7213L20 52.8333V43.1667L28.6595 40.2811C28.8139 39.8744 28.9802 39.4735 29.1579 39.0788L25.0762 30.9116L31.9116 24.0762L40.0788 28.1579C40.4735 27.9802 40.8744 27.8139 41.2811 27.6595L44.1667 19H53.8333Z" fill="var(--pictogram, rgb(204 241 214))"/>
<path d="M93.6558 29.6578V54.0001H52V29.6578H78.0349" stroke="currentColor" stroke-width="3"/>
<path d="M80.2447 36.6669C80.2447 39.4589 77.9861 41.7177 75.2055 41.7177C72.4249 41.7177 70.1663 39.4589 70.1663 36.6669C70.1663 33.8749 72.4249 31.616 75.2055 31.616C77.9861 31.616 80.2447 33.8749 80.2447 36.6669Z" stroke="currentColor" stroke-width="3"/>
<path d="M94.5 6.62783C94.5 9.46235 92.2069 11.7557 89.3839 11.7557C86.5609 11.7557 84.2678 9.46235 84.2678 6.62783C84.2678 3.7933 86.5609 1.5 89.3839 1.5C92.2069 1.5 94.5 3.7933 94.5 6.62783Z" stroke="currentColor" stroke-width="3"/>
<path d="M93.8257 27.4936C93.8257 31.9492 90.2208 35.5567 85.7795 35.5567C81.3383 35.5567 77.7334 31.9492 77.7334 27.4936C77.7334 23.038 81.3383 19.4305 85.7795 19.4305C90.2208 19.4305 93.8257 23.038 93.8257 27.4936Z" stroke="currentColor" stroke-width="3"/>
<mask id="path-6-inside-1_1_1876" fill="white">
<path fill-rule="evenodd" clip-rule="evenodd" d="M41.1432 58.9595C49.9605 62.9211 56.1007 71.7799 56.1007 82.0729V84.9297L61.4165 92.9083C62.3512 94.3111 61.3455 96.1896 59.6598 96.1896H1.85624C0.107205 96.1896 -0.883075 94.1845 0.180011 92.7957L5.4479 85.9134V82.0729C5.4479 71.476 11.956 62.3992 21.1933 58.6215C21.3574 55.668 23.5574 53.1998 26.5091 52.7243L28.4777 52.4072C30.2567 52.1206 32.07 52.1206 33.849 52.4072L35.8176 52.7243C38.8812 53.2178 41.135 55.8581 41.1432 58.9595Z"/>
</mask>
<path d="M41.1432 58.9595L38.1432 58.9674L38.1483 60.9028L39.9137 61.696L41.1432 58.9595ZM56.1007 84.9297H53.1007V85.8376L53.6041 86.5931L56.1007 84.9297ZM61.4165 92.9083L58.9199 94.5717H58.9199L61.4165 92.9083ZM0.180011 92.7957L2.56225 94.6191H2.56225L0.180011 92.7957ZM5.4479 85.9134L7.83014 87.7369L8.4479 86.9298V85.9134H5.4479ZM21.1933 58.6215L22.3289 61.3982L24.0835 60.6806L24.1887 58.7879L21.1933 58.6215ZM26.5091 52.7243L26.9862 55.6861H26.9862L26.5091 52.7243ZM28.4777 52.4072L28.9548 55.369V55.369L28.4777 52.4072ZM33.849 52.4072L33.3719 55.369L33.3719 55.369L33.849 52.4072ZM35.8176 52.7243L36.2947 49.7625H36.2947L35.8176 52.7243ZM59.1007 82.0729C59.1007 70.5561 52.2279 60.651 42.3727 56.223L39.9137 61.696C47.6931 65.1913 53.1007 73.0038 53.1007 82.0729H59.1007ZM59.1007 84.9297V82.0729H53.1007V84.9297H59.1007ZM63.9131 91.2449L58.5973 83.2663L53.6041 86.5931L58.9199 94.5717L63.9131 91.2449ZM59.6598 99.1896C63.7412 99.1896 66.1762 94.6415 63.9131 91.2449L58.9199 94.5717C58.5262 93.9808 58.9498 93.1896 59.6598 93.1896V99.1896ZM1.85624 99.1896H59.6598V93.1896H1.85624V99.1896ZM-2.20223 90.9722C-4.77616 94.3349 -2.37851 99.1896 1.85624 99.1896V93.1896C2.59292 93.1896 3.01001 94.0341 2.56225 94.6191L-2.20223 90.9722ZM3.06566 84.09L-2.20223 90.9722L2.56225 94.6191L7.83014 87.7369L3.06566 84.09ZM2.4479 82.0729V85.9134H8.4479V82.0729H2.4479ZM20.0577 55.8447C9.73184 60.0677 2.4479 70.2161 2.4479 82.0729H8.4479C8.4479 72.736 14.1802 64.7308 22.3289 61.3982L20.0577 55.8447ZM24.1887 58.7879C24.275 57.2353 25.4334 55.9362 26.9862 55.6861L26.032 49.7625C21.6815 50.4633 18.4399 54.1007 18.1979 58.455L24.1887 58.7879ZM26.9862 55.6861L28.9548 55.369L28.0006 49.4454L26.032 49.7625L26.9862 55.6861ZM28.9548 55.369C30.4177 55.1333 31.9089 55.1333 33.3719 55.369L34.3261 49.4454C32.2311 49.1079 30.0956 49.1079 28.0006 49.4454L28.9548 55.369ZM33.3719 55.369L35.3405 55.6861L36.2947 49.7625L34.3261 49.4454L33.3719 55.369ZM35.3405 55.6861C36.9528 55.9458 38.1389 57.3354 38.1432 58.9674L44.1432 58.9516C44.1312 54.3808 40.8096 50.4898 36.2947 49.7625L35.3405 55.6861Z" fill="currentColor" mask="url(#path-6-inside-1_1_1876)"/>
<path d="M23 60L23 66" stroke="currentColor" stroke-width="3" stroke-linecap="round"/>
<path d="M39.7225 60.1216L27.0593 71.9585H42.0249L32.2397 80.977" stroke="currentColor" stroke-width="3" stroke-linecap="round" stroke-linejoin="round"/>
</g>
<defs>
<clipPath id="clip0_1_1876">
<rect width="96" height="96" fill="white"/>
</clipPath>
</defs>
</svg>
