<svg width="96" height="96" viewBox="0 0 96 96" fill="none" aria-hidden="true" focusable="false" xmlns="http://www.w3.org/2000/svg">
<rect x="22" y="22" width="52" height="52" rx="26" fill="var(--pictogram, rgb(204 241 214))"/>
<rect x="50.75" y="6.5" width="39.5" height="48" stroke="#262626" stroke-width="3"/>
<path d="M64.125 19.5714L76.4196 19.5714" stroke="#262626" stroke-width="3"/>
<line x1="69.875" y1="13.5001" x2="69.875" y2="26.2501" stroke="#262626" stroke-width="3"/>
<line x1="69.875" y1="13.5001" x2="69.875" y2="26.2501" stroke="#262626" stroke-width="3"/>
<line x1="59.25" y1="30.5" x2="59.25" y2="34.75" stroke="#262626" stroke-width="3"/>
<line x1="80.5" y1="30.5" x2="80.5" y2="34.75" stroke="#262626" stroke-width="3"/>
<line x1="80.5" y1="39.0001" x2="80.5" y2="43.2501" stroke="#262626" stroke-width="3"/>
<line x1="69.875" y1="30.5" x2="69.875" y2="34.75" stroke="#262626" stroke-width="3"/>
<line x1="59.25" y1="39.0001" x2="59.25" y2="43.2501" stroke="#262626" stroke-width="3"/>
<line x1="69.875" y1="39.0001" x2="69.875" y2="43.2501" stroke="#262626" stroke-width="3"/>
<line x1="45" y1="54.5" x2="96" y2="54.5" stroke="#262626" stroke-width="3"/>
<path d="M22.5 70.5C29.8947 70.5 36.756 74.2002 43.0858 82C36.756 89.7998 29.8947 93.5 22.5 93.5C15.1053 93.5 8.24399 89.7998 1.91415 82C8.24399 74.2002 15.1053 70.5 22.5 70.5Z" stroke="#262626" stroke-width="3"/>
<path d="M30.4565 82C30.4565 86.1436 26.9491 89.6 22.5 89.6C18.0509 89.6 14.5435 86.1436 14.5435 82C14.5435 77.8565 18.0509 74.4 22.5 74.4C26.9491 74.4 30.4565 77.8565 30.4565 82Z" stroke="#262626" stroke-width="3"/>
</svg>
