<svg aria-hidden="true" focusable="false" xmlns="http://www.w3.org/2000/svg" width="64" height="64" fill="none" viewBox="0 0 64 64">
  <circle cx="32" cy="32" r="19" fill="var(--pictogram, #FFE6E6)"/>
  <path stroke="currentColor" stroke-linecap="round" stroke-linejoin="round" stroke-width="2" d="M1.33 1.33v35.34h29.34V7.22l-6.29-5.89H1.33Z"/>
  <path stroke="currentColor" stroke-linecap="round" stroke-linejoin="round" stroke-width="2" d="M22.86 1.33v7.81h7.8m-8.47 11.38a5.86 5.86 0 1 0-5.86 5.86"/>
  <path stroke="currentColor" stroke-linejoin="round" stroke-width="2" d="M36.61 52.57a.7.7 0 0 1-.12.79l-1.94 1.93a.67.67 0 0 0 0 .95l3.88 3.87c.26.26.68.26.94 0l1.94-1.93a.7.7 0 0 1 .8-.13c.43.22.88.4 1.34.56.28.1.48.36.48.65V62c0 .37.3.67.66.67h5.48c.37 0 .67-.3.67-.67v-2.74c0-.3.2-.55.47-.65.47-.16.92-.34 1.35-.56a.7.7 0 0 1 .8.13l1.93 1.93c.27.26.69.26.95 0l3.87-3.87a.67.67 0 0 0 0-.95l-1.93-1.93a.7.7 0 0 1-.13-.8c.22-.43.4-.88.56-1.35a.7.7 0 0 1 .65-.47H62c.37 0 .67-.3.67-.67V44.6c0-.37-.3-.66-.67-.66h-2.74a.7.7 0 0 1-.65-.48 11.3 11.3 0 0 0-.56-1.35.7.7 0 0 1 .13-.8l1.93-1.93a.67.67 0 0 0 0-.94l-3.87-3.88a.67.67 0 0 0-.94 0l-1.94 1.94a.7.7 0 0 1-.8.12c-.43-.21-.88-.4-1.35-.56a.7.7 0 0 1-.47-.65v-2.73c0-.37-.3-.67-.67-.67H44.6c-.37 0-.66.3-.66.67v2.73c0 .3-.2.56-.48.65-.46.16-.91.35-1.35.56a.7.7 0 0 1-.8-.12l-1.93-1.94a.67.67 0 0 0-.94 0l-3.88 3.88a.67.67 0 0 0 0 .94l1.94 1.94c.2.2.25.53.12.8-.21.43-.4.88-.56 1.34a.7.7 0 0 1-.65.48h-2.73c-.37 0-.67.3-.67.66v5.48c0 .37.3.67.67.67h2.73c.3 0 .56.2.65.47.16.47.35.92.56 1.36Z"/>
  <path stroke="currentColor" stroke-linejoin="round" stroke-width="2" d="M50.74 47.33a3.4 3.4 0 1 1-6.81 0 3.4 3.4 0 0 1 6.81 0Z"/>
</svg>
