<svg aria-hidden="true" focusable="false" xmlns="http://www.w3.org/2000/svg" width="64" height="64" fill="none" viewBox="0 0 64 64">
  <circle cx="32" cy="32" r="18.67" fill="var(--pictogram, #FFE6E6)"/>
  <path stroke="currentColor" stroke-linecap="round" stroke-linejoin="round" stroke-width="2" d="M6.13 21.87h1.71m-1.7 6.84h1.7m5.14 0h1.7m5.14 0h1.71m-8.55-6.84h1.7m5.14 0h1.71M7 8.17h13.69v6.85H6.98V8.18Zm-4.3 27.4h22.25c.94 0 1.7-.77 1.7-1.72V3.04c0-.94-.76-1.7-1.7-1.7H2.7A1.7 1.7 0 0 0 1 3.03v30.8c0 .95.77 1.72 1.71 1.72Z"/>
  <path stroke="currentColor" stroke-linejoin="round" stroke-width="2" d="M30.67 46.81c0-1.06.86-1.92 1.92-1.92h3.26c1.07 0 1.93.86 1.93 1.92v13.93c0 1.06-.86 1.93-1.93 1.93H32.6a1.93 1.93 0 0 1-1.92-1.93V46.81ZM43.11 32.6c0-1.07.86-1.93 1.93-1.93h3.26c1.06 0 1.92.86 1.92 1.92v28.15c0 1.06-.86 1.93-1.92 1.93h-3.26a1.93 1.93 0 0 1-1.93-1.93V32.6Zm12.45 7.1c0-1.06.86-1.92 1.92-1.92h3.26c1.06 0 1.93.86 1.93 1.92v21.04c0 1.06-.87 1.93-1.93 1.93h-3.26a1.93 1.93 0 0 1-1.92-1.93V39.7Z"/>
</svg>
