<svg width="96" height="96" viewBox="0 0 96 96" fill="none" aria-hidden="true" focusable="false" xmlns="http://www.w3.org/2000/svg">
<g clip-path="url(#clip0_74_1010)">
<path d="M41.0917 26.5103C43.5051 30.4488 40.9433 36.0994 35.3698 39.1313C29.7963 42.1632 23.3217 41.4282 20.9083 37.4897C18.4949 33.5512 21.0567 27.9006 26.6302 24.8687C32.2037 21.8368 38.6783 22.5718 41.0917 26.5103Z" fill="var(--pictogram, rgb(204 241 214))"/>
<path d="M69.0092 53.7053C71.642 57.8627 68.8473 63.8272 62.7671 67.0275C56.6869 70.2278 49.6236 69.452 46.9908 65.2947C44.358 61.1373 47.1527 55.1728 53.2329 51.9725C59.3131 48.7722 66.3764 49.548 69.0092 53.7053Z" fill="var(--pictogram, rgb(204 241 214))"/>
<path d="M22 81V33" stroke="#CCF1D6" stroke-width="4"/>
<path d="M68 57V9" stroke="#CCF1D6" stroke-width="4"/>
<path d="M94 15.6667C94 8.11877 87.9932 2 80.5833 2C76.8286 2 73.434 3.57114 71.0012 6.10323C68.566 3.57114 65.1714 2 61.4167 2C54.0068 2 48 8.11877 48 15.6667C48 19.4924 49.5432 22.9509 52.0301 25.4317L71 43L89.9699 25.4317C92.4568 22.9509 94 19.4924 94 15.6667Z" stroke="currentColor" stroke-width="3"/>
<path d="M58 95.9999V66.2394C58 65.6871 57.5523 65.2394 57 65.2394H3C2.44772 65.2394 2 65.6871 2 66.2394V95.9999" stroke="currentColor" stroke-width="3"/>
<path d="M52.9091 65.2394V55C52.9091 53.3431 51.566 52 49.9091 52H10.0909C8.43409 52 7.09094 53.3431 7.09094 55V65.2394" stroke="currentColor" stroke-width="3"/>
<path d="M27.3711 65.2191V64.2414C27.3711 60.001 23.9335 56.5634 19.693 56.5634V56.5634C15.4525 56.5634 12.0149 60.001 12.0149 64.2414V65.2191" stroke="currentColor" stroke-width="3"/>
<path d="M48.0686 65.2191V64.2414C48.0686 60.001 44.631 56.5634 40.3905 56.5634V56.5634C36.15 56.5634 32.7124 60.001 32.7124 64.2414V65.2191" stroke="currentColor" stroke-width="3"/>
<path d="M2 87.75H58" stroke="currentColor" stroke-width="3"/>
</g>
<defs>
<clipPath id="clip0_74_1010">
<rect width="96" height="96" fill="white"/>
</clipPath>
</defs>
</svg>
