<svg width="96" height="96" viewBox="0 0 96 96" fill="none" aria-hidden="true" focusable="false" xmlns="http://www.w3.org/2000/svg">
<g clip-path="url(#clip0_1_3363)">
<path d="M41 13H57V77H41V13Z" fill="var(--pictogram, rgb(204 241 214))"/>
<rect x="16" y="13" width="64" height="14" fill="var(--pictogram, rgb(204 241 214))"/>
<path d="M35.4957 55.4878L23.3388 59.9795C23.302 59.9931 23.2668 60.0067 23.2303 60.021C22.7432 60.2122 19.0195 61.637 16.1791 61.637C9.66598 61.637 4 66.889 4 73.6368V90H44.3421C44.9563 90 45.5621 89.8586 46.1128 89.5867L70.3211 77.6356C72.3984 76.6101 73.3386 74.1603 72.4808 72.0084C71.6203 69.8499 69.2416 68.7195 67.0246 69.4155L46.6269 75.8195H31.9605C27.8321 75.8195 26.4435 70.3028 30.08 68.3484L39.1065 63.497C41.0782 62.4373 41.9412 60.0669 41.1122 57.9875C40.2277 55.769 37.736 54.66 35.4957 55.4878Z" stroke="currentColor" stroke-width="3"/>
<path d="M59.2723 27.496L73.44 13.3283C75.0049 11.7634 75.0049 9.2262 73.44 7.66129V7.66129C71.8751 6.09637 69.3378 6.09637 67.7729 7.66129L47.9382 27.496" stroke="currentColor" stroke-width="3" stroke-linecap="round"/>
<path d="M45.1048 24.6587L43.6271 24.4009C43.5628 24.7693 43.6385 25.1485 43.8393 25.464L45.1048 24.6587ZM46.5967 41.9335C46.2262 42.6745 46.5265 43.5755 47.2675 43.946C48.0085 44.3165 48.9095 44.0162 49.28 43.2752L46.5967 41.9335ZM34.7473 25.5009L33.3162 25.0514L34.7473 25.5009ZM48.0687 29.3162L46.8032 30.1215L48.0687 29.3162ZM38.8812 12.3381L37.4502 11.8886L38.8812 12.3381ZM44.5909 18.8757L43.6271 24.4009L46.5825 24.9165L47.5463 19.3912L44.5909 18.8757ZM36.1784 25.9503L40.3123 12.7875L37.4502 11.8886L33.3162 25.0514L36.1784 25.9503ZM33.2116 25.5742L31.3323 46.2466L34.32 46.5182L36.1993 25.8458L33.2116 25.5742ZM43.8393 25.464L46.8032 30.1215L49.3342 28.5109L46.3703 23.8534L43.8393 25.464ZM47.3362 40.4545L46.5967 41.9335L49.28 43.2752L50.0195 41.7961L47.3362 40.4545ZM33.3162 25.0514C33.2628 25.2215 33.2278 25.3967 33.2116 25.5742L36.1993 25.8458C36.1961 25.8813 36.1891 25.9163 36.1784 25.9503L33.3162 25.0514ZM40.6176 12.6207C43.3577 13.368 45.079 16.0777 44.5909 18.8757L47.5463 19.3912C48.3004 15.068 45.6407 10.8811 41.4069 9.72642L40.6176 12.6207ZM46.8032 30.1215C48.7833 33.2332 48.9857 37.1556 47.3362 40.4545L50.0195 41.7961C52.1402 37.5547 51.8801 32.5116 49.3342 28.5109L46.8032 30.1215ZM41.4069 9.72642C39.7213 9.26669 37.9737 10.2217 37.4502 11.8886L40.3123 12.7875C40.3527 12.6589 40.4875 12.5852 40.6176 12.6207L41.4069 9.72642Z" fill="currentColor"/>
<path d="M63.8788 32.103C63.293 32.6888 63.293 33.6386 63.8788 34.2244C64.4646 34.8101 65.4143 34.8101 66.0001 34.2244L63.8788 32.103ZM79.9355 16.0464L63.8788 32.103L66.0001 34.2244L82.0568 18.1677L79.9355 16.0464ZM62.2221 26.6683L76.3897 12.5006L74.2684 10.3793L60.1008 24.547L62.2221 26.6683ZM79.9355 12.5006C80.9146 13.4798 80.9146 15.0672 79.9355 16.0464L82.0568 18.1677C84.2075 16.017 84.2075 12.53 82.0568 10.3793L79.9355 12.5006ZM82.0568 10.3793C79.9061 8.22861 76.4191 8.22862 74.2684 10.3793L76.3897 12.5006C77.3689 11.5215 78.9563 11.5215 79.9355 12.5006L82.0568 10.3793Z" fill="currentColor"/>
<path d="M72.4956 36.9405L84.7742 24.6618C86.3391 23.0969 86.3391 20.5597 84.7742 18.9948V18.9948C83.2093 17.4299 80.6721 17.4299 79.1071 18.9948L66.8285 31.2734" stroke="currentColor" stroke-width="3"/>
<path d="M69.5458 37.7678C68.96 38.3536 68.96 39.3034 69.5458 39.8891C70.1316 40.4749 71.0813 40.4749 71.6671 39.8891L69.5458 37.7678ZM86.6833 34.1126L85.6176 33.057L86.6833 34.1126ZM85.6176 33.057L60.3546 58.5615L62.486 60.6727L87.749 35.1682L85.6176 33.057ZM71.6671 39.8891L82.05 29.5063L79.9287 27.385L69.5458 37.7678L71.6671 39.8891ZM85.6092 29.5063C86.5887 30.4858 86.5925 32.0728 85.6176 33.057L87.749 35.1682C89.886 33.0108 89.8777 29.5321 87.7305 27.385L85.6092 29.5063ZM87.7305 27.385C85.5761 25.2305 82.0831 25.2305 79.9287 27.385L82.05 29.5063C83.0328 28.5234 84.6263 28.5234 85.6092 29.5063L87.7305 27.385Z" fill="currentColor"/>
</g>
<defs>
<clipPath id="clip0_1_3363">
<rect width="96" height="96" fill="white"/>
</clipPath>
</defs>
</svg>
