<svg aria-hidden="true" focusable="false" xmlns="http://www.w3.org/2000/svg" width="96" height="96" viewBox="0 0 96 96" preserveAspectRatio="xMidYMid meet">
  <path fill="var(--pictogram, #CCE2F0)" d="M48 61.17c6.07 0 11 4.88 11 10.91S54.07 83 48 83s-11-4.89-11-10.92 4.93-10.91 11-10.91zm0-30.31c-3.99 0-6 2.83-6 4.82H24C24 22.5 35.44 13 48 13c12.55 0 24 9.5 24 22.68a22 22 0 0 1-7.29 16.27l-.03.04-.04.03-.07.06.07-.06-.01.01-.02.02-.04.03a13.89 13.89 0 0 1-.44.38c-.27.22-.63.52-1.08.86-.89.68-2.14 1.59-3.69 2.52l-.08.05a72.3 72.3 0 0 0-2.3 1.44v.95H55.7l-.07.06.05-.06h-16.7V55.6l.04-1.5a11.42 11.42 0 0 1 2.64-7 19.43 19.43 0 0 1 3.2-3.1 51.92 51.92 0 0 1 4.94-3.3l.2-.11a22.36 22.36 0 0 0 2.53-1.79l.04-.03a4.19 4.19 0 0 0 1.43-3.1c0-1.98-2-4.8-6-4.8z"/>
  <path fill="none" stroke="currentColor" stroke-width="3" d="M58.5 41.5a20 20 0 1 1 0 40 20 20 0 0 1 0-40zm14.56 33.44 20 20"/>
  <path fill="currentColor" d="M5.95 11.5 9.53 16l7.25-7.02-2.09-2.15-4.87 4.72L8.3 9.64 5.95 11.5zm11.15 2.83h11.4v-3H17.1m0 12.17h11.4v-3H17.1m0 12.17h11.4v-3H17.1"/>
  <path fill="#FFF" d="M36 47H1.99h34.02z"/>
  <path fill="currentColor" d="M3 3h32v38H3V3zm33-3H2a2 2 0 0 0-2 2v40c0 1.1.9 2 2 2h34a2 2 0 0 0 2-2V2a2 2 0 0 0-2-2z"/>
  <path fill="currentColor" d="M11.5 20.17c1.1 0 2 .86 2 1.93 0 1.06-.9 1.93-2 1.93s-2-.87-2-1.93c0-1.07.9-1.93 2-1.93zm0 8.78c1.1 0 2 .86 2 1.93 0 1.06-.9 1.93-2 1.93s-2-.87-2-1.93c0-1.07.9-1.93 2-1.93z"/>
</svg>
