<svg xmlns="http://www.w3.org/2000/svg" width="96" height="96" fill="none" viewBox="0 0 96 96">
  <path fill="var(--pictogram, #CCF1D6)" d="M16 36h64v24H16z"/>
  <path fill="var(--pictogram, #CCF1D6)" d="M60 16v64H36V16z"/>
  <circle cx="50.4" cy="75.2" r="8.7" stroke="#262626" stroke-width="3"/>
  <path stroke="#262626" stroke-width="3" d="M12.2 36H7a5 5 0 0 0-5 5v15.4a12.7 12.7 0 0 0 25.5 0V41a5 5 0 0 0-5.1-5.1h-5.1"/>
  <path stroke="#262626" stroke-width="3" d="M14.7 67.5V88A5 5 0 1 0 25 88v-3.8c0-5 4-9 9-9h8.8"/>
  <rect width="45" height="39" x="49.5" y="7.5" stroke="#262626" stroke-width="3" rx="2"/>
  <path stroke="#262626" stroke-width="3" d="M50 22.5h44"/>
  <path stroke="#262626" stroke-linecap="round" stroke-width="3" d="M62 2v12m0 16h-4m4 8h-4m16-8h-4m4 8h-4m16-8h-4m4 8h-4m0-36v12"/>
</svg>
