<svg width="96" height="96" viewBox="0 0 96 96" fill="none" aria-hidden="true" focusable="false" xmlns="http://www.w3.org/2000/svg">
<path fill-rule="evenodd" clip-rule="evenodd" d="M55.173 20.9272L49 48.5L75.0854 40.875C75.6822 43.1499 76 45.5379 76 48C76 63.464 63.464 76 48 76C32.536 76 20 63.464 20 48C20 32.536 32.536 20 48 20C50.4795 20 52.8837 20.3223 55.173 20.9272Z" fill="var(--pictogram, rgb(204 241 214))"/>
<path d="M50.8938 52.4629L58.2886 80.0606L11.3527 92.6371L3.95789 65.0393L33.888 57.0195" stroke="currentColor" stroke-width="3"/>
<path d="M38.0586 64.7754C39.266 69.2814 36.52 73.9874 31.8441 75.2403C27.1682 76.4932 22.4371 73.7907 21.2297 69.2847C20.0223 64.7786 22.7683 60.0726 27.4442 58.8197C32.1201 57.5668 36.8512 60.2693 38.0586 64.7754Z" stroke="currentColor" stroke-width="3"/>
<path d="M50.528 51.4514C51.7992 56.1958 49.0338 61.0213 44.4059 62.2613C39.778 63.5014 34.9703 60.7051 33.6991 55.9607C32.4278 51.2163 35.1933 46.3908 39.8212 45.1507C44.449 43.9107 49.2567 46.707 50.528 51.4514Z" stroke="currentColor" stroke-width="3"/>
<circle cx="76" cy="20" r="18.5" stroke="currentColor" stroke-width="3"/>
<line x1="66" y1="20.5" x2="86" y2="20.5" stroke="currentColor" stroke-width="3"/>
<line x1="75.5" y1="10" x2="75.5" y2="30" stroke="currentColor" stroke-width="3"/>
</svg>
