<svg width="96" height="96" viewBox="0 0 96 96" fill="none" aria-hidden="true" focusable="false" xmlns="http://www.w3.org/2000/svg">
<g clip-path="url(#clip0_1_1744)">
<path fill-rule="evenodd" clip-rule="evenodd" d="M53.8333 19L56.7213 27.6604C57.1272 27.8146 57.5273 27.9805 57.9212 28.1579L66.0884 24.0762L72.9238 30.9116L68.8421 39.0788C69.0195 39.4727 69.1854 39.8728 69.3396 40.2787L78 43.1667V52.8333L69.3387 55.7237C69.1845 56.1296 69.0184 56.5297 68.841 56.9236L72.9238 65.0884L66.0884 71.9238L57.9236 67.841C57.5297 68.0184 57.1296 68.1845 56.7237 68.3387L53.8333 77H44.1667L41.2787 68.3396C40.8728 68.1854 40.4727 68.0195 40.0788 67.8421L31.9116 71.9238L25.0762 65.0884L29.1579 56.9212C28.9805 56.5273 28.8146 56.1272 28.6604 55.7213L20 52.8333V43.1667L28.6595 40.2811C28.8139 39.8744 28.9802 39.4735 29.1579 39.0788L25.0762 30.9116L31.9116 24.0762L40.0788 28.1579C40.4735 27.9802 40.8744 27.8139 41.2811 27.6595L44.1667 19H53.8333Z" fill="var(--pictogram, rgb(204 241 214))"/>
<rect x="49.5" y="9.5" width="45" height="33" rx="2.5" stroke="currentColor" stroke-width="3"/>
<path d="M80 10V4C80 2.89543 79.1046 2 78 2H66C64.8954 2 64 2.89543 64 4V10" stroke="currentColor" stroke-width="3"/>
<path d="M64 26H80" stroke="currentColor" stroke-width="3"/>
<path d="M72 18L72 34" stroke="currentColor" stroke-width="3"/>
<circle cx="20.25" cy="35" r="14.5" stroke="currentColor" stroke-width="3"/>
<path d="M38 75V75C38 65.0589 29.9411 57 20 57V57C10.0589 57 2 65.0589 2 75V96" stroke="currentColor" stroke-width="3"/>
<rect x="14.5" y="79.5" width="27" height="15" rx="6.5" stroke="currentColor" stroke-width="3"/>
<line x1="29.4423" y1="59.4121" x2="23.4423" y2="80.4121" stroke="currentColor" stroke-width="3"/>
<path d="M21.6174 79.5002L25.1174 94.5002" stroke="currentColor" stroke-width="3"/>
<path d="M30.6174 79.5002L34.1174 94.5002" stroke="currentColor" stroke-width="3"/>
</g>
<defs>
<clipPath id="clip0_1_1744">
<rect width="96" height="96" fill="white"/>
</clipPath>
</defs>
</svg>
