<svg xmlns="http://www.w3.org/2000/svg" width="24" height="25" fill="none" viewBox="0 0 24 25" aria-hidden="true" focusable="false">
  <path fill="currentColor" fill-rule="evenodd" d="M7.75 5.5c0-.97.78-1.75 1.75-1.75h5c.97 0 1.75.78 1.75 1.75v1.25H21c.41 0 .75.34.75.75v3a.75.75 0 0 1-1.5 0V8.25H3.75v4.5H7.5a.75.75 0 0 1 0 1.5H5.25v4.5H8.5a.75.75 0 0 1 0 1.5h-4a.75.75 0 0 1-.75-.75v-5.25H3a.75.75 0 0 1-.75-.75v-6c0-.41.34-.75.75-.75h4.75V5.5Zm7 0v1.25h-5.5V5.5c0-.14.11-.25.25-.25h5c.14 0 .25.11.25.25Zm.25 5.75a4.25 4.25 0 1 0 0 8.5 4.25 4.25 0 0 0 0-8.5ZM9.25 15.5a5.75 5.75 0 1 1 11.5 0 5.75 5.75 0 0 1-11.5 0Zm6.5-2.5a.75.75 0 0 0-1.5 0v2.5c0 .2.08.39.22.53l1 1a.75.75 0 1 0 1.06-1.06l-.78-.78V13Z" clip-rule="evenodd"/>
</svg>