<svg width="24" height="24" viewBox="0 0 24 24" fill="none" xmlns="http://www.w3.org/2000/svg" focusable="false" aria-hidden="true"><path fill-rule="evenodd" clip-rule="evenodd" d="M4.25 4c0-.966.784-1.75 1.75-1.75h12c.966 0 1.75.784 1.75 1.75v16A1.75 1.75 0 0 1 18 21.75H6A1.75 1.75 0 0 1 4.25 20V4ZM6 3.75a.25.25 0 0 0-.25.25v16c0 .138.112.25.25.25h12a.25.25 0 0 0 .25-.25V4a.25.25 0 0 0-.25-.25H6ZM8 11a1 1 0 1 1 2 0 1 1 0 0 1-2 0Zm1 2a1 1 0 1 0 0 2 1 1 0 0 0 0-2Zm-1 4a1 1 0 1 1 2 0 1 1 0 0 1-2 0Zm4-7a1 1 0 1 0 0 2 1 1 0 0 0 0-2Zm-1 4a1 1 0 1 1 2 0 1 1 0 0 1-2 0Zm1 2a1 1 0 1 0 0 2 1 1 0 0 0 0-2Zm2-5a1 1 0 1 1 2 0 1 1 0 0 1-2 0Zm1 2a1 1 0 1 0 0 2 1 1 0 0 0 0-2Zm-1 4a1 1 0 1 1 2 0 1 1 0 0 1-2 0ZM8.5 6.25a.75.75 0 0 0 0 1.5h7a.75.75 0 0 0 0-1.5h-7Z" fill="currentColor"></path></svg>