<svg xmlns="http://www.w3.org/2000/svg" width="24" height="24" fill="none" viewBox="0 0 24 24" aria-hidden="true" focusable="false"><path fill="currentColor" fill-rule="evenodd" d="M12 2.75c.41 0 .75.34.75.75v8.69l3.22-3.22a.75.75 0 1 1 1.06 1.06l-4.5 4.5c-.3.3-.77.3-1.06 0l-4.5-4.5a.75.75 0 1 1 1.06-1.06l3.22 3.22V3.5c0-.41.34-.75.75-.75ZM4.75 15.5a.75.75 0 0 0-1.5 0V19c0 .97.78 1.75 1.75 1.75h14c.97 0 1.75-.78 1.75-1.75v-3.5a.75.75 0 0 0-1.5 0V19c0 .14-.11.25-.25.25H5a.25.25 0 0 1-.25-.25v-3.5Z" clip-rule="evenodd"/></svg>
