<svg width="24" height="25" viewBox="0 0 24 25" fill="none" xmlns="http://www.w3.org/2000/svg" aria-hidden="true" focusable="false">
<path fill-rule="evenodd" clip-rule="evenodd" d="M7.75 4.25V8C7.75 8.41421 7.41421 8.75 7 8.75C6.58579 8.75 6.25 8.41421 6.25 8V4C6.25 3.30964 6.80964 2.75 7.5 2.75H16.5C17.1904 2.75 17.75 3.30964 17.75 4V11C17.75 11.4142 17.4142 11.75 17 11.75C16.5858 11.75 16.25 11.4142 16.25 11V4.25H7.75ZM6 11.25C5.86193 11.25 5.75 11.3619 5.75 11.5V20.75H18.25V14.25H12C11.5858 14.25 11.25 13.9142 11.25 13.5V11.5C11.25 11.3619 11.1381 11.25 11 11.25H6ZM4.25 11.5C4.25 10.5335 5.0335 9.75 6 9.75H11C11.9665 9.75 12.75 10.5335 12.75 11.5V12.75H18.5C19.1904 12.75 19.75 13.3096 19.75 14V21C19.75 21.6904 19.1904 22.25 18.5 22.25H5.5C4.80964 22.25 4.25 21.6904 4.25 21V11.5ZM10 5.25C9.58579 5.25 9.25 5.58579 9.25 6C9.25 6.41421 9.58579 6.75 10 6.75H14C14.4142 6.75 14.75 6.41421 14.75 6C14.75 5.58579 14.4142 5.25 14 5.25H10Z" fill="currentColor"/>
</svg>
