<svg xmlns="http://www.w3.org/2000/svg" width="20" height="20" fill="none" viewBox="0 0 20 20" aria-hidden="true" focusable="false"><path fill="currentColor" d="M17.6 3.5c-.4 1.1-1.2 3-2.4 3.5h-.3c-.9-.2-1.8.2-2.2.4.2.3.4.7.6 1.5l.7-.1a.4.4 0 0 1 .5 0c1 1-.3 2.4-1.1 3.3l-.4.4v.1c.3.2.5.4.5.7 0 .3 0 .5-.3.7-.3.4-.7.7-1.1.9-.1 1.4-1.2 2.2-3 2.2-.7 0-1.6-2-1.6-2.5 0-.3.1-.6.3-.8l.1-.5-.7-1-.1-.2c0-.4 0-.6-.2-.7-.2-.2-.7-.2-1.2-.2H5c-1.3 0-1.7-1.3-1.7-2 0-.2 0-3.3 2.5-3.8 1-.2 1.8-.1 2.2.2.2.1.2.3.3.4.4.3 1.2.2 2 0l.6-.1V4.2c-.5.2-1 .2-1.4 0-.4-.3-.7-.7-.7-1.2C8.6 1.8 11 .8 12.5.3A10 10 0 0 0 0 10a10 10 0 1 0 17.6-6.5Z"/></svg>
