<svg xmlns="http://www.w3.org/2000/svg" width="24" height="24" fill="none" viewBox="0 0 24 24" aria-hidden="true" focusable="false"><path fill="currentColor" fill-rule="evenodd" d="M14.75 4c0-.41.34-.75.75-.75H19c.97 0 1.75.78 1.75 1.75v14c0 .97-.78 1.75-1.75 1.75h-3.5a.75.75 0 0 1 0-1.5H19c.14 0 .25-.11.25-.25V5a.25.25 0 0 0-.25-.25h-3.5a.75.75 0 0 1-.75-.75Zm-12 8c0-.41.34-.75.75-.75h9.69L9.97 8.03a.75.75 0 0 1 1.06-1.06l4.5 4.5c.3.3.3.77 0 1.06l-4.5 4.5a.75.75 0 1 1-1.06-1.06l3.22-3.22H3.5a.75.75 0 0 1-.75-.75Z" clip-rule="evenodd"/></svg>
