<svg xmlns="http://www.w3.org/2000/svg" width="24" height="24" fill="none" viewBox="0 0 24 24" aria-hidden="true" focusable="false"><path fill="currentColor" fill-rule="evenodd" d="M3.25 5c0-.97.78-1.75 1.75-1.75h3.5a.75.75 0 0 1 0 1.5H5a.25.25 0 0 0-.25.25v14c0 .14.11.25.25.25h3.5a.75.75 0 0 1 0 1.5H5c-.97 0-1.75-.78-1.75-1.75V5Zm4.5 7c0-.41.34-.75.75-.75h9.69l-3.22-3.22a.75.75 0 0 1 1.06-1.06l4.5 4.5c.3.3.3.77 0 1.06l-4.5 4.5a.75.75 0 1 1-1.06-1.06l3.22-3.22H8.5a.75.75 0 0 1-.75-.75Z" clip-rule="evenodd"/></svg>
