<svg width="24" height="24" viewBox="0 0 24 24" fill="none" xmlns="http://www.w3.org/2000/svg" focusable="false" aria-hidden="true"><path fill-rule="evenodd" clip-rule="evenodd" d="M9 3.75a3.75 3.75 0 1 0 0 7.5 3.75 3.75 0 0 0 0-7.5ZM3.75 7.5a5.25 5.25 0 1 1 10.5 0 5.25 5.25 0 0 1-10.5 0ZM9 15.75A5.25 5.25 0 0 0 3.75 21a.75.75 0 0 1-1.5 0 6.75 6.75 0 0 1 13.5 0 .75.75 0 0 1-1.5 0A5.25 5.25 0 0 0 9 15.75Zm7.214-10.824a.75.75 0 1 0-.428 1.438A2.752 2.752 0 0 1 15 11.75a.75.75 0 0 0-.75.75v1a.75.75 0 0 0 .75.75 4.25 4.25 0 0 1 4.25 4.25.75.75 0 0 0 1.5 0 5.75 5.75 0 0 0-4.206-5.539 4.251 4.251 0 0 0-.33-8.035Z" fill="currentColor"></path></svg>