<svg width="24" height="24" viewBox="0 0 24 24" fill="none" xmlns="http://www.w3.org/2000/svg" focusable="false" aria-hidden="true"><path fill-rule="evenodd" clip-rule="evenodd" d="M6.116 2.823a1.25 1.25 0 0 1 1.768 0l3.793 3.793a1.25 1.25 0 0 1 0 1.768L10.06 10 14 13.94l1.616-1.617a1.25 1.25 0 0 1 1.768 0l3.793 3.793a1.25 1.25 0 0 1 0 1.768l-2.781 2.78a2.606 2.606 0 0 1-2.811.578A23.025 23.025 0 0 1 2.758 8.415a2.606 2.606 0 0 1 .577-2.81l2.781-2.782.53.53-.53-.53ZM7 4.061 4.396 6.665c-.313.313-.41.782-.245 1.193a21.525 21.525 0 0 0 11.991 11.991c.411.164.88.068 1.193-.245L19.94 17 16.5 13.56l-1.97 1.97a.75.75 0 0 1-1.06 0l-5-5a.75.75 0 0 1 0-1.06l1.97-1.97L7 4.06Z" fill="currentColor"></path></svg>