<svg xmlns="http://www.w3.org/2000/svg" width="24" height="24" fill="none" viewBox="0 0 24 24" aria-hidden="true" focusable="false">
  <path fill="currentColor" fill-rule="evenodd" d="m8.33 3.87.64 1.9A5.76 5.76 0 0 0 5.6 9.3c-.81 2.12-.86 4.8-.86 7.2a4.1 4.1 0 0 0-.42.25c-.42.28-1.08.85-1.08 1.75 0 .77.39 1.32.72 1.66a3.03 3.03 0 0 0 .67.5h.02v.01c.1.05.22.08.34.08h14a.8.8 0 0 0 .34-.08L19 20l.34.67.02-.01a2 2 0 0 0 .21-.13c.13-.08.3-.2.46-.37.33-.34.72-.9.72-1.66 0-.9-.66-1.47-1.08-1.75a4.1 4.1 0 0 0-.42-.24c0-2.4-.05-5.09-.86-7.2a5.76 5.76 0 0 0-3.35-3.54l.63-1.9a1.78 1.78 0 0 0-1.98-2.3c-.68.1-1.33.18-1.69.18-.36 0-1.01-.08-1.69-.19a1.78 1.78 0 0 0-1.98 2.31Zm1.75-.83c-.23-.03-.38.19-.32.36l.65 1.97a9.67 9.67 0 0 1 3.18 0l.65-1.97c.06-.17-.1-.4-.32-.36-.66.1-1.42.21-1.92.21s-1.26-.1-1.92-.2Zm8.7 16.21.19-.16a.84.84 0 0 0 .28-.59c0-.1-.09-.28-.42-.5a2.79 2.79 0 0 0-.56-.29h-.01a.75.75 0 0 1-.51-.71c0-2.61-.01-5.2-.76-7.16a4.6 4.6 0 0 0-1.66-2.23A5.72 5.72 0 0 0 12 6.75c-1.51 0-2.57.34-3.33.86A4.61 4.61 0 0 0 7 9.84c-.75 1.95-.76 4.55-.76 7.16 0 .32-.2.6-.51.71l-.03.01a2.76 2.76 0 0 0-.54.28c-.33.22-.42.4-.42.5 0 .23.11.43.28.6l.18.15h13.6ZM11 9.75a.75.75 0 0 0-.75.75V16a.75.75 0 1 0 1.5 0v-1.75h.75v-.75.75h.04a2.08 2.08 0 0 0 .32-.03c.19-.04.45-.1.73-.24.27-.13.57-.35.8-.7.23-.34.36-.77.36-1.28a2.07 2.07 0 0 0-1.16-1.98 2.6 2.6 0 0 0-1.05-.27h-.03l-.01.75v-.75H11Zm1.5 3h-.75v-1.5h.76a1.07 1.07 0 0 1 .4.1c.1.06.18.12.23.2.05.07.11.2.11.45 0 .24-.06.38-.1.45a.57.57 0 0 1-.24.2 1.1 1.1 0 0 1-.42.1Z" clip-rule="evenodd"/>
</svg>