<svg xmlns="http://www.w3.org/2000/svg" width="24" height="24" fill="none" viewBox="0 0 24 24" aria-hidden="true" focusable="false" role="img">
  <path stroke="currentColor" stroke-linejoin="round" stroke-width="1.5" d="M10 16.5h3c2.5 0 2.5-3.5 0-3.5h-3c-.55 0-1.18-.45-1.69-.67A6.1 6.1 0 0 0 6 12c-3 0-3 2.5-3 2.5V19l3 1h9.3a2 2 0 0 0 1.25-.44l3.84-3.07a1.63 1.63 0 0 0-1.78-2.7L14 16.26"/>
  <path stroke="currentColor" stroke-width="1.5" d="M12 10 9 7c-2-2-.75-3.25-.5-3.5S10 2 12 4c2-2 3.25-.75 3.5-.5S17 5 15 7l-3 3Z"/>
</svg>
