<svg xmlns="http://www.w3.org/2000/svg" width="24" height="24" fill="none" viewBox="0 0 24 24" aria-hidden="true" focusable="false">
  <path stroke="currentColor" stroke-miterlimit="16" stroke-width="1.5" d="M4.5 13v5.5c0 .28.22.5.5.5h14a.5.5 0 0 0 .5-.5V13"/>
  <path stroke="currentColor" stroke-linecap="round" stroke-miterlimit="16" stroke-width="1.5" d="M12 11v4"/>
  <path stroke="currentColor" stroke-miterlimit="16" stroke-width="1.5" d="M20.5 7h-17a.5.5 0 0 0-.5.5v5c0 .28.22.5.5.5h17a.5.5 0 0 0 .5-.5v-5a.5.5 0 0 0-.5-.5Zm-12 0V5a1 1 0 0 1 1-1h5a1 1 0 0 1 1 1v2"/>
</svg>
