<svg xmlns="http://www.w3.org/2000/svg" width="24" height="25" fill="none" viewBox="0 0 24 25">
  <path fill="currentColor" fill-rule="evenodd" d="M15 16a7 7 0 0 1 7 8h-2.1a5 5 0 0 0-4.9-6 5 5 0 0 0-4.5 2.8c.8.8 1.4 2 1.5 3.2h-2a3.5 3.5 0 0 0-7 0H1a5.5 5.5 0 0 1 8-4.4 7 7 0 0 1 6-3.6ZM5.5.3l7.7 4.8L18 3.7c1.9-.5 4 0 5.4 1.6.7.8.8 2 .1 2.8-.2.3-.4.5-.8.6l-14.2 4c-1.8.6-3.8.1-5.2-1.1l-2.1.6-.6-2 1.2-.3-.2-.4L0 5.8l2.5-.7c.6-.2 1.2 0 1.7.4l2.4 1.6.2-.1-5-5.6 1.5-1A2 2 0 0 1 5.5.3Zm.3 2.6L11 8.6l-2 .7-.7-.7-2 .7L3 7h-.2l.6 1.5v.1l.5.6 1.5-.4.5 1.9a4 4 0 0 0 1.9.1H8l14-4.1c-1-1-2.1-1.4-3.2-1.2h-.2L13 7.4 5.8 3Z" clip-rule="evenodd"/>
</svg>
