<svg xmlns="http://www.w3.org/2000/svg" width="24" height="24" fill="none" viewBox="0 0 24 24" aria-hidden="true" focusable="false">
<path fill="currentColor" fill-rule="evenodd" d="M4.25 3.5c0-.69.56-1.25 1.25-1.25h13c.69 0 1.25.56 1.25 1.25v17c0 .69-.56 1.25-1.25 1.25h-13c-.69 0-1.25-.56-1.25-1.25v-17Zm6.85 3.95a.75.75 0 1 0-1.2-.9l-.98 1.3-.39-.38a.75.75 0 0 0-1.06 1.06l1 1a.75.75 0 0 0 1.13-.08l1.5-2Zm1.9 1.3a.75.75 0 0 1 0-1.5h2.5a.75.75 0 0 1 0 1.5H13Zm-3.99 4H9a.75.75 0 0 1 0-1.5h.01a.75.75 0 0 1 0 1.5Zm2.99-1.5a.75.75 0 0 0 0 1.5h3.5a.75.75 0 0 0 0-1.5H12Zm0 4a.75.75 0 0 0 0 1.5h3.5a.75.75 0 0 0 0-1.5H12Zm-3 0a.75.75 0 0 0 0 1.5h.01a.75.75 0 0 0 0-1.5H9Z" clip-rule="evenodd"/>
</svg>
