<svg xmlns="http://www.w3.org/2000/svg" width="224" height="136" fill="none" viewBox="0 0 224 136">
  <g class="c-area-card__arrow">
    <path fill="#99C4DD" d="M34.2 104 13 118l21.2 14v-28Z"/>
    <path fill="#FFB8B8" d="M61.4 113.3v10.2H34.2v-10.2h27.2Z"/>
  </g>
  <g class="c-area-card__letter-group">
    <path fill="#95BAD6" d="M184 0h40v136h-40V0Z"/>
    <path fill="#FBD492" d="M140 49h44v38h-44V49Z"/>
  </g>
  <path class="c-area-card__letter-upright" fill="#FFB8B8" d="M100 0h40v136h-40V0Z"/>

  <g class="c-area-card__guide-dog">
    <path fill="#F68282" d="m111.6 133.4 50.7-47.2-4-4.4-50.8 47.1 4.1 4.5Zm35.5-63.8-21.3 19.2 4 4.4 21.4-19.1-4-4.5h-.1Zm15.5.3c-4.3-4.2-11-4.3-15.5-.3l4 4.5a5.3 5.3 0 0 1 7.2.1l4.3-4.3Zm-.3 16.3c4.7-4.4 4.8-11.8.3-16.3l-4.3 4.3c2.1 2 2.1 5.5 0 7.6l4 4.4Z"/>
    <path fill="#5C0000" d="M108.7 65c-6 0-11.4 3.8-13.4 9.5l-.2.6H77v10.6a14 14 0 0 0 14.2 14H97a284.97 284.97 0 0 0-2.5 24.2V134H140v-5c-.71-1.75-1.38-3.52-2-5.3a239.18 239.18 0 0 1-4.7-14.6c-1.2-3.9-1.8-7-2.3-9.4h2.5V79a14 14 0 0 0-14.2-14h-10.6Z"/>
    <path fill="#F68282" d="M112 77.1v9.3h5v-9.3h-5Zm13.3 22.7h8.3v-5h-8.3v5Zm-13.4-13.4c0 7.4 6 13.4 13.4 13.4v-5a8.3 8.3 0 0 1-8.3-8.4h-5.1Zm29.9 40.9H92.3v8.7h49.5v-8.7Z"/>
  </g>
</svg>
